G04 (created by PCBNEW-RS274X (2012-apr-16-27)-stable) date Tue 13 Aug 2013 10:34:46 AM IST*
G01*
G70*
G90*
%MOIN*%
G04 Gerber Fmt 3.4, Leading zero omitted, Abs format*
%FSLAX34Y34*%
G04 APERTURE LIST*
%ADD10C,0.006000*%
%ADD11C,0.005000*%
%ADD12C,0.002600*%
%ADD13C,0.008000*%
%ADD14C,0.015000*%
%ADD15C,0.010000*%
%ADD16C,0.003500*%
G04 APERTURE END LIST*
G54D10*
G54D11*
X36532Y-38388D02*
X39956Y-38388D01*
X39956Y-38388D02*
X39956Y-43112D01*
X39956Y-43112D02*
X36532Y-43112D01*
X36532Y-43112D02*
X36532Y-38388D01*
G54D12*
X46600Y-38350D02*
X46600Y-38150D01*
X46600Y-38150D02*
X46400Y-38150D01*
X46400Y-38350D02*
X46400Y-38150D01*
X46600Y-38350D02*
X46400Y-38350D01*
X46600Y-39350D02*
X46600Y-39150D01*
X46600Y-39150D02*
X46400Y-39150D01*
X46400Y-39350D02*
X46400Y-39150D01*
X46600Y-39350D02*
X46400Y-39350D01*
X46600Y-40350D02*
X46600Y-40150D01*
X46600Y-40150D02*
X46400Y-40150D01*
X46400Y-40350D02*
X46400Y-40150D01*
X46600Y-40350D02*
X46400Y-40350D01*
X46600Y-41350D02*
X46600Y-41150D01*
X46600Y-41150D02*
X46400Y-41150D01*
X46400Y-41350D02*
X46400Y-41150D01*
X46600Y-41350D02*
X46400Y-41350D01*
X46600Y-42350D02*
X46600Y-42150D01*
X46600Y-42150D02*
X46400Y-42150D01*
X46400Y-42350D02*
X46400Y-42150D01*
X46600Y-42350D02*
X46400Y-42350D01*
X46600Y-43350D02*
X46600Y-43150D01*
X46600Y-43150D02*
X46400Y-43150D01*
X46400Y-43350D02*
X46400Y-43150D01*
X46600Y-43350D02*
X46400Y-43350D01*
G54D13*
X46250Y-38750D02*
X46000Y-38500D01*
X46000Y-38500D02*
X46000Y-38000D01*
X46000Y-38000D02*
X46250Y-37750D01*
X46750Y-37750D02*
X47000Y-38000D01*
X47000Y-38000D02*
X47000Y-38500D01*
X47000Y-38500D02*
X46750Y-38750D01*
X46000Y-40500D02*
X46000Y-40000D01*
X46000Y-40000D02*
X46250Y-39750D01*
X46750Y-39750D02*
X47000Y-40000D01*
X46250Y-39750D02*
X46000Y-39500D01*
X46000Y-39500D02*
X46000Y-39000D01*
X46000Y-39000D02*
X46250Y-38750D01*
X46750Y-38750D02*
X47000Y-39000D01*
X47000Y-39000D02*
X47000Y-39500D01*
X47000Y-39500D02*
X46750Y-39750D01*
X46250Y-41750D02*
X46000Y-41500D01*
X46000Y-41500D02*
X46000Y-41000D01*
X46000Y-41000D02*
X46250Y-40750D01*
X46750Y-40750D02*
X47000Y-41000D01*
X47000Y-41000D02*
X47000Y-41500D01*
X47000Y-41500D02*
X46750Y-41750D01*
X46000Y-40500D02*
X46250Y-40750D01*
X46750Y-40750D02*
X47000Y-40500D01*
X47000Y-40000D02*
X47000Y-40500D01*
X46000Y-43500D02*
X46000Y-43000D01*
X46000Y-43000D02*
X46250Y-42750D01*
X46750Y-42750D02*
X47000Y-43000D01*
X46250Y-42750D02*
X46000Y-42500D01*
X46000Y-42500D02*
X46000Y-42000D01*
X46000Y-42000D02*
X46250Y-41750D01*
X46750Y-41750D02*
X47000Y-42000D01*
X47000Y-42000D02*
X47000Y-42500D01*
X47000Y-42500D02*
X46750Y-42750D01*
X46250Y-43750D02*
X46750Y-43750D01*
X46000Y-43500D02*
X46250Y-43750D01*
X46750Y-43750D02*
X47000Y-43500D01*
X47000Y-43000D02*
X47000Y-43500D01*
X46250Y-37750D02*
X46750Y-37750D01*
G54D12*
X43650Y-43100D02*
X43850Y-43100D01*
X43850Y-43100D02*
X43850Y-42900D01*
X43650Y-42900D02*
X43850Y-42900D01*
X43650Y-43100D02*
X43650Y-42900D01*
X42650Y-43100D02*
X42850Y-43100D01*
X42850Y-43100D02*
X42850Y-42900D01*
X42650Y-42900D02*
X42850Y-42900D01*
X42650Y-43100D02*
X42650Y-42900D01*
G54D13*
X42500Y-42500D02*
X43000Y-42500D01*
X43000Y-42500D02*
X43250Y-42750D01*
X43250Y-43250D02*
X43000Y-43500D01*
X43250Y-42750D02*
X43500Y-42500D01*
X43500Y-42500D02*
X44000Y-42500D01*
X44000Y-42500D02*
X44250Y-42750D01*
X44250Y-43250D02*
X44000Y-43500D01*
X44000Y-43500D02*
X43500Y-43500D01*
X43500Y-43500D02*
X43250Y-43250D01*
X42250Y-42750D02*
X42250Y-43250D01*
X42500Y-42500D02*
X42250Y-42750D01*
X42250Y-43250D02*
X42500Y-43500D01*
X43000Y-43500D02*
X42500Y-43500D01*
X44250Y-42750D02*
X44250Y-43250D01*
G54D14*
X41500Y-38250D02*
X40500Y-38250D01*
X42059Y-38250D02*
X42048Y-38358D01*
X42016Y-38463D01*
X41965Y-38559D01*
X41896Y-38643D01*
X41812Y-38713D01*
X41716Y-38765D01*
X41612Y-38797D01*
X41503Y-38808D01*
X41396Y-38799D01*
X41291Y-38768D01*
X41194Y-38717D01*
X41109Y-38649D01*
X41039Y-38565D01*
X40987Y-38470D01*
X40954Y-38366D01*
X40942Y-38257D01*
X40951Y-38150D01*
X40981Y-38045D01*
X41031Y-37948D01*
X41098Y-37862D01*
X41181Y-37791D01*
X41277Y-37738D01*
X41380Y-37705D01*
X41489Y-37692D01*
X41597Y-37700D01*
X41702Y-37729D01*
X41799Y-37779D01*
X41885Y-37846D01*
X41956Y-37928D01*
X42010Y-38023D01*
X42045Y-38127D01*
X42058Y-38235D01*
X42059Y-38250D01*
X41500Y-39500D02*
X40500Y-39500D01*
X42059Y-39500D02*
X42048Y-39608D01*
X42016Y-39713D01*
X41965Y-39809D01*
X41896Y-39893D01*
X41812Y-39963D01*
X41716Y-40015D01*
X41612Y-40047D01*
X41503Y-40058D01*
X41396Y-40049D01*
X41291Y-40018D01*
X41194Y-39967D01*
X41109Y-39899D01*
X41039Y-39815D01*
X40987Y-39720D01*
X40954Y-39616D01*
X40942Y-39507D01*
X40951Y-39400D01*
X40981Y-39295D01*
X41031Y-39198D01*
X41098Y-39112D01*
X41181Y-39041D01*
X41277Y-38988D01*
X41380Y-38955D01*
X41489Y-38942D01*
X41597Y-38950D01*
X41702Y-38979D01*
X41799Y-39029D01*
X41885Y-39096D01*
X41956Y-39178D01*
X42010Y-39273D01*
X42045Y-39377D01*
X42058Y-39485D01*
X42059Y-39500D01*
X40750Y-43000D02*
X41750Y-43000D01*
X41309Y-43000D02*
X41298Y-43108D01*
X41266Y-43213D01*
X41215Y-43309D01*
X41146Y-43393D01*
X41062Y-43463D01*
X40966Y-43515D01*
X40862Y-43547D01*
X40753Y-43558D01*
X40646Y-43549D01*
X40541Y-43518D01*
X40444Y-43467D01*
X40359Y-43399D01*
X40289Y-43315D01*
X40237Y-43220D01*
X40204Y-43116D01*
X40192Y-43007D01*
X40201Y-42900D01*
X40231Y-42795D01*
X40281Y-42698D01*
X40348Y-42612D01*
X40431Y-42541D01*
X40527Y-42488D01*
X40630Y-42455D01*
X40739Y-42442D01*
X40847Y-42450D01*
X40952Y-42479D01*
X41049Y-42529D01*
X41135Y-42596D01*
X41206Y-42678D01*
X41260Y-42773D01*
X41295Y-42877D01*
X41308Y-42985D01*
X41309Y-43000D01*
X40750Y-41750D02*
X41750Y-41750D01*
X41309Y-41750D02*
X41298Y-41858D01*
X41266Y-41963D01*
X41215Y-42059D01*
X41146Y-42143D01*
X41062Y-42213D01*
X40966Y-42265D01*
X40862Y-42297D01*
X40753Y-42308D01*
X40646Y-42299D01*
X40541Y-42268D01*
X40444Y-42217D01*
X40359Y-42149D01*
X40289Y-42065D01*
X40237Y-41970D01*
X40204Y-41866D01*
X40192Y-41757D01*
X40201Y-41650D01*
X40231Y-41545D01*
X40281Y-41448D01*
X40348Y-41362D01*
X40431Y-41291D01*
X40527Y-41238D01*
X40630Y-41205D01*
X40739Y-41192D01*
X40847Y-41200D01*
X40952Y-41229D01*
X41049Y-41279D01*
X41135Y-41346D01*
X41206Y-41428D01*
X41260Y-41523D01*
X41295Y-41627D01*
X41308Y-41735D01*
X41309Y-41750D01*
X40750Y-40500D02*
X41750Y-40500D01*
X41309Y-40500D02*
X41298Y-40608D01*
X41266Y-40713D01*
X41215Y-40809D01*
X41146Y-40893D01*
X41062Y-40963D01*
X40966Y-41015D01*
X40862Y-41047D01*
X40753Y-41058D01*
X40646Y-41049D01*
X40541Y-41018D01*
X40444Y-40967D01*
X40359Y-40899D01*
X40289Y-40815D01*
X40237Y-40720D01*
X40204Y-40616D01*
X40192Y-40507D01*
X40201Y-40400D01*
X40231Y-40295D01*
X40281Y-40198D01*
X40348Y-40112D01*
X40431Y-40041D01*
X40527Y-39988D01*
X40630Y-39955D01*
X40739Y-39942D01*
X40847Y-39950D01*
X40952Y-39979D01*
X41049Y-40029D01*
X41135Y-40096D01*
X41206Y-40178D01*
X41260Y-40273D01*
X41295Y-40377D01*
X41308Y-40485D01*
X41309Y-40500D01*
G54D15*
X44500Y-38000D02*
X44500Y-38500D01*
X44500Y-38500D02*
X43500Y-38500D01*
X43500Y-38500D02*
X43500Y-38000D01*
X45000Y-38000D02*
X45000Y-42000D01*
X45000Y-42000D02*
X43000Y-42000D01*
X43000Y-42000D02*
X43000Y-38000D01*
X43000Y-38000D02*
X45000Y-38000D01*
G54D16*
X38347Y-38575D02*
X38347Y-38689D01*
X38339Y-38712D01*
X38324Y-38727D01*
X38301Y-38735D01*
X38286Y-38735D01*
X38507Y-38735D02*
X38415Y-38735D01*
X38461Y-38735D02*
X38461Y-38575D01*
X38446Y-38598D01*
X38431Y-38613D01*
X38415Y-38620D01*
X38038Y-42575D02*
X38038Y-42704D01*
X38046Y-42720D01*
X38053Y-42727D01*
X38069Y-42735D01*
X38099Y-42735D01*
X38114Y-42727D01*
X38122Y-42720D01*
X38130Y-42704D01*
X38130Y-42575D01*
X38198Y-42727D02*
X38221Y-42735D01*
X38259Y-42735D01*
X38275Y-42727D01*
X38282Y-42720D01*
X38290Y-42704D01*
X38290Y-42689D01*
X38282Y-42674D01*
X38275Y-42666D01*
X38259Y-42659D01*
X38229Y-42651D01*
X38214Y-42643D01*
X38206Y-42636D01*
X38198Y-42620D01*
X38198Y-42605D01*
X38206Y-42590D01*
X38214Y-42582D01*
X38229Y-42575D01*
X38267Y-42575D01*
X38290Y-42582D01*
X38411Y-42651D02*
X38434Y-42659D01*
X38442Y-42666D01*
X38450Y-42681D01*
X38450Y-42704D01*
X38442Y-42720D01*
X38434Y-42727D01*
X38419Y-42735D01*
X38358Y-42735D01*
X38358Y-42575D01*
X38411Y-42575D01*
X38427Y-42582D01*
X38434Y-42590D01*
X38442Y-42605D01*
X38442Y-42620D01*
X38434Y-42636D01*
X38427Y-42643D01*
X38411Y-42651D01*
X38358Y-42651D01*
X38518Y-42735D02*
X38518Y-42575D01*
X38579Y-42575D01*
X38594Y-42582D01*
X38602Y-42590D01*
X38610Y-42605D01*
X38610Y-42628D01*
X38602Y-42643D01*
X38594Y-42651D01*
X38579Y-42659D01*
X38518Y-42659D01*
X38770Y-42720D02*
X38762Y-42727D01*
X38739Y-42735D01*
X38724Y-42735D01*
X38701Y-42727D01*
X38686Y-42712D01*
X38678Y-42697D01*
X38670Y-42666D01*
X38670Y-42643D01*
X38678Y-42613D01*
X38686Y-42598D01*
X38701Y-42582D01*
X38724Y-42575D01*
X38739Y-42575D01*
X38762Y-42582D01*
X38770Y-42590D01*
X38891Y-42651D02*
X38914Y-42659D01*
X38922Y-42666D01*
X38930Y-42681D01*
X38930Y-42704D01*
X38922Y-42720D01*
X38914Y-42727D01*
X38899Y-42735D01*
X38838Y-42735D01*
X38838Y-42575D01*
X38891Y-42575D01*
X38907Y-42582D01*
X38914Y-42590D01*
X38922Y-42605D01*
X38922Y-42620D01*
X38914Y-42636D01*
X38907Y-42643D01*
X38891Y-42651D01*
X38838Y-42651D01*
X45732Y-42899D02*
X45232Y-42899D01*
X45232Y-42708D01*
X45256Y-42661D01*
X45280Y-42637D01*
X45328Y-42613D01*
X45399Y-42613D01*
X45447Y-42637D01*
X45470Y-42661D01*
X45494Y-42708D01*
X45494Y-42899D01*
X45732Y-42137D02*
X45732Y-42423D01*
X45732Y-42280D02*
X45232Y-42280D01*
X45304Y-42328D01*
X45351Y-42375D01*
X45375Y-42423D01*
X47655Y-43309D02*
X47679Y-43333D01*
X47702Y-43404D01*
X47702Y-43452D01*
X47679Y-43524D01*
X47631Y-43571D01*
X47583Y-43595D01*
X47488Y-43619D01*
X47417Y-43619D01*
X47321Y-43595D01*
X47274Y-43571D01*
X47226Y-43524D01*
X47202Y-43452D01*
X47202Y-43404D01*
X47226Y-43333D01*
X47250Y-43309D01*
X47202Y-43000D02*
X47202Y-42904D01*
X47226Y-42857D01*
X47274Y-42809D01*
X47369Y-42785D01*
X47536Y-42785D01*
X47631Y-42809D01*
X47679Y-42857D01*
X47702Y-42904D01*
X47702Y-43000D01*
X47679Y-43047D01*
X47631Y-43095D01*
X47536Y-43119D01*
X47369Y-43119D01*
X47274Y-43095D01*
X47226Y-43047D01*
X47202Y-43000D01*
X47702Y-42571D02*
X47202Y-42571D01*
X47702Y-42285D01*
X47202Y-42285D01*
X47702Y-42047D02*
X47202Y-42047D01*
X47702Y-41761D01*
X47202Y-41761D01*
X47750Y-41642D02*
X47750Y-41261D01*
X47202Y-40928D02*
X47202Y-41023D01*
X47226Y-41071D01*
X47250Y-41094D01*
X47321Y-41142D01*
X47417Y-41166D01*
X47607Y-41166D01*
X47655Y-41142D01*
X47679Y-41118D01*
X47702Y-41071D01*
X47702Y-40975D01*
X47679Y-40928D01*
X47655Y-40904D01*
X47607Y-40880D01*
X47488Y-40880D01*
X47440Y-40904D01*
X47417Y-40928D01*
X47393Y-40975D01*
X47393Y-41071D01*
X47417Y-41118D01*
X47440Y-41142D01*
X47488Y-41166D01*
X43101Y-42232D02*
X43101Y-41732D01*
X43292Y-41732D01*
X43339Y-41756D01*
X43363Y-41780D01*
X43387Y-41828D01*
X43387Y-41899D01*
X43363Y-41947D01*
X43339Y-41970D01*
X43292Y-41994D01*
X43101Y-41994D01*
X43577Y-41780D02*
X43601Y-41756D01*
X43649Y-41732D01*
X43768Y-41732D01*
X43815Y-41756D01*
X43839Y-41780D01*
X43863Y-41828D01*
X43863Y-41875D01*
X43839Y-41947D01*
X43553Y-42232D01*
X43863Y-42232D01*
X42691Y-44155D02*
X42667Y-44179D01*
X42596Y-44202D01*
X42548Y-44202D01*
X42476Y-44179D01*
X42429Y-44131D01*
X42405Y-44083D01*
X42381Y-43988D01*
X42381Y-43917D01*
X42405Y-43821D01*
X42429Y-43774D01*
X42476Y-43726D01*
X42548Y-43702D01*
X42596Y-43702D01*
X42667Y-43726D01*
X42691Y-43750D01*
X43000Y-43702D02*
X43096Y-43702D01*
X43143Y-43726D01*
X43191Y-43774D01*
X43215Y-43869D01*
X43215Y-44036D01*
X43191Y-44131D01*
X43143Y-44179D01*
X43096Y-44202D01*
X43000Y-44202D01*
X42953Y-44179D01*
X42905Y-44131D01*
X42881Y-44036D01*
X42881Y-43869D01*
X42905Y-43774D01*
X42953Y-43726D01*
X43000Y-43702D01*
X43429Y-44202D02*
X43429Y-43702D01*
X43715Y-44202D01*
X43715Y-43702D01*
X43953Y-44202D02*
X43953Y-43702D01*
X44239Y-44202D01*
X44239Y-43702D01*
X44358Y-44250D02*
X44739Y-44250D01*
X44834Y-43750D02*
X44858Y-43726D01*
X44906Y-43702D01*
X45025Y-43702D01*
X45072Y-43726D01*
X45096Y-43750D01*
X45120Y-43798D01*
X45120Y-43845D01*
X45096Y-43917D01*
X44810Y-44202D01*
X45120Y-44202D01*
G54D13*
X41031Y-37473D02*
X41031Y-36923D01*
X41150Y-36923D01*
X41222Y-36949D01*
X41269Y-37001D01*
X41293Y-37054D01*
X41317Y-37158D01*
X41317Y-37237D01*
X41293Y-37342D01*
X41269Y-37394D01*
X41222Y-37446D01*
X41150Y-37473D01*
X41031Y-37473D01*
X41793Y-37473D02*
X41507Y-37473D01*
X41650Y-37473D02*
X41650Y-36923D01*
X41602Y-37001D01*
X41555Y-37054D01*
X41507Y-37080D01*
X41031Y-38723D02*
X41031Y-38173D01*
X41150Y-38173D01*
X41222Y-38199D01*
X41269Y-38251D01*
X41293Y-38304D01*
X41317Y-38408D01*
X41317Y-38487D01*
X41293Y-38592D01*
X41269Y-38644D01*
X41222Y-38696D01*
X41150Y-38723D01*
X41031Y-38723D01*
X41507Y-38225D02*
X41531Y-38199D01*
X41579Y-38173D01*
X41698Y-38173D01*
X41745Y-38199D01*
X41769Y-38225D01*
X41793Y-38277D01*
X41793Y-38330D01*
X41769Y-38408D01*
X41483Y-38723D01*
X41793Y-38723D01*
X40767Y-44223D02*
X40600Y-43961D01*
X40481Y-44223D02*
X40481Y-43673D01*
X40672Y-43673D01*
X40719Y-43699D01*
X40743Y-43725D01*
X40767Y-43777D01*
X40767Y-43856D01*
X40743Y-43908D01*
X40719Y-43935D01*
X40672Y-43961D01*
X40481Y-43961D01*
X41243Y-44223D02*
X40957Y-44223D01*
X41100Y-44223D02*
X41100Y-43673D01*
X41052Y-43751D01*
X41005Y-43804D01*
X40957Y-43830D01*
X40767Y-42973D02*
X40600Y-42711D01*
X40481Y-42973D02*
X40481Y-42423D01*
X40672Y-42423D01*
X40719Y-42449D01*
X40743Y-42475D01*
X40767Y-42527D01*
X40767Y-42606D01*
X40743Y-42658D01*
X40719Y-42685D01*
X40672Y-42711D01*
X40481Y-42711D01*
X40957Y-42475D02*
X40981Y-42449D01*
X41029Y-42423D01*
X41148Y-42423D01*
X41195Y-42449D01*
X41219Y-42475D01*
X41243Y-42527D01*
X41243Y-42580D01*
X41219Y-42658D01*
X40933Y-42973D01*
X41243Y-42973D01*
X40767Y-41723D02*
X40600Y-41461D01*
X40481Y-41723D02*
X40481Y-41173D01*
X40672Y-41173D01*
X40719Y-41199D01*
X40743Y-41225D01*
X40767Y-41277D01*
X40767Y-41356D01*
X40743Y-41408D01*
X40719Y-41435D01*
X40672Y-41461D01*
X40481Y-41461D01*
X40933Y-41173D02*
X41243Y-41173D01*
X41076Y-41382D01*
X41148Y-41382D01*
X41195Y-41408D01*
X41219Y-41435D01*
X41243Y-41487D01*
X41243Y-41618D01*
X41219Y-41670D01*
X41195Y-41696D01*
X41148Y-41723D01*
X41005Y-41723D01*
X40957Y-41696D01*
X40933Y-41670D01*
X43561Y-37702D02*
X43561Y-37202D01*
X44032Y-37655D02*
X44011Y-37679D01*
X43947Y-37702D01*
X43904Y-37702D01*
X43839Y-37679D01*
X43797Y-37631D01*
X43775Y-37583D01*
X43754Y-37488D01*
X43754Y-37417D01*
X43775Y-37321D01*
X43797Y-37274D01*
X43839Y-37226D01*
X43904Y-37202D01*
X43947Y-37202D01*
X44011Y-37226D01*
X44032Y-37250D01*
X44461Y-37702D02*
X44204Y-37702D01*
X44332Y-37702D02*
X44332Y-37202D01*
X44289Y-37274D01*
X44247Y-37321D01*
X44204Y-37345D01*
X44060Y-42295D02*
X44060Y-42104D01*
X44202Y-42333D02*
X43702Y-42200D01*
X44202Y-42066D01*
X43702Y-41990D02*
X43702Y-41761D01*
X44202Y-41876D02*
X43702Y-41876D01*
X43702Y-41685D02*
X43702Y-41456D01*
X44202Y-41571D02*
X43702Y-41571D01*
X44202Y-41323D02*
X43702Y-41323D01*
X44202Y-41133D02*
X43702Y-41133D01*
X44202Y-40904D01*
X43702Y-40904D01*
X43964Y-40638D02*
X44202Y-40638D01*
X43702Y-40771D02*
X43964Y-40638D01*
X43702Y-40504D01*
X43917Y-40314D02*
X43893Y-40352D01*
X43869Y-40371D01*
X43821Y-40390D01*
X43798Y-40390D01*
X43750Y-40371D01*
X43726Y-40352D01*
X43702Y-40314D01*
X43702Y-40237D01*
X43726Y-40199D01*
X43750Y-40180D01*
X43798Y-40161D01*
X43821Y-40161D01*
X43869Y-40180D01*
X43893Y-40199D01*
X43917Y-40237D01*
X43917Y-40314D01*
X43940Y-40352D01*
X43964Y-40371D01*
X44012Y-40390D01*
X44107Y-40390D01*
X44155Y-40371D01*
X44179Y-40352D01*
X44202Y-40314D01*
X44202Y-40237D01*
X44179Y-40199D01*
X44155Y-40180D01*
X44107Y-40161D01*
X44012Y-40161D01*
X43964Y-40180D01*
X43940Y-40199D01*
X43917Y-40237D01*
X43702Y-39799D02*
X43702Y-39990D01*
X43940Y-40009D01*
X43917Y-39990D01*
X43893Y-39952D01*
X43893Y-39856D01*
X43917Y-39818D01*
X43940Y-39799D01*
X43988Y-39780D01*
X44107Y-39780D01*
X44155Y-39799D01*
X44179Y-39818D01*
X44202Y-39856D01*
X44202Y-39952D01*
X44179Y-39990D01*
X44155Y-40009D01*
X44012Y-39609D02*
X44012Y-39304D01*
X43750Y-39133D02*
X43726Y-39114D01*
X43702Y-39076D01*
X43702Y-38980D01*
X43726Y-38942D01*
X43750Y-38923D01*
X43798Y-38904D01*
X43845Y-38904D01*
X43917Y-38923D01*
X44202Y-39152D01*
X44202Y-38904D01*
X43702Y-38657D02*
X43702Y-38618D01*
X43726Y-38580D01*
X43750Y-38561D01*
X43798Y-38542D01*
X43893Y-38523D01*
X44012Y-38523D01*
X44107Y-38542D01*
X44155Y-38561D01*
X44179Y-38580D01*
X44202Y-38618D01*
X44202Y-38657D01*
X44179Y-38695D01*
X44155Y-38714D01*
X44107Y-38733D01*
X44012Y-38752D01*
X43893Y-38752D01*
X43798Y-38733D01*
X43750Y-38714D01*
X43726Y-38695D01*
X43702Y-38657D01*
X44202Y-38352D02*
X43702Y-38352D01*
X43702Y-38199D01*
X43726Y-38161D01*
X43750Y-38142D01*
X43798Y-38123D01*
X43869Y-38123D01*
X43917Y-38142D01*
X43940Y-38161D01*
X43964Y-38199D01*
X43964Y-38352D01*
X43702Y-37952D02*
X44107Y-37952D01*
X44155Y-37933D01*
X44179Y-37914D01*
X44202Y-37876D01*
X44202Y-37799D01*
X44179Y-37761D01*
X44155Y-37742D01*
X44107Y-37723D01*
X43702Y-37723D01*
M02*
