<?xml version="1.0" standalone="no"?>
<!DOCTYPE svg PUBLIC "-//W3C//DTD SVG 1.1//EN" 
"http://www.w3.org/Graphics/SVG/1.1/DTD/svg11.dtd"> 
<svg
  xmlns="http://www.w3.org/2000/svg"
  version="1.1"
  width="11.7in" height="8.267in" viewBox="0 0 117000 82670 "
>
  <title>SVG Picture created as digispark-brd.svg </title>
  <desc>Picture generated by wxSVG v0101 </desc>
  <g style="fill:black; stroke:black; stroke-width:1">
</g>
<g style="fill:#000000; fill-opacity:0.0; 
  stroke:#0000C0; stroke-linecap:round; stroke-linejoin:round; stroke-opacity:1.0; stroke-opacity:1.0; stroke-width:0" 
   transform="translate(0 0) scale(1 1)">
<path d="M41873 37000 L41877 37000" /> 
<path d="M41875 36998 L41875 37002" /> 
</g>
<g style="fill:#FFFF00; fill-opacity:0.0; 
  stroke:#FFFF00; stroke-linecap:round; stroke-linejoin:round; stroke-opacity:1.0; stroke-opacity:1.0; stroke-width:120" 
   transform="translate(0 0) scale(1 1)">
<path d="M39390 36600 L39419 36562" /> 
<path d="M39419 36562 L39476 36524" /> 
<path d="M39476 36524 L39619 36524" /> 
<path d="M39619 36524 L39676 36562" /> 
<path d="M39676 36562 L39705 36600" /> 
<path d="M39705 36600 L39733 36676" /> 
<path d="M39733 36676 L39733 36752" /> 
<path d="M39733 36752 L39705 36867" /> 
<path d="M39705 36867 L39362 37324" /> 
<path d="M39362 37324 L39733 37324" /> 
<g style = "stroke-linecap:round;" > 
<path d="M39733 37324 L39733 37324" /> 
</g><path d="M39933 36524 L40333 36524" /> 
<path d="M40333 36524 L40076 37324" /> 
<g style = "stroke-linecap:round;" > 
<path d="M40076 37324 L40076 37324" /> 
</g><path d="M40561 37248 L40589 37286" /> 
<path d="M40589 37286 L40561 37324" /> 
<path d="M40561 37324 L40532 37286" /> 
<path d="M40532 37286 L40561 37248" /> 
<path d="M40561 37248 L40561 37324" /> 
<g style = "stroke-linecap:round;" > 
<path d="M40561 37324 L40561 37324" /> 
</g><path d="M40790 36524 L41161 36524" /> 
<path d="M41161 36524 L40961 36829" /> 
<path d="M40961 36829 L41047 36829" /> 
<path d="M41047 36829 L41104 36867" /> 
<path d="M41104 36867 L41133 36905" /> 
<path d="M41133 36905 L41161 36981" /> 
<path d="M41161 36981 L41161 37171" /> 
<path d="M41161 37171 L41133 37248" /> 
<path d="M41133 37248 L41104 37286" /> 
<path d="M41104 37286 L41047 37324" /> 
<path d="M41047 37324 L40875 37324" /> 
<path d="M40875 37324 L40818 37286" /> 
<path d="M40818 37286 L40790 37248" /> 
<g style = "stroke-linecap:round;" > 
<path d="M40790 37248 L40790 37248" /> 
</g><path d="M41532 36524 L41589 36524" /> 
<path d="M41589 36524 L41646 36562" /> 
<path d="M41646 36562 L41675 36600" /> 
<path d="M41675 36600 L41704 36676" /> 
<path d="M41704 36676 L41732 36829" /> 
<path d="M41732 36829 L41732 37019" /> 
<path d="M41732 37019 L41704 37171" /> 
<path d="M41704 37171 L41675 37248" /> 
<path d="M41675 37248 L41646 37286" /> 
<path d="M41646 37286 L41589 37324" /> 
<path d="M41589 37324 L41532 37324" /> 
<path d="M41532 37324 L41475 37286" /> 
<path d="M41475 37286 L41446 37248" /> 
<path d="M41446 37248 L41418 37171" /> 
<path d="M41418 37171 L41389 37019" /> 
<path d="M41389 37019 L41389 36829" /> 
<path d="M41389 36829 L41418 36676" /> 
<path d="M41418 36676 L41446 36600" /> 
<path d="M41446 36600 L41475 36562" /> 
<path d="M41475 36562 L41532 36524" /> 
<path d="M42275 36524 L41989 36524" /> 
<path d="M41989 36524 L41960 36905" /> 
<path d="M41960 36905 L41989 36867" /> 
<path d="M41989 36867 L42046 36829" /> 
<path d="M42046 36829 L42189 36829" /> 
<path d="M42189 36829 L42246 36867" /> 
<path d="M42246 36867 L42275 36905" /> 
<path d="M42275 36905 L42303 36981" /> 
<path d="M42303 36981 L42303 37171" /> 
<path d="M42303 37171 L42275 37248" /> 
<path d="M42275 37248 L42246 37286" /> 
<path d="M42246 37286 L42189 37324" /> 
<path d="M42189 37324 L42046 37324" /> 
<path d="M42046 37324 L41989 37286" /> 
<path d="M41989 37286 L41960 37248" /> 
<g style = "stroke-linecap:round;" > 
<path d="M41960 37248 L41960 37248" /> 
</g><path d="M43017 37324 L43017 36790" /> 
<g style = "stroke-linecap:round;" > 
<path d="M43017 36790 L43017 36790" /> 
</g><path d="M43017 36867 L43045 36829" /> 
<path d="M43045 36829 L43103 36790" /> 
<path d="M43103 36790 L43188 36790" /> 
<path d="M43188 36790 L43245 36829" /> 
<path d="M43245 36829 L43274 36905" /> 
<path d="M43274 36905 L43274 37324" /> 
<g style = "stroke-linecap:round;" > 
<path d="M43274 37324 L43274 37324" /> 
</g><path d="M43274 36905 L43303 36829" /> 
<path d="M43303 36829 L43360 36790" /> 
<path d="M43360 36790 L43445 36790" /> 
<path d="M43445 36790 L43503 36829" /> 
<path d="M43503 36829 L43531 36905" /> 
<path d="M43531 36905 L43531 37324" /> 
<g style = "stroke-linecap:round;" > 
<path d="M43531 37324 L43531 37324" /> 
</g><path d="M43817 37324 L43817 36790" /> 
<g style = "stroke-linecap:round;" > 
<path d="M43817 36790 L43817 36790" /> 
</g><path d="M43817 36867 L43845 36829" /> 
<path d="M43845 36829 L43903 36790" /> 
<path d="M43903 36790 L43988 36790" /> 
<path d="M43988 36790 L44045 36829" /> 
<path d="M44045 36829 L44074 36905" /> 
<path d="M44074 36905 L44074 37324" /> 
<g style = "stroke-linecap:round;" > 
<path d="M44074 37324 L44074 37324" /> 
</g><path d="M44074 36905 L44103 36829" /> 
<path d="M44103 36829 L44160 36790" /> 
<path d="M44160 36790 L44245 36790" /> 
<path d="M44245 36790 L44303 36829" /> 
<path d="M44303 36829 L44331 36905" /> 
<path d="M44331 36905 L44331 37324" /> 
<g style = "stroke-linecap:round;" > 
<path d="M44331 37324 L44331 37324" /> 
</g><path d="M36500 37000 L47250 37000" /> 
<path d="M36500 37000 L36500 37000" /> 
<path d="M47250 37000 L47250 37000" /> 
<path d="M47250 37000 L46807 37230" /> 
<path d="M47250 37000 L46807 36770" /> 
<path d="M36500 37000 L36943 37230" /> 
<path d="M36500 37000 L36943 36770" /> 
</g>
<g style="fill:#FFFF00; fill-opacity:0.0; 
  stroke:#0000C0; stroke-linecap:round; stroke-linejoin:round; stroke-opacity:1.0; stroke-opacity:1.0; stroke-width:0" 
   transform="translate(0 0) scale(1 1)">
<path d="M48498 40750 L48502 40750" /> 
<path d="M48500 40748 L48500 40752" /> 
</g>
<g style="fill:#FFFF00; fill-opacity:0.0; 
  stroke:#FFFF00; stroke-linecap:round; stroke-linejoin:round; stroke-opacity:1.0; stroke-opacity:1.0; stroke-width:120" 
   transform="translate(0 0) scale(1 1)">
<path d="M48176 38608 L48176 38265" /> 
<g style = "stroke-linecap:round;" > 
<path d="M48176 38265 L48176 38265" /> 
</g><path d="M48176 38437 L48976 38437" /> 
<path d="M48976 38437 L48862 38380" /> 
<path d="M48862 38380 L48786 38322" /> 
<path d="M48786 38322 L48748 38265" /> 
<g style = "stroke-linecap:round;" > 
<path d="M48748 38265 L48748 38265" /> 
</g><path d="M48976 39151 L48976 38865" /> 
<path d="M48976 38865 L48595 38836" /> 
<path d="M48595 38836 L48633 38865" /> 
<path d="M48633 38865 L48671 38922" /> 
<path d="M48671 38922 L48671 39065" /> 
<path d="M48671 39065 L48633 39122" /> 
<path d="M48633 39122 L48595 39151" /> 
<path d="M48595 39151 L48519 39179" /> 
<path d="M48519 39179 L48329 39179" /> 
<path d="M48329 39179 L48252 39151" /> 
<path d="M48252 39151 L48214 39122" /> 
<path d="M48214 39122 L48176 39065" /> 
<path d="M48176 39065 L48176 38922" /> 
<path d="M48176 38922 L48214 38865" /> 
<path d="M48214 38865 L48252 38836" /> 
<g style = "stroke-linecap:round;" > 
<path d="M48252 38836 L48252 38836" /> 
</g><path d="M48252 39436 L48214 39464" /> 
<path d="M48214 39464 L48176 39436" /> 
<path d="M48176 39436 L48214 39407" /> 
<path d="M48214 39407 L48252 39436" /> 
<path d="M48252 39436 L48176 39436" /> 
<g style = "stroke-linecap:round;" > 
<path d="M48176 39436 L48176 39436" /> 
</g><path d="M48900 39693 L48938 39722" /> 
<path d="M48938 39722 L48976 39779" /> 
<path d="M48976 39779 L48976 39922" /> 
<path d="M48976 39922 L48938 39979" /> 
<path d="M48938 39979 L48900 40008" /> 
<path d="M48900 40008 L48824 40036" /> 
<path d="M48824 40036 L48748 40036" /> 
<path d="M48748 40036 L48633 40008" /> 
<path d="M48633 40008 L48176 39665" /> 
<path d="M48176 39665 L48176 40036" /> 
<g style = "stroke-linecap:round;" > 
<path d="M48176 40036 L48176 40036" /> 
</g><path d="M48710 40550 L48176 40550" /> 
<g style = "stroke-linecap:round;" > 
<path d="M48176 40550 L48176 40550" /> 
</g><path d="M49014 40407 L48443 40264" /> 
<path d="M48443 40264 L48443 40636" /> 
<g style = "stroke-linecap:round;" > 
<path d="M48443 40636 L48443 40636" /> 
</g><path d="M48976 40978 L48976 41035" /> 
<path d="M48976 41035 L48938 41092" /> 
<path d="M48938 41092 L48900 41121" /> 
<path d="M48900 41121 L48824 41150" /> 
<path d="M48824 41150 L48671 41178" /> 
<path d="M48671 41178 L48481 41178" /> 
<path d="M48481 41178 L48329 41150" /> 
<path d="M48329 41150 L48252 41121" /> 
<path d="M48252 41121 L48214 41092" /> 
<path d="M48214 41092 L48176 41035" /> 
<path d="M48176 41035 L48176 40978" /> 
<path d="M48176 40978 L48214 40921" /> 
<path d="M48214 40921 L48252 40892" /> 
<path d="M48252 40892 L48329 40864" /> 
<path d="M48329 40864 L48481 40835" /> 
<path d="M48481 40835 L48671 40835" /> 
<path d="M48671 40835 L48824 40864" /> 
<path d="M48824 40864 L48900 40892" /> 
<path d="M48900 40892 L48938 40921" /> 
<path d="M48938 40921 L48976 40978" /> 
<path d="M48176 41892 L48710 41892" /> 
<g style = "stroke-linecap:round;" > 
<path d="M48710 41892 L48710 41892" /> 
</g><path d="M48633 41892 L48671 41920" /> 
<path d="M48671 41920 L48710 41978" /> 
<path d="M48710 41978 L48710 42063" /> 
<path d="M48710 42063 L48671 42120" /> 
<path d="M48671 42120 L48595 42149" /> 
<path d="M48595 42149 L48176 42149" /> 
<g style = "stroke-linecap:round;" > 
<path d="M48176 42149 L48176 42149" /> 
</g><path d="M48595 42149 L48671 42178" /> 
<path d="M48671 42178 L48710 42235" /> 
<path d="M48710 42235 L48710 42320" /> 
<path d="M48710 42320 L48671 42378" /> 
<path d="M48671 42378 L48595 42406" /> 
<path d="M48595 42406 L48176 42406" /> 
<g style = "stroke-linecap:round;" > 
<path d="M48176 42406 L48176 42406" /> 
</g><path d="M48176 42692 L48710 42692" /> 
<g style = "stroke-linecap:round;" > 
<path d="M48710 42692 L48710 42692" /> 
</g><path d="M48633 42692 L48671 42720" /> 
<path d="M48671 42720 L48710 42778" /> 
<path d="M48710 42778 L48710 42863" /> 
<path d="M48710 42863 L48671 42920" /> 
<path d="M48671 42920 L48595 42949" /> 
<path d="M48595 42949 L48176 42949" /> 
<g style = "stroke-linecap:round;" > 
<path d="M48176 42949 L48176 42949" /> 
</g><path d="M48595 42949 L48671 42978" /> 
<path d="M48671 42978 L48710 43035" /> 
<path d="M48710 43035 L48710 43120" /> 
<path d="M48710 43120 L48671 43178" /> 
<path d="M48671 43178 L48595 43206" /> 
<path d="M48595 43206 L48176 43206" /> 
<g style = "stroke-linecap:round;" > 
<path d="M48176 43206 L48176 43206" /> 
</g><path d="M48500 37750 L48500 43750" /> 
<path d="M48500 37750 L48500 37750" /> 
<path d="M48500 43750 L48500 43750" /> 
<path d="M48500 43750 L48270 43307" /> 
<path d="M48500 43750 L48730 43307" /> 
<path d="M48500 37750 L48270 38193" /> 
<path d="M48500 37750 L48730 38193" /> 
</g>
<g style="fill:#FFFF00; fill-opacity:0.0; 
  stroke:#FFFF00; stroke-linecap:round; stroke-linejoin:round; stroke-opacity:1.0; stroke-opacity:1.0; stroke-width:150" 
   transform="translate(0 0) scale(1 1)">
<path d="M36500 43250 L36500 38250" /> 
<path d="M40000 43250 L36500 43250" /> 
<path d="M40000 43750 L40000 43250" /> 
<path d="M47250 43750 L40000 43750" /> 
<path d="M47250 37750 L47250 43750" /> 
<path d="M40000 37750 L47250 37750" /> 
<path d="M40000 38250 L40000 37750" /> 
<path d="M36500 38250 L40000 38250" /> 
</g>
<g style="fill:#FFFF00; fill-opacity:0.0; 
  stroke:#00A000; stroke-linecap:round; stroke-linejoin:round; stroke-opacity:1.0; stroke-opacity:1.0; stroke-width:80" 
   transform="translate(0 0) scale(1 1)">
<path d="M43250 38750 L45000 38750" /> 
<path d="M45250 38500 L45500 38500" /> 
<path d="M42750 43000 L42750 42250" /> 
<path d="M42250 43500 L42750 43000" /> 
<path d="M41250 43500 L42250 43500" /> 
<path d="M40750 43000 L41250 43500" /> 
</g>
<g style="fill:#FFFF00; fill-opacity:0.0; 
  stroke:#A00000; stroke-linecap:round; stroke-linejoin:round; stroke-opacity:1.0; stroke-opacity:1.0; stroke-width:80" 
   transform="translate(0 0) scale(1 1)">
<path d="M40000 42250 L40750 43000" /> 
<path d="M38500 42250 L40000 42250" /> 
<path d="M38422 42127 L38500 42250" /> 
</g>
<g style="fill:#FFFF00; fill-opacity:0.0; 
  stroke:#00A000; stroke-linecap:round; stroke-linejoin:round; stroke-opacity:1.0; stroke-opacity:1.0; stroke-width:80" 
   transform="translate(0 0) scale(1 1)">
<path d="M43000 39000 L43250 38750" /> 
<path d="M42000 39000 L43000 39000" /> 
<path d="M42000 40000 L42000 39000" /> 
<path d="M43000 40000 L42000 40000" /> 
<path d="M43000 42000 L43000 40000" /> 
<path d="M42750 42250 L43000 42000" /> 
<path d="M45000 38750 L45250 38500" /> 
</g>
<g style="fill:#FFFF00; fill-opacity:0.0; 
  stroke:#A00000; stroke-linecap:round; stroke-linejoin:round; stroke-opacity:1.0; stroke-opacity:1.0; stroke-width:80" 
   transform="translate(0 0) scale(1 1)">
<path d="M40750 40500 L38750 40500" /> 
<path d="M40750 40500 L40500 40250" /> 
<path d="M38500 40250 L38618 40357" /> 
<path d="M38750 40500 L38500 40250" /> 
<path d="M40500 40250 L40500 39500" /> 
</g>
<g style="fill:#FFFF00; fill-opacity:0.0; 
  stroke:#00A000; stroke-linecap:round; stroke-linejoin:round; stroke-opacity:1.0; stroke-opacity:1.0; stroke-width:80" 
   transform="translate(0 0) scale(1 1)">
<path d="M40250 40250 L40000 40000" /> 
<path d="M40000 40000 L40000 38750" /> 
</g>
<g style="fill:#FFFF00; fill-opacity:0.0; 
  stroke:#A00000; stroke-linecap:round; stroke-linejoin:round; stroke-opacity:1.0; stroke-opacity:1.0; stroke-width:80" 
   transform="translate(0 0) scale(1 1)">
<path d="M38500 41250 L38618 41143" /> 
<path d="M38750 41500 L38500 41250" /> 
<path d="M40250 41500 L38750 41500" /> 
<path d="M40500 41750 L40250 41500" /> 
<path d="M40750 41750 L40500 41750" /> 
</g>
<g style="fill:#FFFF00; fill-opacity:0.0; 
  stroke:#00A000; stroke-linecap:round; stroke-linejoin:round; stroke-opacity:1.0; stroke-opacity:1.0; stroke-width:80" 
   transform="translate(0 0) scale(1 1)">
<path d="M40250 41000 L40250 40250" /> 
<path d="M40750 41500 L40250 41000" /> 
<path d="M40750 41750 L40750 41500" /> 
</g>
<g style="fill:#FFFF00; fill-opacity:0.0; 
  stroke:#A00000; stroke-linecap:round; stroke-linejoin:round; stroke-opacity:1.0; stroke-opacity:1.0; stroke-width:80" 
   transform="translate(0 0) scale(1 1)">
<path d="M41750 42750 L41750 43000" /> 
<path d="M40750 41750 L41750 42750" /> 
</g>
<g style="fill:#FFFF00; fill-opacity:0.0; 
  stroke:#00A000; stroke-linecap:round; stroke-linejoin:round; stroke-opacity:1.0; stroke-opacity:1.0; stroke-width:80" 
   transform="translate(0 0) scale(1 1)">
<path d="M40000 38750 L40500 38250" /> 
</g>
<g style="fill:#FFFF00; fill-opacity:0.0; 
  stroke:#A00000; stroke-linecap:round; stroke-linejoin:round; stroke-opacity:1.0; stroke-opacity:1.0; stroke-width:80" 
   transform="translate(0 0) scale(1 1)">
<path d="M39750 39250 L40000 39000" /> 
<path d="M40000 39000 L41000 39000" /> 
<path d="M42500 41500 L43750 42750" /> 
</g>
<g style="fill:#FFFF00; fill-opacity:0.0; 
  stroke:#00A000; stroke-linecap:round; stroke-linejoin:round; stroke-opacity:1.0; stroke-opacity:1.0; stroke-width:80" 
   transform="translate(0 0) scale(1 1)">
<path d="M41250 41000 L41500 41250" /> 
</g>
<g style="fill:#FFFF00; fill-opacity:0.0; 
  stroke:#A00000; stroke-linecap:round; stroke-linejoin:round; stroke-opacity:1.0; stroke-opacity:1.0; stroke-width:80" 
   transform="translate(0 0) scale(1 1)">
<path d="M38422 39373 L38500 39250" /> 
<path d="M38500 39250 L39750 39250" /> 
</g>
<g style="fill:#FFFF00; fill-opacity:0.0; 
  stroke:#00A000; stroke-linecap:round; stroke-linejoin:round; stroke-opacity:1.0; stroke-opacity:1.0; stroke-width:80" 
   transform="translate(0 0) scale(1 1)">
<path d="M41500 41250 L42250 41250" /> 
<path d="M42250 41250 L42500 41500" /> 
</g>
<g style="fill:#FFFF00; fill-opacity:0.0; 
  stroke:#A00000; stroke-linecap:round; stroke-linejoin:round; stroke-opacity:1.0; stroke-opacity:1.0; stroke-width:80" 
   transform="translate(0 0) scale(1 1)">
<path d="M43750 42750 L43750 43000" /> 
</g>
<g style="fill:#FFFF00; fill-opacity:0.0; 
  stroke:#00A000; stroke-linecap:round; stroke-linejoin:round; stroke-opacity:1.0; stroke-opacity:1.0; stroke-width:80" 
   transform="translate(0 0) scale(1 1)">
<path d="M41500 39500 L41500 39750" /> 
</g>
<g style="fill:#FFFF00; fill-opacity:0.0; 
  stroke:#A00000; stroke-linecap:round; stroke-linejoin:round; stroke-opacity:1.0; stroke-opacity:1.0; stroke-width:80" 
   transform="translate(0 0) scale(1 1)">
<path d="M41000 39000 L41500 39500" /> 
</g>
<g style="fill:#FFFF00; fill-opacity:0.0; 
  stroke:#00A000; stroke-linecap:round; stroke-linejoin:round; stroke-opacity:1.0; stroke-opacity:1.0; stroke-width:80" 
   transform="translate(0 0) scale(1 1)">
<path d="M41250 40000 L41250 41000" /> 
<path d="M41500 39750 L41250 40000" /> 
</g>
<g style="fill:#FFFF00; fill-opacity:0.0; 
  stroke:#A00000; stroke-linecap:round; stroke-linejoin:round; stroke-opacity:1.0; stroke-opacity:1.0; stroke-width:80" 
   transform="translate(0 0) scale(1 1)">
<path d="M41500 39500 L41500 38250" /> 
</g>
<g style="fill:#FFFF00; fill-opacity:0.0; 
  stroke:#00A000; stroke-linecap:round; stroke-linejoin:round; stroke-opacity:1.0; stroke-opacity:1.0; stroke-width:80" 
   transform="translate(0 0) scale(1 1)">
<path d="M46500 42250 L46250 42000" /> 
<path d="M46250 42000 L45000 42000" /> 
<path d="M45000 42000 L45000 41000" /> 
<path d="M45000 41000 L45500 40500" /> 
</g>
<g style="fill:#FFFF00; fill-opacity:0.0; 
  stroke:#A00000; stroke-linecap:round; stroke-linejoin:round; stroke-opacity:1.0; stroke-opacity:1.0; stroke-width:80" 
   transform="translate(0 0) scale(1 1)">
<path d="M45500 41500 L45750 41750" /> 
<path d="M45750 41750 L45750 42500" /> 
<path d="M45750 42500 L46500 43250" /> 
<path d="M46250 41250 L46000 41000" /> 
<path d="M45000 40000 L45500 39500" /> 
<path d="M46500 41250 L46250 41250" /> 
<path d="M46000 41000 L45000 41000" /> 
<path d="M45000 41000 L45000 40000" /> 
</g>
<g style="fill:#FFFF00; fill-opacity:0.0; 
  stroke:#00A000; stroke-linecap:round; stroke-linejoin:round; stroke-opacity:1.0; stroke-opacity:1.0; stroke-width:80" 
   transform="translate(0 0) scale(1 1)">
<path d="M46500 38250 L46250 38000" /> 
<path d="M46250 38000 L45000 38000" /> 
<path d="M45000 38000 L44500 38500" /> 
<path d="M44500 38500 L42500 38500" /> 
<path d="M42500 40500 L41750 40500" /> 
</g>
<g style="fill:#FFFF00; fill-opacity:0.0; 
  stroke:#A00000; stroke-linecap:round; stroke-linejoin:round; stroke-opacity:1.0; stroke-opacity:1.0; stroke-width:80" 
   transform="translate(0 0) scale(1 1)">
<path d="M44000 39000 L42500 40500" /> 
<path d="M46000 39000 L44000 39000" /> 
<path d="M46500 39250 L46250 39250" /> 
<path d="M46250 39250 L46000 39000" /> 
</g>
<g style="fill:#FFFF00; fill-opacity:0.0; 
  stroke:#00A000; stroke-linecap:round; stroke-linejoin:round; stroke-opacity:1.0; stroke-opacity:1.0; stroke-width:80" 
   transform="translate(0 0) scale(1 1)">
<path d="M46500 40250 L46250 40000" /> 
<path d="M46250 40000 L45000 40000" /> 
<path d="M45000 40000 L44500 39500" /> 
<path d="M44500 39500 L42500 39500" /> 
</g>
<g style="fill:#FFFF00; fill-opacity:0.0; 
  stroke:#A00000; stroke-linecap:round; stroke-linejoin:round; stroke-opacity:1.0; stroke-opacity:1.0; stroke-width:80" 
   transform="translate(0 0) scale(1 1)">
<path d="M42500 39500 L42000 40000" /> 
<path d="M42000 40000 L41250 40000" /> 
<path d="M41250 40000 L41250 41000" /> 
<path d="M41250 41000 L41750 41500" /> 
<path d="M41750 41500 L41750 41750" /> 
</g>
<g style="fill:#A00000; fill-opacity:1.0; 
  stroke:#A00000; stroke-linecap:round; stroke-linejoin:round; stroke-opacity:1.0; stroke-opacity:1.0; stroke-width:0" 
   transform="translate(0 0) scale(1 1)">
<polygon style="fill-rule:evenodd; " 
points="36946,42422
36946,41832
39898,41832
39898,42422
" /> 
<polygon style="fill-rule:evenodd; " 
points="36946,39668
36946,39078
39898,39078
39898,39668
" /> 
<polygon style="fill-rule:evenodd; " 
points="37339,41339
37339,40947
39897,40947
39897,41339
" /> 
<polygon style="fill-rule:evenodd; " 
points="37339,40553
37339,40161
39897,40161
39897,40553
" /> 
</g>
<g style="fill:#A00000; fill-opacity:1.0; 
  stroke:#0000C0; stroke-linecap:round; stroke-linejoin:round; stroke-opacity:1.0; stroke-opacity:1.0; stroke-width:0" 
   transform="translate(0 0) scale(1 1)">
<path d="M38398 38670 L38402 38670" /> 
<path d="M38400 38668 L38400 38672" /> 
</g>
<g style="fill:#C0C0C0; fill-opacity:0.0; 
  stroke:#C0C0C0; stroke-linecap:round; stroke-linejoin:round; stroke-opacity:1.0; stroke-opacity:1.0; stroke-width:35" 
   transform="translate(0 0) scale(1 1)">
<path d="M38347 38575 L38347 38689" /> 
<path d="M38347 38689 L38339 38712" /> 
<path d="M38339 38712 L38324 38727" /> 
<path d="M38324 38727 L38301 38735" /> 
<path d="M38301 38735 L38286 38735" /> 
<g style = "stroke-linecap:round;" > 
<path d="M38286 38735 L38286 38735" /> 
</g><path d="M38507 38735 L38415 38735" /> 
<g style = "stroke-linecap:round;" > 
<path d="M38415 38735 L38415 38735" /> 
</g><path d="M38461 38735 L38461 38575" /> 
<path d="M38461 38575 L38446 38598" /> 
<path d="M38446 38598 L38431 38613" /> 
<path d="M38431 38613 L38415 38620" /> 
<g style = "stroke-linecap:round;" > 
<path d="M38415 38620 L38415 38620" /> 
</g></g>
<g style="fill:#C0C0C0; fill-opacity:0.0; 
  stroke:#0000C0; stroke-linecap:round; stroke-linejoin:round; stroke-opacity:1.0; stroke-opacity:1.0; stroke-width:0" 
   transform="translate(0 0) scale(1 1)">
<path d="M38478 42670 L38482 42670" /> 
<path d="M38480 42668 L38480 42672" /> 
</g>
<g style="fill:#C0C0C0; fill-opacity:0.0; 
  stroke:#C0C0C0; stroke-linecap:round; stroke-linejoin:round; stroke-opacity:1.0; stroke-opacity:1.0; stroke-width:35" 
   transform="translate(0 0) scale(1 1)">
<path d="M38038 42575 L38038 42704" /> 
<path d="M38038 42704 L38046 42720" /> 
<path d="M38046 42720 L38053 42727" /> 
<path d="M38053 42727 L38069 42735" /> 
<path d="M38069 42735 L38099 42735" /> 
<path d="M38099 42735 L38114 42727" /> 
<path d="M38114 42727 L38122 42720" /> 
<path d="M38122 42720 L38130 42704" /> 
<path d="M38130 42704 L38130 42575" /> 
<g style = "stroke-linecap:round;" > 
<path d="M38130 42575 L38130 42575" /> 
</g><path d="M38198 42727 L38221 42735" /> 
<path d="M38221 42735 L38259 42735" /> 
<path d="M38259 42735 L38275 42727" /> 
<path d="M38275 42727 L38282 42720" /> 
<path d="M38282 42720 L38290 42704" /> 
<path d="M38290 42704 L38290 42689" /> 
<path d="M38290 42689 L38282 42674" /> 
<path d="M38282 42674 L38275 42666" /> 
<path d="M38275 42666 L38259 42659" /> 
<path d="M38259 42659 L38229 42651" /> 
<path d="M38229 42651 L38214 42643" /> 
<path d="M38214 42643 L38206 42636" /> 
<path d="M38206 42636 L38198 42620" /> 
<path d="M38198 42620 L38198 42605" /> 
<path d="M38198 42605 L38206 42590" /> 
<path d="M38206 42590 L38214 42582" /> 
<path d="M38214 42582 L38229 42575" /> 
<path d="M38229 42575 L38267 42575" /> 
<path d="M38267 42575 L38290 42582" /> 
<g style = "stroke-linecap:round;" > 
<path d="M38290 42582 L38290 42582" /> 
</g><path d="M38411 42651 L38434 42659" /> 
<path d="M38434 42659 L38442 42666" /> 
<path d="M38442 42666 L38450 42681" /> 
<path d="M38450 42681 L38450 42704" /> 
<path d="M38450 42704 L38442 42720" /> 
<path d="M38442 42720 L38434 42727" /> 
<path d="M38434 42727 L38419 42735" /> 
<path d="M38419 42735 L38358 42735" /> 
<path d="M38358 42735 L38358 42575" /> 
<path d="M38358 42575 L38411 42575" /> 
<path d="M38411 42575 L38427 42582" /> 
<path d="M38427 42582 L38434 42590" /> 
<path d="M38434 42590 L38442 42605" /> 
<path d="M38442 42605 L38442 42620" /> 
<path d="M38442 42620 L38434 42636" /> 
<path d="M38434 42636 L38427 42643" /> 
<path d="M38427 42643 L38411 42651" /> 
<path d="M38411 42651 L38358 42651" /> 
<g style = "stroke-linecap:round;" > 
<path d="M38358 42651 L38358 42651" /> 
</g><path d="M38518 42735 L38518 42575" /> 
<path d="M38518 42575 L38579 42575" /> 
<path d="M38579 42575 L38594 42582" /> 
<path d="M38594 42582 L38602 42590" /> 
<path d="M38602 42590 L38610 42605" /> 
<path d="M38610 42605 L38610 42628" /> 
<path d="M38610 42628 L38602 42643" /> 
<path d="M38602 42643 L38594 42651" /> 
<path d="M38594 42651 L38579 42659" /> 
<path d="M38579 42659 L38518 42659" /> 
<g style = "stroke-linecap:round;" > 
<path d="M38518 42659 L38518 42659" /> 
</g><path d="M38770 42720 L38762 42727" /> 
<path d="M38762 42727 L38739 42735" /> 
<path d="M38739 42735 L38724 42735" /> 
<path d="M38724 42735 L38701 42727" /> 
<path d="M38701 42727 L38686 42712" /> 
<path d="M38686 42712 L38678 42697" /> 
<path d="M38678 42697 L38670 42666" /> 
<path d="M38670 42666 L38670 42643" /> 
<path d="M38670 42643 L38678 42613" /> 
<path d="M38678 42613 L38686 42598" /> 
<path d="M38686 42598 L38701 42582" /> 
<path d="M38701 42582 L38724 42575" /> 
<path d="M38724 42575 L38739 42575" /> 
<path d="M38739 42575 L38762 42582" /> 
<path d="M38762 42582 L38770 42590" /> 
<g style = "stroke-linecap:round;" > 
<path d="M38770 42590 L38770 42590" /> 
</g><path d="M38891 42651 L38914 42659" /> 
<path d="M38914 42659 L38922 42666" /> 
<path d="M38922 42666 L38930 42681" /> 
<path d="M38930 42681 L38930 42704" /> 
<path d="M38930 42704 L38922 42720" /> 
<path d="M38922 42720 L38914 42727" /> 
<path d="M38914 42727 L38899 42735" /> 
<path d="M38899 42735 L38838 42735" /> 
<path d="M38838 42735 L38838 42575" /> 
<path d="M38838 42575 L38891 42575" /> 
<path d="M38891 42575 L38907 42582" /> 
<path d="M38907 42582 L38914 42590" /> 
<path d="M38914 42590 L38922 42605" /> 
<path d="M38922 42605 L38922 42620" /> 
<path d="M38922 42620 L38914 42636" /> 
<path d="M38914 42636 L38907 42643" /> 
<path d="M38907 42643 L38891 42651" /> 
<path d="M38891 42651 L38838 42651" /> 
<g style = "stroke-linecap:round;" > 
<path d="M38838 42651 L38838 42651" /> 
</g></g>
<g style="fill:#C0C0C0; fill-opacity:0.0; 
  stroke:#00A0A0; stroke-linecap:round; stroke-linejoin:round; stroke-opacity:1.0; stroke-opacity:1.0; stroke-width:50" 
   transform="translate(0 0) scale(1 1)">
<path d="M36532 38388 L39956 38388" /> 
<path d="M39956 38388 L39956 43112" /> 
<path d="M39956 43112 L36532 43112" /> 
<path d="M36532 43112 L36532 38388" /> 
</g>
<g style="fill:#808000; fill-opacity:1.0; 
  stroke:#808000; stroke-linecap:round; stroke-linejoin:round; stroke-opacity:1.0; stroke-opacity:1.0; stroke-width:0" 
   transform="translate(0 0) scale(1 1)">
<ellipse cx="46500" cy="43250" rx="370" ry="370"  /> 
</g>
<g style="fill:#FFFFFF; fill-opacity:1.0; 
  stroke:#808000; stroke-linecap:round; stroke-linejoin:round; stroke-opacity:1.0; stroke-opacity:1.0; stroke-width:0" 
   transform="translate(0 0) scale(1 1)">
<ellipse cx="46500" cy="43250" rx="200" ry="200"  /> 
</g>
<g style="fill:#808000; fill-opacity:1.0; 
  stroke:#808000; stroke-linecap:round; stroke-linejoin:round; stroke-opacity:1.0; stroke-opacity:1.0; stroke-width:0" 
   transform="translate(0 0) scale(1 1)">
<ellipse cx="46500" cy="42250" rx="370" ry="370"  /> 
</g>
<g style="fill:#FFFFFF; fill-opacity:1.0; 
  stroke:#808000; stroke-linecap:round; stroke-linejoin:round; stroke-opacity:1.0; stroke-opacity:1.0; stroke-width:0" 
   transform="translate(0 0) scale(1 1)">
<ellipse cx="46500" cy="42250" rx="200" ry="200"  /> 
</g>
<g style="fill:#808000; fill-opacity:1.0; 
  stroke:#808000; stroke-linecap:round; stroke-linejoin:round; stroke-opacity:1.0; stroke-opacity:1.0; stroke-width:0" 
   transform="translate(0 0) scale(1 1)">
<ellipse cx="46500" cy="41250" rx="370" ry="370"  /> 
</g>
<g style="fill:#FFFFFF; fill-opacity:1.0; 
  stroke:#808000; stroke-linecap:round; stroke-linejoin:round; stroke-opacity:1.0; stroke-opacity:1.0; stroke-width:0" 
   transform="translate(0 0) scale(1 1)">
<ellipse cx="46500" cy="41250" rx="200" ry="200"  /> 
</g>
<g style="fill:#808000; fill-opacity:1.0; 
  stroke:#808000; stroke-linecap:round; stroke-linejoin:round; stroke-opacity:1.0; stroke-opacity:1.0; stroke-width:0" 
   transform="translate(0 0) scale(1 1)">
<ellipse cx="46500" cy="40250" rx="370" ry="370"  /> 
</g>
<g style="fill:#FFFFFF; fill-opacity:1.0; 
  stroke:#808000; stroke-linecap:round; stroke-linejoin:round; stroke-opacity:1.0; stroke-opacity:1.0; stroke-width:0" 
   transform="translate(0 0) scale(1 1)">
<ellipse cx="46500" cy="40250" rx="200" ry="200"  /> 
</g>
<g style="fill:#808000; fill-opacity:1.0; 
  stroke:#808000; stroke-linecap:round; stroke-linejoin:round; stroke-opacity:1.0; stroke-opacity:1.0; stroke-width:0" 
   transform="translate(0 0) scale(1 1)">
<ellipse cx="46500" cy="39250" rx="370" ry="370"  /> 
</g>
<g style="fill:#FFFFFF; fill-opacity:1.0; 
  stroke:#808000; stroke-linecap:round; stroke-linejoin:round; stroke-opacity:1.0; stroke-opacity:1.0; stroke-width:0" 
   transform="translate(0 0) scale(1 1)">
<ellipse cx="46500" cy="39250" rx="200" ry="200"  /> 
</g>
<g style="fill:#808000; fill-opacity:1.0; 
  stroke:#808000; stroke-linecap:round; stroke-linejoin:round; stroke-opacity:1.0; stroke-opacity:1.0; stroke-width:0" 
   transform="translate(0 0) scale(1 1)">
<ellipse cx="46500" cy="38250" rx="370" ry="370"  /> 
</g>
<g style="fill:#FFFFFF; fill-opacity:1.0; 
  stroke:#808000; stroke-linecap:round; stroke-linejoin:round; stroke-opacity:1.0; stroke-opacity:1.0; stroke-width:0" 
   transform="translate(0 0) scale(1 1)">
<ellipse cx="46500" cy="38250" rx="200" ry="200"  /> 
</g>
<g style="fill:#FFFFFF; fill-opacity:1.0; 
  stroke:#0000C0; stroke-linecap:round; stroke-linejoin:round; stroke-opacity:1.0; stroke-opacity:1.0; stroke-width:0" 
   transform="translate(0 0) scale(1 1)">
<path d="M45528 42530 L45532 42530" /> 
<path d="M45530 42528 L45530 42532" /> 
</g>
<g style="fill:#C0C0C0; fill-opacity:0.0; 
  stroke:#C0C0C0; stroke-linecap:round; stroke-linejoin:round; stroke-opacity:1.0; stroke-opacity:1.0; stroke-width:35" 
   transform="translate(0 0) scale(1 1)">
<path d="M45732 42899 L45232 42899" /> 
<path d="M45232 42899 L45232 42708" /> 
<path d="M45232 42708 L45256 42661" /> 
<path d="M45256 42661 L45280 42637" /> 
<path d="M45280 42637 L45328 42613" /> 
<path d="M45328 42613 L45399 42613" /> 
<path d="M45399 42613 L45447 42637" /> 
<path d="M45447 42637 L45470 42661" /> 
<path d="M45470 42661 L45494 42708" /> 
<path d="M45494 42708 L45494 42899" /> 
<g style = "stroke-linecap:round;" > 
<path d="M45494 42899 L45494 42899" /> 
</g><path d="M45732 42137 L45732 42423" /> 
<g style = "stroke-linecap:round;" > 
<path d="M45732 42423 L45732 42423" /> 
</g><path d="M45732 42280 L45232 42280" /> 
<path d="M45232 42280 L45304 42328" /> 
<path d="M45304 42328 L45351 42375" /> 
<path d="M45351 42375 L45375 42423" /> 
<g style = "stroke-linecap:round;" > 
<path d="M45375 42423 L45375 42423" /> 
</g></g>
<g style="fill:#C0C0C0; fill-opacity:0.0; 
  stroke:#0000C0; stroke-linecap:round; stroke-linejoin:round; stroke-opacity:1.0; stroke-opacity:1.0; stroke-width:0" 
   transform="translate(0 0) scale(1 1)">
<path d="M47498 42250 L47502 42250" /> 
<path d="M47500 42248 L47500 42252" /> 
</g>
<g style="fill:#C0C0C0; fill-opacity:0.0; 
  stroke:#C0C0C0; stroke-linecap:round; stroke-linejoin:round; stroke-opacity:1.0; stroke-opacity:1.0; stroke-width:35" 
   transform="translate(0 0) scale(1 1)">
<path d="M47655 43309 L47679 43333" /> 
<path d="M47679 43333 L47702 43404" /> 
<path d="M47702 43404 L47702 43452" /> 
<path d="M47702 43452 L47679 43524" /> 
<path d="M47679 43524 L47631 43571" /> 
<path d="M47631 43571 L47583 43595" /> 
<path d="M47583 43595 L47488 43619" /> 
<path d="M47488 43619 L47417 43619" /> 
<path d="M47417 43619 L47321 43595" /> 
<path d="M47321 43595 L47274 43571" /> 
<path d="M47274 43571 L47226 43524" /> 
<path d="M47226 43524 L47202 43452" /> 
<path d="M47202 43452 L47202 43404" /> 
<path d="M47202 43404 L47226 43333" /> 
<path d="M47226 43333 L47250 43309" /> 
<g style = "stroke-linecap:round;" > 
<path d="M47250 43309 L47250 43309" /> 
</g><path d="M47202 43000 L47202 42904" /> 
<path d="M47202 42904 L47226 42857" /> 
<path d="M47226 42857 L47274 42809" /> 
<path d="M47274 42809 L47369 42785" /> 
<path d="M47369 42785 L47536 42785" /> 
<path d="M47536 42785 L47631 42809" /> 
<path d="M47631 42809 L47679 42857" /> 
<path d="M47679 42857 L47702 42904" /> 
<path d="M47702 42904 L47702 43000" /> 
<path d="M47702 43000 L47679 43047" /> 
<path d="M47679 43047 L47631 43095" /> 
<path d="M47631 43095 L47536 43119" /> 
<path d="M47536 43119 L47369 43119" /> 
<path d="M47369 43119 L47274 43095" /> 
<path d="M47274 43095 L47226 43047" /> 
<path d="M47226 43047 L47202 43000" /> 
<path d="M47702 42571 L47202 42571" /> 
<path d="M47202 42571 L47702 42285" /> 
<path d="M47702 42285 L47202 42285" /> 
<g style = "stroke-linecap:round;" > 
<path d="M47202 42285 L47202 42285" /> 
</g><path d="M47702 42047 L47202 42047" /> 
<path d="M47202 42047 L47702 41761" /> 
<path d="M47702 41761 L47202 41761" /> 
<g style = "stroke-linecap:round;" > 
<path d="M47202 41761 L47202 41761" /> 
</g><path d="M47750 41642 L47750 41261" /> 
<g style = "stroke-linecap:round;" > 
<path d="M47750 41261 L47750 41261" /> 
</g><path d="M47202 40928 L47202 41023" /> 
<path d="M47202 41023 L47226 41071" /> 
<path d="M47226 41071 L47250 41094" /> 
<path d="M47250 41094 L47321 41142" /> 
<path d="M47321 41142 L47417 41166" /> 
<path d="M47417 41166 L47607 41166" /> 
<path d="M47607 41166 L47655 41142" /> 
<path d="M47655 41142 L47679 41118" /> 
<path d="M47679 41118 L47702 41071" /> 
<path d="M47702 41071 L47702 40975" /> 
<path d="M47702 40975 L47679 40928" /> 
<path d="M47679 40928 L47655 40904" /> 
<path d="M47655 40904 L47607 40880" /> 
<path d="M47607 40880 L47488 40880" /> 
<path d="M47488 40880 L47440 40904" /> 
<path d="M47440 40904 L47417 40928" /> 
<path d="M47417 40928 L47393 40975" /> 
<path d="M47393 40975 L47393 41071" /> 
<path d="M47393 41071 L47417 41118" /> 
<path d="M47417 41118 L47440 41142" /> 
<path d="M47440 41142 L47488 41166" /> 
<g style = "stroke-linecap:round;" > 
<path d="M47488 41166 L47488 41166" /> 
</g></g>
<g style="fill:#C0C0C0; fill-opacity:0.0; 
  stroke:#00A0A0; stroke-linecap:round; stroke-linejoin:round; stroke-opacity:1.0; stroke-opacity:1.0; stroke-width:26" 
   transform="translate(0 0) scale(1 1)">
<path d="M46600 38350 L46600 38150" /> 
<path d="M46600 38150 L46400 38150" /> 
<path d="M46400 38350 L46400 38150" /> 
<path d="M46600 38350 L46400 38350" /> 
<path d="M46600 39350 L46600 39150" /> 
<path d="M46600 39150 L46400 39150" /> 
<path d="M46400 39350 L46400 39150" /> 
<path d="M46600 39350 L46400 39350" /> 
<path d="M46600 40350 L46600 40150" /> 
<path d="M46600 40150 L46400 40150" /> 
<path d="M46400 40350 L46400 40150" /> 
<path d="M46600 40350 L46400 40350" /> 
<path d="M46600 41350 L46600 41150" /> 
<path d="M46600 41150 L46400 41150" /> 
<path d="M46400 41350 L46400 41150" /> 
<path d="M46600 41350 L46400 41350" /> 
<path d="M46600 42350 L46600 42150" /> 
<path d="M46600 42150 L46400 42150" /> 
<path d="M46400 42350 L46400 42150" /> 
<path d="M46600 42350 L46400 42350" /> 
<path d="M46600 43350 L46600 43150" /> 
<path d="M46600 43150 L46400 43150" /> 
<path d="M46400 43350 L46400 43150" /> 
<path d="M46600 43350 L46400 43350" /> 
</g>
<g style="fill:#C0C0C0; fill-opacity:0.0; 
  stroke:#00A0A0; stroke-linecap:round; stroke-linejoin:round; stroke-opacity:1.0; stroke-opacity:1.0; stroke-width:80" 
   transform="translate(0 0) scale(1 1)">
<path d="M46250 38750 L46000 38500" /> 
<path d="M46000 38500 L46000 38000" /> 
<path d="M46000 38000 L46250 37750" /> 
<path d="M46750 37750 L47000 38000" /> 
<path d="M47000 38000 L47000 38500" /> 
<path d="M47000 38500 L46750 38750" /> 
<path d="M46000 40500 L46000 40000" /> 
<path d="M46000 40000 L46250 39750" /> 
<path d="M46750 39750 L47000 40000" /> 
<path d="M46250 39750 L46000 39500" /> 
<path d="M46000 39500 L46000 39000" /> 
<path d="M46000 39000 L46250 38750" /> 
<path d="M46750 38750 L47000 39000" /> 
<path d="M47000 39000 L47000 39500" /> 
<path d="M47000 39500 L46750 39750" /> 
<path d="M46250 41750 L46000 41500" /> 
<path d="M46000 41500 L46000 41000" /> 
<path d="M46000 41000 L46250 40750" /> 
<path d="M46750 40750 L47000 41000" /> 
<path d="M47000 41000 L47000 41500" /> 
<path d="M47000 41500 L46750 41750" /> 
<path d="M46000 40500 L46250 40750" /> 
<path d="M46750 40750 L47000 40500" /> 
<path d="M47000 40000 L47000 40500" /> 
<path d="M46000 43500 L46000 43000" /> 
<path d="M46000 43000 L46250 42750" /> 
<path d="M46750 42750 L47000 43000" /> 
<path d="M46250 42750 L46000 42500" /> 
<path d="M46000 42500 L46000 42000" /> 
<path d="M46000 42000 L46250 41750" /> 
<path d="M46750 41750 L47000 42000" /> 
<path d="M47000 42000 L47000 42500" /> 
<path d="M47000 42500 L46750 42750" /> 
<path d="M46250 43750 L46750 43750" /> 
<path d="M46000 43500 L46250 43750" /> 
<path d="M46750 43750 L47000 43500" /> 
<path d="M47000 43000 L47000 43500" /> 
<path d="M46250 37750 L46750 37750" /> 
</g>
<g style="fill:#808000; fill-opacity:1.0; 
  stroke:#808000; stroke-linecap:round; stroke-linejoin:round; stroke-opacity:1.0; stroke-opacity:1.0; stroke-width:0" 
   transform="translate(0 0) scale(1 1)">
<ellipse cx="42750" cy="43000" rx="370" ry="370"  /> 
</g>
<g style="fill:#FFFFFF; fill-opacity:1.0; 
  stroke:#808000; stroke-linecap:round; stroke-linejoin:round; stroke-opacity:1.0; stroke-opacity:1.0; stroke-width:0" 
   transform="translate(0 0) scale(1 1)">
<ellipse cx="42750" cy="43000" rx="200" ry="200"  /> 
</g>
<g style="fill:#808000; fill-opacity:1.0; 
  stroke:#808000; stroke-linecap:round; stroke-linejoin:round; stroke-opacity:1.0; stroke-opacity:1.0; stroke-width:0" 
   transform="translate(0 0) scale(1 1)">
<ellipse cx="43750" cy="43000" rx="370" ry="370"  /> 
</g>
<g style="fill:#FFFFFF; fill-opacity:1.0; 
  stroke:#808000; stroke-linecap:round; stroke-linejoin:round; stroke-opacity:1.0; stroke-opacity:1.0; stroke-width:0" 
   transform="translate(0 0) scale(1 1)">
<ellipse cx="43750" cy="43000" rx="200" ry="200"  /> 
</g>
<g style="fill:#FFFFFF; fill-opacity:1.0; 
  stroke:#0000C0; stroke-linecap:round; stroke-linejoin:round; stroke-opacity:1.0; stroke-opacity:1.0; stroke-width:0" 
   transform="translate(0 0) scale(1 1)">
<path d="M43468 42030 L43472 42030" /> 
<path d="M43470 42028 L43470 42032" /> 
</g>
<g style="fill:#C0C0C0; fill-opacity:0.0; 
  stroke:#C0C0C0; stroke-linecap:round; stroke-linejoin:round; stroke-opacity:1.0; stroke-opacity:1.0; stroke-width:35" 
   transform="translate(0 0) scale(1 1)">
<path d="M43101 42232 L43101 41732" /> 
<path d="M43101 41732 L43292 41732" /> 
<path d="M43292 41732 L43339 41756" /> 
<path d="M43339 41756 L43363 41780" /> 
<path d="M43363 41780 L43387 41828" /> 
<path d="M43387 41828 L43387 41899" /> 
<path d="M43387 41899 L43363 41947" /> 
<path d="M43363 41947 L43339 41970" /> 
<path d="M43339 41970 L43292 41994" /> 
<path d="M43292 41994 L43101 41994" /> 
<g style = "stroke-linecap:round;" > 
<path d="M43101 41994 L43101 41994" /> 
</g><path d="M43577 41780 L43601 41756" /> 
<path d="M43601 41756 L43649 41732" /> 
<path d="M43649 41732 L43768 41732" /> 
<path d="M43768 41732 L43815 41756" /> 
<path d="M43815 41756 L43839 41780" /> 
<path d="M43839 41780 L43863 41828" /> 
<path d="M43863 41828 L43863 41875" /> 
<path d="M43863 41875 L43839 41947" /> 
<path d="M43839 41947 L43553 42232" /> 
<path d="M43553 42232 L43863 42232" /> 
<g style = "stroke-linecap:round;" > 
<path d="M43863 42232 L43863 42232" /> 
</g></g>
<g style="fill:#C0C0C0; fill-opacity:0.0; 
  stroke:#0000C0; stroke-linecap:round; stroke-linejoin:round; stroke-opacity:1.0; stroke-opacity:1.0; stroke-width:0" 
   transform="translate(0 0) scale(1 1)">
<path d="M43748 44000 L43752 44000" /> 
<path d="M43750 43998 L43750 44002" /> 
</g>
<g style="fill:#C0C0C0; fill-opacity:0.0; 
  stroke:#C0C0C0; stroke-linecap:round; stroke-linejoin:round; stroke-opacity:1.0; stroke-opacity:1.0; stroke-width:35" 
   transform="translate(0 0) scale(1 1)">
<path d="M42691 44155 L42667 44179" /> 
<path d="M42667 44179 L42596 44202" /> 
<path d="M42596 44202 L42548 44202" /> 
<path d="M42548 44202 L42476 44179" /> 
<path d="M42476 44179 L42429 44131" /> 
<path d="M42429 44131 L42405 44083" /> 
<path d="M42405 44083 L42381 43988" /> 
<path d="M42381 43988 L42381 43917" /> 
<path d="M42381 43917 L42405 43821" /> 
<path d="M42405 43821 L42429 43774" /> 
<path d="M42429 43774 L42476 43726" /> 
<path d="M42476 43726 L42548 43702" /> 
<path d="M42548 43702 L42596 43702" /> 
<path d="M42596 43702 L42667 43726" /> 
<path d="M42667 43726 L42691 43750" /> 
<g style = "stroke-linecap:round;" > 
<path d="M42691 43750 L42691 43750" /> 
</g><path d="M43000 43702 L43096 43702" /> 
<path d="M43096 43702 L43143 43726" /> 
<path d="M43143 43726 L43191 43774" /> 
<path d="M43191 43774 L43215 43869" /> 
<path d="M43215 43869 L43215 44036" /> 
<path d="M43215 44036 L43191 44131" /> 
<path d="M43191 44131 L43143 44179" /> 
<path d="M43143 44179 L43096 44202" /> 
<path d="M43096 44202 L43000 44202" /> 
<path d="M43000 44202 L42953 44179" /> 
<path d="M42953 44179 L42905 44131" /> 
<path d="M42905 44131 L42881 44036" /> 
<path d="M42881 44036 L42881 43869" /> 
<path d="M42881 43869 L42905 43774" /> 
<path d="M42905 43774 L42953 43726" /> 
<path d="M42953 43726 L43000 43702" /> 
<path d="M43429 44202 L43429 43702" /> 
<path d="M43429 43702 L43715 44202" /> 
<path d="M43715 44202 L43715 43702" /> 
<g style = "stroke-linecap:round;" > 
<path d="M43715 43702 L43715 43702" /> 
</g><path d="M43953 44202 L43953 43702" /> 
<path d="M43953 43702 L44239 44202" /> 
<path d="M44239 44202 L44239 43702" /> 
<g style = "stroke-linecap:round;" > 
<path d="M44239 43702 L44239 43702" /> 
</g><path d="M44358 44250 L44739 44250" /> 
<g style = "stroke-linecap:round;" > 
<path d="M44739 44250 L44739 44250" /> 
</g><path d="M44834 43750 L44858 43726" /> 
<path d="M44858 43726 L44906 43702" /> 
<path d="M44906 43702 L45025 43702" /> 
<path d="M45025 43702 L45072 43726" /> 
<path d="M45072 43726 L45096 43750" /> 
<path d="M45096 43750 L45120 43798" /> 
<path d="M45120 43798 L45120 43845" /> 
<path d="M45120 43845 L45096 43917" /> 
<path d="M45096 43917 L44810 44202" /> 
<path d="M44810 44202 L45120 44202" /> 
<g style = "stroke-linecap:round;" > 
<path d="M45120 44202 L45120 44202" /> 
</g></g>
<g style="fill:#C0C0C0; fill-opacity:0.0; 
  stroke:#00A0A0; stroke-linecap:round; stroke-linejoin:round; stroke-opacity:1.0; stroke-opacity:1.0; stroke-width:26" 
   transform="translate(0 0) scale(1 1)">
<path d="M43650 43100 L43850 43100" /> 
<path d="M43850 43100 L43850 42900" /> 
<path d="M43650 42900 L43850 42900" /> 
<path d="M43650 43100 L43650 42900" /> 
<path d="M42650 43100 L42850 43100" /> 
<path d="M42850 43100 L42850 42900" /> 
<path d="M42650 42900 L42850 42900" /> 
<path d="M42650 43100 L42650 42900" /> 
</g>
<g style="fill:#C0C0C0; fill-opacity:0.0; 
  stroke:#00A0A0; stroke-linecap:round; stroke-linejoin:round; stroke-opacity:1.0; stroke-opacity:1.0; stroke-width:80" 
   transform="translate(0 0) scale(1 1)">
<path d="M42500 42500 L43000 42500" /> 
<path d="M43000 42500 L43250 42750" /> 
<path d="M43250 43250 L43000 43500" /> 
<path d="M43250 42750 L43500 42500" /> 
<path d="M43500 42500 L44000 42500" /> 
<path d="M44000 42500 L44250 42750" /> 
<path d="M44250 43250 L44000 43500" /> 
<path d="M44000 43500 L43500 43500" /> 
<path d="M43500 43500 L43250 43250" /> 
<path d="M42250 42750 L42250 43250" /> 
<path d="M42500 42500 L42250 42750" /> 
<path d="M42250 43250 L42500 43500" /> 
<path d="M43000 43500 L42500 43500" /> 
<path d="M44250 42750 L44250 43250" /> 
</g>
<g style="fill:#808000; fill-opacity:1.0; 
  stroke:#808000; stroke-linecap:round; stroke-linejoin:round; stroke-opacity:1.0; stroke-opacity:1.0; stroke-width:0" 
   transform="translate(0 0) scale(1 1)">
<ellipse cx="41500" cy="38250" rx="275" ry="275"  /> 
</g>
<g style="fill:#FFFFFF; fill-opacity:1.0; 
  stroke:#808000; stroke-linecap:round; stroke-linejoin:round; stroke-opacity:1.0; stroke-opacity:1.0; stroke-width:0" 
   transform="translate(0 0) scale(1 1)">
<ellipse cx="41500" cy="38250" rx="160" ry="160"  /> 
</g>
<g style="fill:#808000; fill-opacity:1.0; 
  stroke:#808000; stroke-linecap:round; stroke-linejoin:round; stroke-opacity:1.0; stroke-opacity:1.0; stroke-width:0" 
   transform="translate(0 0) scale(1 1)">
<ellipse cx="40500" cy="38250" rx="275" ry="275"  /> 
</g>
<g style="fill:#FFFFFF; fill-opacity:1.0; 
  stroke:#808000; stroke-linecap:round; stroke-linejoin:round; stroke-opacity:1.0; stroke-opacity:1.0; stroke-width:0" 
   transform="translate(0 0) scale(1 1)">
<ellipse cx="40500" cy="38250" rx="160" ry="160"  /> 
</g>
<g style="fill:#FFFFFF; fill-opacity:1.0; 
  stroke:#0000C0; stroke-linecap:round; stroke-linejoin:round; stroke-opacity:1.0; stroke-opacity:1.0; stroke-width:0" 
   transform="translate(0 0) scale(1 1)">
<path d="M41398 37250 L41402 37250" /> 
<path d="M41400 37248 L41400 37252" /> 
</g>
<g style="fill:#C0C0C0; fill-opacity:0.0; 
  stroke:#C0C0C0; stroke-linecap:round; stroke-linejoin:round; stroke-opacity:1.0; stroke-opacity:1.0; stroke-width:80" 
   transform="translate(0 0) scale(1 1)">
<path d="M41031 37473 L41031 36923" /> 
<path d="M41031 36923 L41150 36923" /> 
<path d="M41150 36923 L41222 36949" /> 
<path d="M41222 36949 L41269 37001" /> 
<path d="M41269 37001 L41293 37054" /> 
<path d="M41293 37054 L41317 37158" /> 
<path d="M41317 37158 L41317 37237" /> 
<path d="M41317 37237 L41293 37342" /> 
<path d="M41293 37342 L41269 37394" /> 
<path d="M41269 37394 L41222 37446" /> 
<path d="M41222 37446 L41150 37473" /> 
<path d="M41150 37473 L41031 37473" /> 
<path d="M41793 37473 L41507 37473" /> 
<g style = "stroke-linecap:round;" > 
<path d="M41507 37473 L41507 37473" /> 
</g><path d="M41650 37473 L41650 36923" /> 
<path d="M41650 36923 L41602 37001" /> 
<path d="M41602 37001 L41555 37054" /> 
<path d="M41555 37054 L41507 37080" /> 
<g style = "stroke-linecap:round;" > 
<path d="M41507 37080 L41507 37080" /> 
</g></g>
<g style="fill:#C0C0C0; fill-opacity:0.0; 
  stroke:#00A0A0; stroke-linecap:round; stroke-linejoin:round; stroke-opacity:1.0; stroke-opacity:1.0; stroke-width:150" 
   transform="translate(0 0) scale(1 1)">
<path d="M41500 38250 L40500 38250" /> 
</g>
<g style="fill:#00A0A0; fill-opacity:0.0; 
  stroke:#00A0A0; stroke-linecap:round; stroke-linejoin:round; stroke-opacity:1.0; stroke-opacity:1.0; stroke-width:150" 
   transform="translate(0 0) scale(1 1)">
<ellipse cx="41500" cy="38250" rx="559" ry="559"  /> 
</g>
<g style="fill:#808000; fill-opacity:1.0; 
  stroke:#808000; stroke-linecap:round; stroke-linejoin:round; stroke-opacity:1.0; stroke-opacity:1.0; stroke-width:0" 
   transform="translate(0 0) scale(1 1)">
<ellipse cx="41500" cy="39500" rx="275" ry="275"  /> 
</g>
<g style="fill:#FFFFFF; fill-opacity:1.0; 
  stroke:#808000; stroke-linecap:round; stroke-linejoin:round; stroke-opacity:1.0; stroke-opacity:1.0; stroke-width:0" 
   transform="translate(0 0) scale(1 1)">
<ellipse cx="41500" cy="39500" rx="160" ry="160"  /> 
</g>
<g style="fill:#808000; fill-opacity:1.0; 
  stroke:#808000; stroke-linecap:round; stroke-linejoin:round; stroke-opacity:1.0; stroke-opacity:1.0; stroke-width:0" 
   transform="translate(0 0) scale(1 1)">
<ellipse cx="40500" cy="39500" rx="275" ry="275"  /> 
</g>
<g style="fill:#FFFFFF; fill-opacity:1.0; 
  stroke:#808000; stroke-linecap:round; stroke-linejoin:round; stroke-opacity:1.0; stroke-opacity:1.0; stroke-width:0" 
   transform="translate(0 0) scale(1 1)">
<ellipse cx="40500" cy="39500" rx="160" ry="160"  /> 
</g>
<g style="fill:#FFFFFF; fill-opacity:1.0; 
  stroke:#0000C0; stroke-linecap:round; stroke-linejoin:round; stroke-opacity:1.0; stroke-opacity:1.0; stroke-width:0" 
   transform="translate(0 0) scale(1 1)">
<path d="M41398 38500 L41402 38500" /> 
<path d="M41400 38498 L41400 38502" /> 
</g>
<g style="fill:#C0C0C0; fill-opacity:0.0; 
  stroke:#C0C0C0; stroke-linecap:round; stroke-linejoin:round; stroke-opacity:1.0; stroke-opacity:1.0; stroke-width:80" 
   transform="translate(0 0) scale(1 1)">
<path d="M41031 38723 L41031 38173" /> 
<path d="M41031 38173 L41150 38173" /> 
<path d="M41150 38173 L41222 38199" /> 
<path d="M41222 38199 L41269 38251" /> 
<path d="M41269 38251 L41293 38304" /> 
<path d="M41293 38304 L41317 38408" /> 
<path d="M41317 38408 L41317 38487" /> 
<path d="M41317 38487 L41293 38592" /> 
<path d="M41293 38592 L41269 38644" /> 
<path d="M41269 38644 L41222 38696" /> 
<path d="M41222 38696 L41150 38723" /> 
<path d="M41150 38723 L41031 38723" /> 
<path d="M41507 38225 L41531 38199" /> 
<path d="M41531 38199 L41579 38173" /> 
<path d="M41579 38173 L41698 38173" /> 
<path d="M41698 38173 L41745 38199" /> 
<path d="M41745 38199 L41769 38225" /> 
<path d="M41769 38225 L41793 38277" /> 
<path d="M41793 38277 L41793 38330" /> 
<path d="M41793 38330 L41769 38408" /> 
<path d="M41769 38408 L41483 38723" /> 
<path d="M41483 38723 L41793 38723" /> 
<g style = "stroke-linecap:round;" > 
<path d="M41793 38723 L41793 38723" /> 
</g></g>
<g style="fill:#C0C0C0; fill-opacity:0.0; 
  stroke:#00A0A0; stroke-linecap:round; stroke-linejoin:round; stroke-opacity:1.0; stroke-opacity:1.0; stroke-width:150" 
   transform="translate(0 0) scale(1 1)">
<path d="M41500 39500 L40500 39500" /> 
</g>
<g style="fill:#00A0A0; fill-opacity:0.0; 
  stroke:#00A0A0; stroke-linecap:round; stroke-linejoin:round; stroke-opacity:1.0; stroke-opacity:1.0; stroke-width:150" 
   transform="translate(0 0) scale(1 1)">
<ellipse cx="41500" cy="39500" rx="559" ry="559"  /> 
</g>
<g style="fill:#808000; fill-opacity:1.0; 
  stroke:#808000; stroke-linecap:round; stroke-linejoin:round; stroke-opacity:1.0; stroke-opacity:1.0; stroke-width:0" 
   transform="translate(0 0) scale(1 1)">
<ellipse cx="40750" cy="43000" rx="275" ry="275"  /> 
</g>
<g style="fill:#FFFFFF; fill-opacity:1.0; 
  stroke:#808000; stroke-linecap:round; stroke-linejoin:round; stroke-opacity:1.0; stroke-opacity:1.0; stroke-width:0" 
   transform="translate(0 0) scale(1 1)">
<ellipse cx="40750" cy="43000" rx="160" ry="160"  /> 
</g>
<g style="fill:#808000; fill-opacity:1.0; 
  stroke:#808000; stroke-linecap:round; stroke-linejoin:round; stroke-opacity:1.0; stroke-opacity:1.0; stroke-width:0" 
   transform="translate(0 0) scale(1 1)">
<ellipse cx="41750" cy="43000" rx="275" ry="275"  /> 
</g>
<g style="fill:#FFFFFF; fill-opacity:1.0; 
  stroke:#808000; stroke-linecap:round; stroke-linejoin:round; stroke-opacity:1.0; stroke-opacity:1.0; stroke-width:0" 
   transform="translate(0 0) scale(1 1)">
<ellipse cx="41750" cy="43000" rx="160" ry="160"  /> 
</g>
<g style="fill:#FFFFFF; fill-opacity:1.0; 
  stroke:#0000C0; stroke-linecap:round; stroke-linejoin:round; stroke-opacity:1.0; stroke-opacity:1.0; stroke-width:0" 
   transform="translate(0 0) scale(1 1)">
<path d="M40848 44000 L40852 44000" /> 
<path d="M40850 43998 L40850 44002" /> 
</g>
<g style="fill:#C0C0C0; fill-opacity:0.0; 
  stroke:#C0C0C0; stroke-linecap:round; stroke-linejoin:round; stroke-opacity:1.0; stroke-opacity:1.0; stroke-width:80" 
   transform="translate(0 0) scale(1 1)">
<path d="M40767 44223 L40600 43961" /> 
<g style = "stroke-linecap:round;" > 
<path d="M40600 43961 L40600 43961" /> 
</g><path d="M40481 44223 L40481 43673" /> 
<path d="M40481 43673 L40672 43673" /> 
<path d="M40672 43673 L40719 43699" /> 
<path d="M40719 43699 L40743 43725" /> 
<path d="M40743 43725 L40767 43777" /> 
<path d="M40767 43777 L40767 43856" /> 
<path d="M40767 43856 L40743 43908" /> 
<path d="M40743 43908 L40719 43935" /> 
<path d="M40719 43935 L40672 43961" /> 
<path d="M40672 43961 L40481 43961" /> 
<g style = "stroke-linecap:round;" > 
<path d="M40481 43961 L40481 43961" /> 
</g><path d="M41243 44223 L40957 44223" /> 
<g style = "stroke-linecap:round;" > 
<path d="M40957 44223 L40957 44223" /> 
</g><path d="M41100 44223 L41100 43673" /> 
<path d="M41100 43673 L41052 43751" /> 
<path d="M41052 43751 L41005 43804" /> 
<path d="M41005 43804 L40957 43830" /> 
<g style = "stroke-linecap:round;" > 
<path d="M40957 43830 L40957 43830" /> 
</g></g>
<g style="fill:#C0C0C0; fill-opacity:0.0; 
  stroke:#00A0A0; stroke-linecap:round; stroke-linejoin:round; stroke-opacity:1.0; stroke-opacity:1.0; stroke-width:150" 
   transform="translate(0 0) scale(1 1)">
<path d="M40750 43000 L41750 43000" /> 
</g>
<g style="fill:#00A0A0; fill-opacity:0.0; 
  stroke:#00A0A0; stroke-linecap:round; stroke-linejoin:round; stroke-opacity:1.0; stroke-opacity:1.0; stroke-width:150" 
   transform="translate(0 0) scale(1 1)">
<ellipse cx="40750" cy="43000" rx="559" ry="559"  /> 
</g>
<g style="fill:#808000; fill-opacity:1.0; 
  stroke:#808000; stroke-linecap:round; stroke-linejoin:round; stroke-opacity:1.0; stroke-opacity:1.0; stroke-width:0" 
   transform="translate(0 0) scale(1 1)">
<ellipse cx="40750" cy="41750" rx="275" ry="275"  /> 
</g>
<g style="fill:#FFFFFF; fill-opacity:1.0; 
  stroke:#808000; stroke-linecap:round; stroke-linejoin:round; stroke-opacity:1.0; stroke-opacity:1.0; stroke-width:0" 
   transform="translate(0 0) scale(1 1)">
<ellipse cx="40750" cy="41750" rx="160" ry="160"  /> 
</g>
<g style="fill:#808000; fill-opacity:1.0; 
  stroke:#808000; stroke-linecap:round; stroke-linejoin:round; stroke-opacity:1.0; stroke-opacity:1.0; stroke-width:0" 
   transform="translate(0 0) scale(1 1)">
<ellipse cx="41750" cy="41750" rx="275" ry="275"  /> 
</g>
<g style="fill:#FFFFFF; fill-opacity:1.0; 
  stroke:#808000; stroke-linecap:round; stroke-linejoin:round; stroke-opacity:1.0; stroke-opacity:1.0; stroke-width:0" 
   transform="translate(0 0) scale(1 1)">
<ellipse cx="41750" cy="41750" rx="160" ry="160"  /> 
</g>
<g style="fill:#FFFFFF; fill-opacity:1.0; 
  stroke:#0000C0; stroke-linecap:round; stroke-linejoin:round; stroke-opacity:1.0; stroke-opacity:1.0; stroke-width:0" 
   transform="translate(0 0) scale(1 1)">
<path d="M40848 42750 L40852 42750" /> 
<path d="M40850 42748 L40850 42752" /> 
</g>
<g style="fill:#C0C0C0; fill-opacity:0.0; 
  stroke:#C0C0C0; stroke-linecap:round; stroke-linejoin:round; stroke-opacity:1.0; stroke-opacity:1.0; stroke-width:80" 
   transform="translate(0 0) scale(1 1)">
<path d="M40767 42973 L40600 42711" /> 
<g style = "stroke-linecap:round;" > 
<path d="M40600 42711 L40600 42711" /> 
</g><path d="M40481 42973 L40481 42423" /> 
<path d="M40481 42423 L40672 42423" /> 
<path d="M40672 42423 L40719 42449" /> 
<path d="M40719 42449 L40743 42475" /> 
<path d="M40743 42475 L40767 42527" /> 
<path d="M40767 42527 L40767 42606" /> 
<path d="M40767 42606 L40743 42658" /> 
<path d="M40743 42658 L40719 42685" /> 
<path d="M40719 42685 L40672 42711" /> 
<path d="M40672 42711 L40481 42711" /> 
<g style = "stroke-linecap:round;" > 
<path d="M40481 42711 L40481 42711" /> 
</g><path d="M40957 42475 L40981 42449" /> 
<path d="M40981 42449 L41029 42423" /> 
<path d="M41029 42423 L41148 42423" /> 
<path d="M41148 42423 L41195 42449" /> 
<path d="M41195 42449 L41219 42475" /> 
<path d="M41219 42475 L41243 42527" /> 
<path d="M41243 42527 L41243 42580" /> 
<path d="M41243 42580 L41219 42658" /> 
<path d="M41219 42658 L40933 42973" /> 
<path d="M40933 42973 L41243 42973" /> 
<g style = "stroke-linecap:round;" > 
<path d="M41243 42973 L41243 42973" /> 
</g></g>
<g style="fill:#C0C0C0; fill-opacity:0.0; 
  stroke:#00A0A0; stroke-linecap:round; stroke-linejoin:round; stroke-opacity:1.0; stroke-opacity:1.0; stroke-width:150" 
   transform="translate(0 0) scale(1 1)">
<path d="M40750 41750 L41750 41750" /> 
</g>
<g style="fill:#00A0A0; fill-opacity:0.0; 
  stroke:#00A0A0; stroke-linecap:round; stroke-linejoin:round; stroke-opacity:1.0; stroke-opacity:1.0; stroke-width:150" 
   transform="translate(0 0) scale(1 1)">
<ellipse cx="40750" cy="41750" rx="559" ry="559"  /> 
</g>
<g style="fill:#808000; fill-opacity:1.0; 
  stroke:#808000; stroke-linecap:round; stroke-linejoin:round; stroke-opacity:1.0; stroke-opacity:1.0; stroke-width:0" 
   transform="translate(0 0) scale(1 1)">
<ellipse cx="40750" cy="40500" rx="275" ry="275"  /> 
</g>
<g style="fill:#FFFFFF; fill-opacity:1.0; 
  stroke:#808000; stroke-linecap:round; stroke-linejoin:round; stroke-opacity:1.0; stroke-opacity:1.0; stroke-width:0" 
   transform="translate(0 0) scale(1 1)">
<ellipse cx="40750" cy="40500" rx="160" ry="160"  /> 
</g>
<g style="fill:#808000; fill-opacity:1.0; 
  stroke:#808000; stroke-linecap:round; stroke-linejoin:round; stroke-opacity:1.0; stroke-opacity:1.0; stroke-width:0" 
   transform="translate(0 0) scale(1 1)">
<ellipse cx="41750" cy="40500" rx="275" ry="275"  /> 
</g>
<g style="fill:#FFFFFF; fill-opacity:1.0; 
  stroke:#808000; stroke-linecap:round; stroke-linejoin:round; stroke-opacity:1.0; stroke-opacity:1.0; stroke-width:0" 
   transform="translate(0 0) scale(1 1)">
<ellipse cx="41750" cy="40500" rx="160" ry="160"  /> 
</g>
<g style="fill:#FFFFFF; fill-opacity:1.0; 
  stroke:#0000C0; stroke-linecap:round; stroke-linejoin:round; stroke-opacity:1.0; stroke-opacity:1.0; stroke-width:0" 
   transform="translate(0 0) scale(1 1)">
<path d="M40848 41500 L40852 41500" /> 
<path d="M40850 41498 L40850 41502" /> 
</g>
<g style="fill:#C0C0C0; fill-opacity:0.0; 
  stroke:#C0C0C0; stroke-linecap:round; stroke-linejoin:round; stroke-opacity:1.0; stroke-opacity:1.0; stroke-width:80" 
   transform="translate(0 0) scale(1 1)">
<path d="M40767 41723 L40600 41461" /> 
<g style = "stroke-linecap:round;" > 
<path d="M40600 41461 L40600 41461" /> 
</g><path d="M40481 41723 L40481 41173" /> 
<path d="M40481 41173 L40672 41173" /> 
<path d="M40672 41173 L40719 41199" /> 
<path d="M40719 41199 L40743 41225" /> 
<path d="M40743 41225 L40767 41277" /> 
<path d="M40767 41277 L40767 41356" /> 
<path d="M40767 41356 L40743 41408" /> 
<path d="M40743 41408 L40719 41435" /> 
<path d="M40719 41435 L40672 41461" /> 
<path d="M40672 41461 L40481 41461" /> 
<g style = "stroke-linecap:round;" > 
<path d="M40481 41461 L40481 41461" /> 
</g><path d="M40933 41173 L41243 41173" /> 
<path d="M41243 41173 L41076 41382" /> 
<path d="M41076 41382 L41148 41382" /> 
<path d="M41148 41382 L41195 41408" /> 
<path d="M41195 41408 L41219 41435" /> 
<path d="M41219 41435 L41243 41487" /> 
<path d="M41243 41487 L41243 41618" /> 
<path d="M41243 41618 L41219 41670" /> 
<path d="M41219 41670 L41195 41696" /> 
<path d="M41195 41696 L41148 41723" /> 
<path d="M41148 41723 L41005 41723" /> 
<path d="M41005 41723 L40957 41696" /> 
<path d="M40957 41696 L40933 41670" /> 
<g style = "stroke-linecap:round;" > 
<path d="M40933 41670 L40933 41670" /> 
</g></g>
<g style="fill:#C0C0C0; fill-opacity:0.0; 
  stroke:#00A0A0; stroke-linecap:round; stroke-linejoin:round; stroke-opacity:1.0; stroke-opacity:1.0; stroke-width:150" 
   transform="translate(0 0) scale(1 1)">
<path d="M40750 40500 L41750 40500" /> 
</g>
<g style="fill:#00A0A0; fill-opacity:0.0; 
  stroke:#00A0A0; stroke-linecap:round; stroke-linejoin:round; stroke-opacity:1.0; stroke-opacity:1.0; stroke-width:150" 
   transform="translate(0 0) scale(1 1)">
<ellipse cx="40750" cy="40500" rx="559" ry="559"  /> 
</g>
<g style="fill:#808000; fill-opacity:1.0; 
  stroke:#808000; stroke-linecap:round; stroke-linejoin:round; stroke-opacity:1.0; stroke-opacity:1.0; stroke-width:0" 
   transform="translate(0 0) scale(1 1)">
<polygon style="fill-rule:evenodd; " 
points="42225,38225
42775,38225
42775,38775
42225,38775
" /> 
</g>
<g style="fill:#FFFFFF; fill-opacity:1.0; 
  stroke:#808000; stroke-linecap:round; stroke-linejoin:round; stroke-opacity:1.0; stroke-opacity:1.0; stroke-width:0" 
   transform="translate(0 0) scale(1 1)">
<ellipse cx="42500" cy="38500" rx="160" ry="160"  /> 
</g>
<g style="fill:#808000; fill-opacity:1.0; 
  stroke:#808000; stroke-linecap:round; stroke-linejoin:round; stroke-opacity:1.0; stroke-opacity:1.0; stroke-width:0" 
   transform="translate(0 0) scale(1 1)">
<ellipse cx="42500" cy="39500" rx="275" ry="275"  /> 
</g>
<g style="fill:#FFFFFF; fill-opacity:1.0; 
  stroke:#808000; stroke-linecap:round; stroke-linejoin:round; stroke-opacity:1.0; stroke-opacity:1.0; stroke-width:0" 
   transform="translate(0 0) scale(1 1)">
<ellipse cx="42500" cy="39500" rx="160" ry="160"  /> 
</g>
<g style="fill:#808000; fill-opacity:1.0; 
  stroke:#808000; stroke-linecap:round; stroke-linejoin:round; stroke-opacity:1.0; stroke-opacity:1.0; stroke-width:0" 
   transform="translate(0 0) scale(1 1)">
<ellipse cx="42500" cy="40500" rx="275" ry="275"  /> 
</g>
<g style="fill:#FFFFFF; fill-opacity:1.0; 
  stroke:#808000; stroke-linecap:round; stroke-linejoin:round; stroke-opacity:1.0; stroke-opacity:1.0; stroke-width:0" 
   transform="translate(0 0) scale(1 1)">
<ellipse cx="42500" cy="40500" rx="160" ry="160"  /> 
</g>
<g style="fill:#808000; fill-opacity:1.0; 
  stroke:#808000; stroke-linecap:round; stroke-linejoin:round; stroke-opacity:1.0; stroke-opacity:1.0; stroke-width:0" 
   transform="translate(0 0) scale(1 1)">
<ellipse cx="42500" cy="41500" rx="275" ry="275"  /> 
</g>
<g style="fill:#FFFFFF; fill-opacity:1.0; 
  stroke:#808000; stroke-linecap:round; stroke-linejoin:round; stroke-opacity:1.0; stroke-opacity:1.0; stroke-width:0" 
   transform="translate(0 0) scale(1 1)">
<ellipse cx="42500" cy="41500" rx="160" ry="160"  /> 
</g>
<g style="fill:#808000; fill-opacity:1.0; 
  stroke:#808000; stroke-linecap:round; stroke-linejoin:round; stroke-opacity:1.0; stroke-opacity:1.0; stroke-width:0" 
   transform="translate(0 0) scale(1 1)">
<ellipse cx="45500" cy="41500" rx="275" ry="275"  /> 
</g>
<g style="fill:#FFFFFF; fill-opacity:1.0; 
  stroke:#808000; stroke-linecap:round; stroke-linejoin:round; stroke-opacity:1.0; stroke-opacity:1.0; stroke-width:0" 
   transform="translate(0 0) scale(1 1)">
<ellipse cx="45500" cy="41500" rx="160" ry="160"  /> 
</g>
<g style="fill:#808000; fill-opacity:1.0; 
  stroke:#808000; stroke-linecap:round; stroke-linejoin:round; stroke-opacity:1.0; stroke-opacity:1.0; stroke-width:0" 
   transform="translate(0 0) scale(1 1)">
<ellipse cx="45500" cy="40500" rx="275" ry="275"  /> 
</g>
<g style="fill:#FFFFFF; fill-opacity:1.0; 
  stroke:#808000; stroke-linecap:round; stroke-linejoin:round; stroke-opacity:1.0; stroke-opacity:1.0; stroke-width:0" 
   transform="translate(0 0) scale(1 1)">
<ellipse cx="45500" cy="40500" rx="160" ry="160"  /> 
</g>
<g style="fill:#808000; fill-opacity:1.0; 
  stroke:#808000; stroke-linecap:round; stroke-linejoin:round; stroke-opacity:1.0; stroke-opacity:1.0; stroke-width:0" 
   transform="translate(0 0) scale(1 1)">
<ellipse cx="45500" cy="39500" rx="275" ry="275"  /> 
</g>
<g style="fill:#FFFFFF; fill-opacity:1.0; 
  stroke:#808000; stroke-linecap:round; stroke-linejoin:round; stroke-opacity:1.0; stroke-opacity:1.0; stroke-width:0" 
   transform="translate(0 0) scale(1 1)">
<ellipse cx="45500" cy="39500" rx="160" ry="160"  /> 
</g>
<g style="fill:#808000; fill-opacity:1.0; 
  stroke:#808000; stroke-linecap:round; stroke-linejoin:round; stroke-opacity:1.0; stroke-opacity:1.0; stroke-width:0" 
   transform="translate(0 0) scale(1 1)">
<ellipse cx="45500" cy="38500" rx="275" ry="275"  /> 
</g>
<g style="fill:#FFFFFF; fill-opacity:1.0; 
  stroke:#808000; stroke-linecap:round; stroke-linejoin:round; stroke-opacity:1.0; stroke-opacity:1.0; stroke-width:0" 
   transform="translate(0 0) scale(1 1)">
<ellipse cx="45500" cy="38500" rx="160" ry="160"  /> 
</g>
<g style="fill:#FFFFFF; fill-opacity:1.0; 
  stroke:#0000C0; stroke-linecap:round; stroke-linejoin:round; stroke-opacity:1.0; stroke-opacity:1.0; stroke-width:0" 
   transform="translate(0 0) scale(1 1)">
<path d="M43998 37500 L44002 37500" /> 
<path d="M44000 37498 L44000 37502" /> 
</g>
<g style="fill:#C0C0C0; fill-opacity:0.0; 
  stroke:#C0C0C0; stroke-linecap:round; stroke-linejoin:round; stroke-opacity:1.0; stroke-opacity:1.0; stroke-width:80" 
   transform="translate(0 0) scale(1 1)">
<path d="M43561 37702 L43561 37202" /> 
<g style = "stroke-linecap:round;" > 
<path d="M43561 37202 L43561 37202" /> 
</g><path d="M44032 37655 L44011 37679" /> 
<path d="M44011 37679 L43947 37702" /> 
<path d="M43947 37702 L43904 37702" /> 
<path d="M43904 37702 L43839 37679" /> 
<path d="M43839 37679 L43797 37631" /> 
<path d="M43797 37631 L43775 37583" /> 
<path d="M43775 37583 L43754 37488" /> 
<path d="M43754 37488 L43754 37417" /> 
<path d="M43754 37417 L43775 37321" /> 
<path d="M43775 37321 L43797 37274" /> 
<path d="M43797 37274 L43839 37226" /> 
<path d="M43839 37226 L43904 37202" /> 
<path d="M43904 37202 L43947 37202" /> 
<path d="M43947 37202 L44011 37226" /> 
<path d="M44011 37226 L44032 37250" /> 
<g style = "stroke-linecap:round;" > 
<path d="M44032 37250 L44032 37250" /> 
</g><path d="M44461 37702 L44204 37702" /> 
<g style = "stroke-linecap:round;" > 
<path d="M44204 37702 L44204 37702" /> 
</g><path d="M44332 37702 L44332 37202" /> 
<path d="M44332 37202 L44289 37274" /> 
<path d="M44289 37274 L44247 37321" /> 
<path d="M44247 37321 L44204 37345" /> 
<g style = "stroke-linecap:round;" > 
<path d="M44204 37345 L44204 37345" /> 
</g></g>
<g style="fill:#C0C0C0; fill-opacity:0.0; 
  stroke:#0000C0; stroke-linecap:round; stroke-linejoin:round; stroke-opacity:1.0; stroke-opacity:1.0; stroke-width:0" 
   transform="translate(0 0) scale(1 1)">
<path d="M43998 40000 L44002 40000" /> 
<path d="M44000 39998 L44000 40002" /> 
</g>
<g style="fill:#C0C0C0; fill-opacity:0.0; 
  stroke:#C0C0C0; stroke-linecap:round; stroke-linejoin:round; stroke-opacity:1.0; stroke-opacity:1.0; stroke-width:80" 
   transform="translate(0 0) scale(1 1)">
<path d="M44060 42295 L44060 42104" /> 
<g style = "stroke-linecap:round;" > 
<path d="M44060 42104 L44060 42104" /> 
</g><path d="M44202 42333 L43702 42200" /> 
<path d="M43702 42200 L44202 42066" /> 
<g style = "stroke-linecap:round;" > 
<path d="M44202 42066 L44202 42066" /> 
</g><path d="M43702 41990 L43702 41761" /> 
<g style = "stroke-linecap:round;" > 
<path d="M43702 41761 L43702 41761" /> 
</g><path d="M44202 41876 L43702 41876" /> 
<g style = "stroke-linecap:round;" > 
<path d="M43702 41876 L43702 41876" /> 
</g><path d="M43702 41685 L43702 41456" /> 
<g style = "stroke-linecap:round;" > 
<path d="M43702 41456 L43702 41456" /> 
</g><path d="M44202 41571 L43702 41571" /> 
<g style = "stroke-linecap:round;" > 
<path d="M43702 41571 L43702 41571" /> 
</g><path d="M44202 41323 L43702 41323" /> 
<g style = "stroke-linecap:round;" > 
<path d="M43702 41323 L43702 41323" /> 
</g><path d="M44202 41133 L43702 41133" /> 
<path d="M43702 41133 L44202 40904" /> 
<path d="M44202 40904 L43702 40904" /> 
<g style = "stroke-linecap:round;" > 
<path d="M43702 40904 L43702 40904" /> 
</g><path d="M43964 40638 L44202 40638" /> 
<g style = "stroke-linecap:round;" > 
<path d="M44202 40638 L44202 40638" /> 
</g><path d="M43702 40771 L43964 40638" /> 
<path d="M43964 40638 L43702 40504" /> 
<g style = "stroke-linecap:round;" > 
<path d="M43702 40504 L43702 40504" /> 
</g><path d="M43917 40314 L43893 40352" /> 
<path d="M43893 40352 L43869 40371" /> 
<path d="M43869 40371 L43821 40390" /> 
<path d="M43821 40390 L43798 40390" /> 
<path d="M43798 40390 L43750 40371" /> 
<path d="M43750 40371 L43726 40352" /> 
<path d="M43726 40352 L43702 40314" /> 
<path d="M43702 40314 L43702 40237" /> 
<path d="M43702 40237 L43726 40199" /> 
<path d="M43726 40199 L43750 40180" /> 
<path d="M43750 40180 L43798 40161" /> 
<path d="M43798 40161 L43821 40161" /> 
<path d="M43821 40161 L43869 40180" /> 
<path d="M43869 40180 L43893 40199" /> 
<path d="M43893 40199 L43917 40237" /> 
<path d="M43917 40237 L43917 40314" /> 
<path d="M43917 40314 L43940 40352" /> 
<path d="M43940 40352 L43964 40371" /> 
<path d="M43964 40371 L44012 40390" /> 
<path d="M44012 40390 L44107 40390" /> 
<path d="M44107 40390 L44155 40371" /> 
<path d="M44155 40371 L44179 40352" /> 
<path d="M44179 40352 L44202 40314" /> 
<path d="M44202 40314 L44202 40237" /> 
<path d="M44202 40237 L44179 40199" /> 
<path d="M44179 40199 L44155 40180" /> 
<path d="M44155 40180 L44107 40161" /> 
<path d="M44107 40161 L44012 40161" /> 
<path d="M44012 40161 L43964 40180" /> 
<path d="M43964 40180 L43940 40199" /> 
<path d="M43940 40199 L43917 40237" /> 
<g style = "stroke-linecap:round;" > 
<path d="M43917 40237 L43917 40237" /> 
</g><path d="M43702 39799 L43702 39990" /> 
<path d="M43702 39990 L43940 40009" /> 
<path d="M43940 40009 L43917 39990" /> 
<path d="M43917 39990 L43893 39952" /> 
<path d="M43893 39952 L43893 39856" /> 
<path d="M43893 39856 L43917 39818" /> 
<path d="M43917 39818 L43940 39799" /> 
<path d="M43940 39799 L43988 39780" /> 
<path d="M43988 39780 L44107 39780" /> 
<path d="M44107 39780 L44155 39799" /> 
<path d="M44155 39799 L44179 39818" /> 
<path d="M44179 39818 L44202 39856" /> 
<path d="M44202 39856 L44202 39952" /> 
<path d="M44202 39952 L44179 39990" /> 
<path d="M44179 39990 L44155 40009" /> 
<g style = "stroke-linecap:round;" > 
<path d="M44155 40009 L44155 40009" /> 
</g><path d="M44012 39609 L44012 39304" /> 
<g style = "stroke-linecap:round;" > 
<path d="M44012 39304 L44012 39304" /> 
</g><path d="M43750 39133 L43726 39114" /> 
<path d="M43726 39114 L43702 39076" /> 
<path d="M43702 39076 L43702 38980" /> 
<path d="M43702 38980 L43726 38942" /> 
<path d="M43726 38942 L43750 38923" /> 
<path d="M43750 38923 L43798 38904" /> 
<path d="M43798 38904 L43845 38904" /> 
<path d="M43845 38904 L43917 38923" /> 
<path d="M43917 38923 L44202 39152" /> 
<path d="M44202 39152 L44202 38904" /> 
<g style = "stroke-linecap:round;" > 
<path d="M44202 38904 L44202 38904" /> 
</g><path d="M43702 38657 L43702 38618" /> 
<path d="M43702 38618 L43726 38580" /> 
<path d="M43726 38580 L43750 38561" /> 
<path d="M43750 38561 L43798 38542" /> 
<path d="M43798 38542 L43893 38523" /> 
<path d="M43893 38523 L44012 38523" /> 
<path d="M44012 38523 L44107 38542" /> 
<path d="M44107 38542 L44155 38561" /> 
<path d="M44155 38561 L44179 38580" /> 
<path d="M44179 38580 L44202 38618" /> 
<path d="M44202 38618 L44202 38657" /> 
<path d="M44202 38657 L44179 38695" /> 
<path d="M44179 38695 L44155 38714" /> 
<path d="M44155 38714 L44107 38733" /> 
<path d="M44107 38733 L44012 38752" /> 
<path d="M44012 38752 L43893 38752" /> 
<path d="M43893 38752 L43798 38733" /> 
<path d="M43798 38733 L43750 38714" /> 
<path d="M43750 38714 L43726 38695" /> 
<path d="M43726 38695 L43702 38657" /> 
<path d="M44202 38352 L43702 38352" /> 
<path d="M43702 38352 L43702 38199" /> 
<path d="M43702 38199 L43726 38161" /> 
<path d="M43726 38161 L43750 38142" /> 
<path d="M43750 38142 L43798 38123" /> 
<path d="M43798 38123 L43869 38123" /> 
<path d="M43869 38123 L43917 38142" /> 
<path d="M43917 38142 L43940 38161" /> 
<path d="M43940 38161 L43964 38199" /> 
<path d="M43964 38199 L43964 38352" /> 
<g style = "stroke-linecap:round;" > 
<path d="M43964 38352 L43964 38352" /> 
</g><path d="M43702 37952 L44107 37952" /> 
<path d="M44107 37952 L44155 37933" /> 
<path d="M44155 37933 L44179 37914" /> 
<path d="M44179 37914 L44202 37876" /> 
<path d="M44202 37876 L44202 37799" /> 
<path d="M44202 37799 L44179 37761" /> 
<path d="M44179 37761 L44155 37742" /> 
<path d="M44155 37742 L44107 37723" /> 
<path d="M44107 37723 L43702 37723" /> 
<g style = "stroke-linecap:round;" > 
<path d="M43702 37723 L43702 37723" /> 
</g></g>
<g style="fill:#C0C0C0; fill-opacity:0.0; 
  stroke:#00A0A0; stroke-linecap:round; stroke-linejoin:round; stroke-opacity:1.0; stroke-opacity:1.0; stroke-width:100" 
   transform="translate(0 0) scale(1 1)">
<path d="M44500 38000 L44500 38500" /> 
<path d="M44500 38500 L43500 38500" /> 
<path d="M43500 38500 L43500 38000" /> 
<path d="M45000 38000 L45000 42000" /> 
<path d="M45000 42000 L43000 42000" /> 
<path d="M43000 42000 L43000 38000" /> 
<path d="M43000 38000 L45000 38000" /> 
</g> 
</svg> 
