M48
;DRILL file {Pcbnew (2012-apr-16-27)-stable} date Tue 13 Aug 2013 10:34:56 AM IST
;FORMAT={-:-/ absolute / inch / decimal}
FMAT,2
INCH,TZ
T1C0.032
T2C0.040
%
G90
G05
M72
T1
X4.050Y3.825
X4.050Y3.950
X4.075Y4.050
X4.075Y4.175
X4.075Y4.300
X4.150Y3.825
X4.150Y3.950
X4.175Y4.050
X4.175Y4.175
X4.175Y4.300
X4.250Y3.850
X4.250Y3.950
X4.250Y4.050
X4.250Y4.150
X4.550Y3.850
X4.550Y3.950
X4.550Y4.050
X4.550Y4.150
T2
X4.275Y4.300
X4.375Y4.300
X4.650Y3.825
X4.650Y3.925
X4.650Y4.025
X4.650Y4.125
X4.650Y4.225
X4.650Y4.325
T0
M30
