G04 (created by PCBNEW-RS274X (2012-apr-16-27)-stable) date Tue 13 Aug 2013 10:34:46 AM IST*
G01*
G70*
G90*
%MOIN*%
G04 Gerber Fmt 3.4, Leading zero omitted, Abs format*
%FSLAX34Y34*%
G04 APERTURE LIST*
%ADD10C,0.006000*%
%ADD11C,0.074000*%
%ADD12C,0.055000*%
%ADD13R,0.055000X0.055000*%
%ADD14C,0.008000*%
G04 APERTURE END LIST*
G54D10*
G54D11*
X46500Y-43250D03*
X46500Y-42250D03*
X46500Y-41250D03*
X46500Y-40250D03*
X46500Y-39250D03*
X46500Y-38250D03*
X42750Y-43000D03*
X43750Y-43000D03*
G54D12*
X41500Y-38250D03*
X40500Y-38250D03*
X41500Y-39500D03*
X40500Y-39500D03*
X40750Y-43000D03*
X41750Y-43000D03*
X40750Y-41750D03*
X41750Y-41750D03*
X40750Y-40500D03*
X41750Y-40500D03*
G54D13*
X42500Y-38500D03*
G54D12*
X42500Y-39500D03*
X42500Y-40500D03*
X42500Y-41500D03*
X45500Y-41500D03*
X45500Y-40500D03*
X45500Y-39500D03*
X45500Y-38500D03*
G54D14*
X43250Y-38750D02*
X45000Y-38750D01*
X45250Y-38500D02*
X45500Y-38500D01*
X42750Y-43000D02*
X42750Y-42250D01*
X42250Y-43500D02*
X42750Y-43000D01*
X41250Y-43500D02*
X42250Y-43500D01*
X40750Y-43000D02*
X41250Y-43500D01*
X43000Y-39000D02*
X43250Y-38750D01*
X42000Y-39000D02*
X43000Y-39000D01*
X42000Y-40000D02*
X42000Y-39000D01*
X43000Y-40000D02*
X42000Y-40000D01*
X43000Y-42000D02*
X43000Y-40000D01*
X42750Y-42250D02*
X43000Y-42000D01*
X45000Y-38750D02*
X45250Y-38500D01*
X40250Y-40250D02*
X40000Y-40000D01*
X40000Y-40000D02*
X40000Y-38750D01*
X40250Y-41000D02*
X40250Y-40250D01*
X40750Y-41500D02*
X40250Y-41000D01*
X40750Y-41750D02*
X40750Y-41500D01*
X40000Y-38750D02*
X40500Y-38250D01*
X41250Y-41000D02*
X41500Y-41250D01*
X41500Y-41250D02*
X42250Y-41250D01*
X42250Y-41250D02*
X42500Y-41500D01*
X41500Y-39500D02*
X41500Y-39750D01*
X41250Y-40000D02*
X41250Y-41000D01*
X41500Y-39750D02*
X41250Y-40000D01*
X46500Y-42250D02*
X46250Y-42000D01*
X46250Y-42000D02*
X45000Y-42000D01*
X45000Y-42000D02*
X45000Y-41000D01*
X45000Y-41000D02*
X45500Y-40500D01*
X46500Y-38250D02*
X46250Y-38000D01*
X46250Y-38000D02*
X45000Y-38000D01*
X45000Y-38000D02*
X44500Y-38500D01*
X44500Y-38500D02*
X42500Y-38500D01*
X42500Y-40500D02*
X41750Y-40500D01*
X46500Y-40250D02*
X46250Y-40000D01*
X46250Y-40000D02*
X45000Y-40000D01*
X45000Y-40000D02*
X44500Y-39500D01*
X44500Y-39500D02*
X42500Y-39500D01*
M02*
