G04 (created by PCBNEW-RS274X (2012-apr-16-27)-stable) date Mon 26 Aug 2013 11:19:43 AM IST*
G01*
G70*
G90*
%MOIN*%
G04 Gerber Fmt 3.4, Leading zero omitted, Abs format*
%FSLAX34Y34*%
G04 APERTURE LIST*
%ADD10C,0.006000*%
%ADD11C,0.015000*%
%ADD12R,0.295200X0.059000*%
%ADD13R,0.255900X0.039300*%
%ADD14C,0.055000*%
%ADD15R,0.055000X0.055000*%
%ADD16R,0.060000X0.060000*%
%ADD17C,0.060000*%
%ADD18C,0.016000*%
%ADD19C,0.010000*%
G04 APERTURE END LIST*
G54D10*
G54D11*
X33000Y-43250D02*
X33000Y-38250D01*
X45500Y-43250D02*
X33000Y-43250D01*
X45500Y-38250D02*
X45500Y-43250D01*
X33000Y-38250D02*
X45500Y-38250D01*
G54D12*
X34922Y-42127D03*
X34922Y-39373D03*
G54D13*
X35118Y-41143D03*
X35118Y-40357D03*
G54D14*
X37250Y-42250D03*
X37250Y-41250D03*
G54D15*
X44750Y-38750D03*
G54D14*
X43750Y-38750D03*
X42750Y-38750D03*
X41750Y-38750D03*
X41750Y-41750D03*
X42750Y-41750D03*
X43750Y-41750D03*
X44750Y-41750D03*
G54D16*
X41750Y-42750D03*
G54D17*
X42750Y-42750D03*
X43750Y-42750D03*
X44750Y-42750D03*
G54D16*
X44750Y-39750D03*
G54D17*
X43750Y-39750D03*
X42750Y-39750D03*
X41750Y-39750D03*
G54D14*
X38250Y-41250D03*
X39250Y-41250D03*
X38250Y-40000D03*
X39250Y-40000D03*
G54D15*
X40250Y-41750D03*
G54D14*
X40250Y-38750D03*
X37250Y-39000D03*
X37250Y-40000D03*
G54D18*
X44250Y-41250D02*
X44500Y-41250D01*
X37750Y-42750D02*
X40500Y-42750D01*
X41000Y-41250D02*
X41500Y-41250D01*
X34922Y-42127D02*
X36877Y-42127D01*
X44750Y-42750D02*
X44750Y-41750D01*
X37250Y-42250D02*
X37750Y-42750D01*
X36877Y-42127D02*
X37250Y-42250D01*
X44500Y-41250D02*
X44750Y-41750D01*
X41500Y-41250D02*
X44250Y-41250D01*
X40500Y-42750D02*
X41000Y-42250D01*
X41000Y-42250D02*
X41000Y-41250D01*
X41000Y-41250D02*
X41500Y-41250D01*
X37250Y-42250D02*
X37250Y-42250D01*
X35118Y-40357D02*
X36893Y-40357D01*
X37250Y-40000D02*
X38250Y-40000D01*
X36893Y-40357D02*
X37250Y-40000D01*
X36893Y-41143D02*
X37250Y-41250D01*
X37250Y-41250D02*
X38000Y-41250D01*
X38250Y-41250D02*
X38250Y-41500D01*
X38750Y-42000D02*
X40000Y-42000D01*
X40000Y-42000D02*
X40250Y-41750D01*
X35118Y-41143D02*
X36893Y-41143D01*
X38000Y-41250D02*
X38250Y-41250D01*
X38250Y-41500D02*
X38750Y-42000D01*
X34922Y-39373D02*
X36877Y-39373D01*
X36877Y-39373D02*
X37250Y-39000D01*
X37500Y-38750D02*
X37250Y-39000D01*
X40250Y-38750D02*
X41750Y-38750D01*
X40250Y-38750D02*
X37500Y-38750D01*
X41750Y-39750D02*
X41750Y-38750D01*
X43500Y-40750D02*
X43750Y-39750D01*
X40000Y-41250D02*
X40250Y-40750D01*
X39250Y-41250D02*
X40000Y-41250D01*
X40250Y-40750D02*
X43500Y-40750D01*
X43750Y-39750D02*
X43750Y-38750D01*
X43750Y-42750D02*
X43750Y-41750D01*
X44750Y-39750D02*
X44750Y-38750D01*
X42750Y-42750D02*
X42750Y-41750D01*
X41750Y-42750D02*
X41750Y-41750D01*
X39250Y-40000D02*
X39500Y-40000D01*
X42250Y-40250D02*
X42750Y-39750D01*
X39750Y-40250D02*
X42250Y-40250D01*
X39500Y-40000D02*
X39750Y-40250D01*
X42750Y-39750D02*
X42750Y-38750D01*
G54D10*
G36*
X36804Y-39703D02*
X36800Y-39714D01*
X36800Y-39703D01*
X36804Y-39703D01*
X36804Y-39703D01*
G37*
G54D19*
X36804Y-39703D02*
X36800Y-39714D01*
X36800Y-39703D01*
X36804Y-39703D01*
G54D10*
G36*
X36932Y-38575D02*
X36805Y-38702D01*
X36800Y-38714D01*
X36800Y-38575D01*
X36932Y-38575D01*
X36932Y-38575D01*
G37*
G54D19*
X36932Y-38575D02*
X36805Y-38702D01*
X36800Y-38714D01*
X36800Y-38575D01*
X36932Y-38575D01*
G54D10*
G36*
X37085Y-41750D02*
X36953Y-41805D01*
X36948Y-41809D01*
X36931Y-41807D01*
X36877Y-41797D01*
X36800Y-41797D01*
X36800Y-41534D01*
X36805Y-41547D01*
X36952Y-41695D01*
X37085Y-41750D01*
X37085Y-41750D01*
G37*
G54D19*
X37085Y-41750D02*
X36953Y-41805D01*
X36948Y-41809D01*
X36931Y-41807D01*
X36877Y-41797D01*
X36800Y-41797D01*
X36800Y-41534D01*
X36805Y-41547D01*
X36952Y-41695D01*
X37085Y-41750D01*
G54D10*
G36*
X37459Y-42925D02*
X36800Y-42925D01*
X36800Y-42534D01*
X36805Y-42547D01*
X36952Y-42695D01*
X37145Y-42775D01*
X37309Y-42775D01*
X37459Y-42925D01*
X37459Y-42925D01*
G37*
G54D19*
X37459Y-42925D02*
X36800Y-42925D01*
X36800Y-42534D01*
X36805Y-42547D01*
X36952Y-42695D01*
X37145Y-42775D01*
X37309Y-42775D01*
X37459Y-42925D01*
G54D10*
G36*
X38927Y-41670D02*
X38886Y-41670D01*
X38715Y-41499D01*
X38750Y-41414D01*
X38805Y-41547D01*
X38927Y-41670D01*
X38927Y-41670D01*
G37*
G54D19*
X38927Y-41670D02*
X38886Y-41670D01*
X38715Y-41499D01*
X38750Y-41414D01*
X38805Y-41547D01*
X38927Y-41670D01*
G54D10*
G36*
X39726Y-41670D02*
X39572Y-41670D01*
X39662Y-41580D01*
X39726Y-41580D01*
X39726Y-41670D01*
X39726Y-41670D01*
G37*
G54D19*
X39726Y-41670D02*
X39572Y-41670D01*
X39662Y-41580D01*
X39726Y-41580D01*
X39726Y-41670D01*
G54D10*
G36*
X39972Y-40580D02*
X39955Y-40602D01*
X39796Y-40920D01*
X39662Y-40920D01*
X39548Y-40805D01*
X39355Y-40725D01*
X39146Y-40725D01*
X38953Y-40805D01*
X38805Y-40952D01*
X38749Y-41085D01*
X38695Y-40953D01*
X38548Y-40805D01*
X38355Y-40725D01*
X38146Y-40725D01*
X37953Y-40805D01*
X37837Y-40920D01*
X37662Y-40920D01*
X37548Y-40805D01*
X37355Y-40725D01*
X37146Y-40725D01*
X36953Y-40805D01*
X36936Y-40821D01*
X36893Y-40813D01*
X36800Y-40813D01*
X36800Y-40687D01*
X36893Y-40687D01*
X37019Y-40662D01*
X37020Y-40662D01*
X37126Y-40590D01*
X37191Y-40525D01*
X37354Y-40525D01*
X37547Y-40445D01*
X37662Y-40330D01*
X37837Y-40330D01*
X37952Y-40445D01*
X38145Y-40525D01*
X38354Y-40525D01*
X38547Y-40445D01*
X38695Y-40298D01*
X38750Y-40164D01*
X38805Y-40297D01*
X38952Y-40445D01*
X39145Y-40525D01*
X39354Y-40525D01*
X39498Y-40465D01*
X39516Y-40483D01*
X39517Y-40483D01*
X39588Y-40530D01*
X39623Y-40554D01*
X39624Y-40555D01*
X39750Y-40580D01*
X39972Y-40580D01*
X39972Y-40580D01*
G37*
G54D19*
X39972Y-40580D02*
X39955Y-40602D01*
X39796Y-40920D01*
X39662Y-40920D01*
X39548Y-40805D01*
X39355Y-40725D01*
X39146Y-40725D01*
X38953Y-40805D01*
X38805Y-40952D01*
X38749Y-41085D01*
X38695Y-40953D01*
X38548Y-40805D01*
X38355Y-40725D01*
X38146Y-40725D01*
X37953Y-40805D01*
X37837Y-40920D01*
X37662Y-40920D01*
X37548Y-40805D01*
X37355Y-40725D01*
X37146Y-40725D01*
X36953Y-40805D01*
X36936Y-40821D01*
X36893Y-40813D01*
X36800Y-40813D01*
X36800Y-40687D01*
X36893Y-40687D01*
X37019Y-40662D01*
X37020Y-40662D01*
X37126Y-40590D01*
X37191Y-40525D01*
X37354Y-40525D01*
X37547Y-40445D01*
X37662Y-40330D01*
X37837Y-40330D01*
X37952Y-40445D01*
X38145Y-40525D01*
X38354Y-40525D01*
X38547Y-40445D01*
X38695Y-40298D01*
X38750Y-40164D01*
X38805Y-40297D01*
X38952Y-40445D01*
X39145Y-40525D01*
X39354Y-40525D01*
X39498Y-40465D01*
X39516Y-40483D01*
X39517Y-40483D01*
X39588Y-40530D01*
X39623Y-40554D01*
X39624Y-40555D01*
X39750Y-40580D01*
X39972Y-40580D01*
G54D10*
G36*
X40510Y-42274D02*
X40364Y-42420D01*
X37886Y-42420D01*
X37775Y-42309D01*
X37775Y-42146D01*
X37695Y-41953D01*
X37548Y-41805D01*
X37414Y-41749D01*
X37547Y-41695D01*
X37662Y-41580D01*
X37837Y-41580D01*
X37952Y-41695D01*
X38006Y-41717D01*
X38017Y-41733D01*
X38517Y-42233D01*
X38623Y-42305D01*
X38624Y-42305D01*
X38644Y-42308D01*
X38750Y-42330D01*
X40000Y-42330D01*
X40126Y-42305D01*
X40127Y-42305D01*
X40172Y-42274D01*
X40510Y-42274D01*
X40510Y-42274D01*
G37*
G54D19*
X40510Y-42274D02*
X40364Y-42420D01*
X37886Y-42420D01*
X37775Y-42309D01*
X37775Y-42146D01*
X37695Y-41953D01*
X37548Y-41805D01*
X37414Y-41749D01*
X37547Y-41695D01*
X37662Y-41580D01*
X37837Y-41580D01*
X37952Y-41695D01*
X38006Y-41717D01*
X38017Y-41733D01*
X38517Y-42233D01*
X38623Y-42305D01*
X38624Y-42305D01*
X38644Y-42308D01*
X38750Y-42330D01*
X40000Y-42330D01*
X40126Y-42305D01*
X40127Y-42305D01*
X40172Y-42274D01*
X40510Y-42274D01*
G54D10*
G36*
X40724Y-41080D02*
X40695Y-41124D01*
X40670Y-41250D01*
X40670Y-41268D01*
X40666Y-41264D01*
X40575Y-41226D01*
X40476Y-41226D01*
X40381Y-41226D01*
X40454Y-41080D01*
X40724Y-41080D01*
X40724Y-41080D01*
G37*
G54D19*
X40724Y-41080D02*
X40695Y-41124D01*
X40670Y-41250D01*
X40670Y-41268D01*
X40666Y-41264D01*
X40575Y-41226D01*
X40476Y-41226D01*
X40381Y-41226D01*
X40454Y-41080D01*
X40724Y-41080D01*
G54D10*
G36*
X41201Y-42925D02*
X40791Y-42925D01*
X41201Y-42515D01*
X41201Y-42925D01*
X41201Y-42925D01*
G37*
G54D19*
X41201Y-42925D02*
X40791Y-42925D01*
X41201Y-42515D01*
X41201Y-42925D01*
G54D10*
G36*
X41420Y-39304D02*
X41285Y-39439D01*
X41201Y-39641D01*
X41201Y-39859D01*
X41226Y-39920D01*
X39886Y-39920D01*
X39733Y-39767D01*
X39717Y-39756D01*
X39695Y-39703D01*
X39548Y-39555D01*
X39355Y-39475D01*
X39146Y-39475D01*
X38953Y-39555D01*
X38805Y-39702D01*
X38749Y-39835D01*
X38695Y-39703D01*
X38548Y-39555D01*
X38355Y-39475D01*
X38146Y-39475D01*
X37953Y-39555D01*
X37837Y-39670D01*
X37662Y-39670D01*
X37548Y-39555D01*
X37414Y-39499D01*
X37547Y-39445D01*
X37695Y-39298D01*
X37775Y-39105D01*
X37775Y-39080D01*
X39837Y-39080D01*
X39952Y-39195D01*
X40145Y-39275D01*
X40354Y-39275D01*
X40547Y-39195D01*
X40662Y-39080D01*
X41337Y-39080D01*
X41420Y-39162D01*
X41420Y-39304D01*
X41420Y-39304D01*
G37*
G54D19*
X41420Y-39304D02*
X41285Y-39439D01*
X41201Y-39641D01*
X41201Y-39859D01*
X41226Y-39920D01*
X39886Y-39920D01*
X39733Y-39767D01*
X39717Y-39756D01*
X39695Y-39703D01*
X39548Y-39555D01*
X39355Y-39475D01*
X39146Y-39475D01*
X38953Y-39555D01*
X38805Y-39702D01*
X38749Y-39835D01*
X38695Y-39703D01*
X38548Y-39555D01*
X38355Y-39475D01*
X38146Y-39475D01*
X37953Y-39555D01*
X37837Y-39670D01*
X37662Y-39670D01*
X37548Y-39555D01*
X37414Y-39499D01*
X37547Y-39445D01*
X37695Y-39298D01*
X37775Y-39105D01*
X37775Y-39080D01*
X39837Y-39080D01*
X39952Y-39195D01*
X40145Y-39275D01*
X40354Y-39275D01*
X40547Y-39195D01*
X40662Y-39080D01*
X41337Y-39080D01*
X41420Y-39162D01*
X41420Y-39304D01*
G54D10*
G36*
X41420Y-42201D02*
X41401Y-42201D01*
X41330Y-42230D01*
X41330Y-42072D01*
X41420Y-42162D01*
X41420Y-42201D01*
X41420Y-42201D01*
G37*
G54D19*
X41420Y-42201D02*
X41401Y-42201D01*
X41330Y-42230D01*
X41330Y-42072D01*
X41420Y-42162D01*
X41420Y-42201D01*
G54D10*
G36*
X42251Y-41580D02*
X42249Y-41585D01*
X42247Y-41580D01*
X42251Y-41580D01*
X42251Y-41580D01*
G37*
G54D19*
X42251Y-41580D02*
X42249Y-41585D01*
X42247Y-41580D01*
X42251Y-41580D01*
G54D10*
G36*
X42254Y-38575D02*
X42249Y-38585D01*
X42245Y-38575D01*
X42254Y-38575D01*
X42254Y-38575D01*
G37*
G54D19*
X42254Y-38575D02*
X42249Y-38585D01*
X42245Y-38575D01*
X42254Y-38575D01*
G54D10*
G36*
X42420Y-39304D02*
X42285Y-39439D01*
X42250Y-39523D01*
X42215Y-39439D01*
X42080Y-39304D01*
X42080Y-39162D01*
X42195Y-39048D01*
X42250Y-38914D01*
X42305Y-39047D01*
X42420Y-39162D01*
X42420Y-39304D01*
X42420Y-39304D01*
G37*
G54D19*
X42420Y-39304D02*
X42285Y-39439D01*
X42250Y-39523D01*
X42215Y-39439D01*
X42080Y-39304D01*
X42080Y-39162D01*
X42195Y-39048D01*
X42250Y-38914D01*
X42305Y-39047D01*
X42420Y-39162D01*
X42420Y-39304D01*
G54D10*
G36*
X42420Y-42304D02*
X42299Y-42425D01*
X42299Y-42401D01*
X42261Y-42309D01*
X42191Y-42239D01*
X42100Y-42201D01*
X42080Y-42201D01*
X42080Y-42162D01*
X42195Y-42048D01*
X42250Y-41914D01*
X42305Y-42047D01*
X42420Y-42162D01*
X42420Y-42304D01*
X42420Y-42304D01*
G37*
G54D19*
X42420Y-42304D02*
X42299Y-42425D01*
X42299Y-42401D01*
X42261Y-42309D01*
X42191Y-42239D01*
X42100Y-42201D01*
X42080Y-42201D01*
X42080Y-42162D01*
X42195Y-42048D01*
X42250Y-41914D01*
X42305Y-42047D01*
X42420Y-42162D01*
X42420Y-42304D01*
G54D10*
G36*
X43251Y-41580D02*
X43249Y-41585D01*
X43247Y-41580D01*
X43251Y-41580D01*
X43251Y-41580D01*
G37*
G54D19*
X43251Y-41580D02*
X43249Y-41585D01*
X43247Y-41580D01*
X43251Y-41580D01*
G54D10*
G36*
X43254Y-38575D02*
X43249Y-38585D01*
X43245Y-38575D01*
X43254Y-38575D01*
X43254Y-38575D01*
G37*
G54D19*
X43254Y-38575D02*
X43249Y-38585D01*
X43245Y-38575D01*
X43254Y-38575D01*
G54D10*
G36*
X43322Y-40098D02*
X43242Y-40420D01*
X42546Y-40420D01*
X42667Y-40299D01*
X42859Y-40299D01*
X43061Y-40215D01*
X43215Y-40061D01*
X43250Y-39976D01*
X43285Y-40061D01*
X43322Y-40098D01*
X43322Y-40098D01*
G37*
G54D19*
X43322Y-40098D02*
X43242Y-40420D01*
X42546Y-40420D01*
X42667Y-40299D01*
X42859Y-40299D01*
X43061Y-40215D01*
X43215Y-40061D01*
X43250Y-39976D01*
X43285Y-40061D01*
X43322Y-40098D01*
G54D10*
G36*
X43420Y-39304D02*
X43285Y-39439D01*
X43250Y-39523D01*
X43215Y-39439D01*
X43080Y-39304D01*
X43080Y-39162D01*
X43195Y-39048D01*
X43250Y-38914D01*
X43305Y-39047D01*
X43420Y-39162D01*
X43420Y-39304D01*
X43420Y-39304D01*
G37*
G54D19*
X43420Y-39304D02*
X43285Y-39439D01*
X43250Y-39523D01*
X43215Y-39439D01*
X43080Y-39304D01*
X43080Y-39162D01*
X43195Y-39048D01*
X43250Y-38914D01*
X43305Y-39047D01*
X43420Y-39162D01*
X43420Y-39304D01*
G54D10*
G36*
X43420Y-42304D02*
X43285Y-42439D01*
X43250Y-42523D01*
X43215Y-42439D01*
X43080Y-42304D01*
X43080Y-42162D01*
X43195Y-42048D01*
X43250Y-41914D01*
X43305Y-42047D01*
X43420Y-42162D01*
X43420Y-42304D01*
X43420Y-42304D01*
G37*
G54D19*
X43420Y-42304D02*
X43285Y-42439D01*
X43250Y-42523D01*
X43215Y-42439D01*
X43080Y-42304D01*
X43080Y-42162D01*
X43195Y-42048D01*
X43250Y-41914D01*
X43305Y-42047D01*
X43420Y-42162D01*
X43420Y-42304D01*
G54D10*
G36*
X44250Y-41580D02*
X44249Y-41585D01*
X44247Y-41580D01*
X44250Y-41580D01*
X44250Y-41580D01*
G37*
G54D19*
X44250Y-41580D02*
X44249Y-41585D01*
X44247Y-41580D01*
X44250Y-41580D01*
G54D10*
G36*
X44328Y-39230D02*
X44309Y-39239D01*
X44239Y-39309D01*
X44201Y-39400D01*
X44201Y-39425D01*
X44080Y-39304D01*
X44080Y-39162D01*
X44195Y-39048D01*
X44226Y-38973D01*
X44226Y-39074D01*
X44264Y-39166D01*
X44328Y-39230D01*
X44328Y-39230D01*
G37*
G54D19*
X44328Y-39230D02*
X44309Y-39239D01*
X44239Y-39309D01*
X44201Y-39400D01*
X44201Y-39425D01*
X44080Y-39304D01*
X44080Y-39162D01*
X44195Y-39048D01*
X44226Y-38973D01*
X44226Y-39074D01*
X44264Y-39166D01*
X44328Y-39230D01*
G54D10*
G36*
X44420Y-42304D02*
X44285Y-42439D01*
X44250Y-42523D01*
X44215Y-42439D01*
X44080Y-42304D01*
X44080Y-42162D01*
X44195Y-42048D01*
X44250Y-41914D01*
X44305Y-42047D01*
X44420Y-42162D01*
X44420Y-42304D01*
X44420Y-42304D01*
G37*
G54D19*
X44420Y-42304D02*
X44285Y-42439D01*
X44250Y-42523D01*
X44215Y-42439D01*
X44080Y-42304D01*
X44080Y-42162D01*
X44195Y-42048D01*
X44250Y-41914D01*
X44305Y-42047D01*
X44420Y-42162D01*
X44420Y-42304D01*
G54D10*
G36*
X45175Y-39232D02*
X45171Y-39230D01*
X45175Y-39227D01*
X45175Y-39232D01*
X45175Y-39232D01*
G37*
G54D19*
X45175Y-39232D02*
X45171Y-39230D01*
X45175Y-39227D01*
X45175Y-39232D01*
G54D10*
G36*
X45175Y-41432D02*
X45048Y-41305D01*
X44856Y-41225D01*
X44795Y-41102D01*
X44760Y-41058D01*
X44733Y-41017D01*
X44723Y-41010D01*
X44716Y-41001D01*
X44671Y-40975D01*
X44626Y-40945D01*
X44613Y-40942D01*
X44604Y-40937D01*
X44554Y-40930D01*
X44500Y-40920D01*
X44250Y-40920D01*
X43777Y-40920D01*
X43781Y-40910D01*
X43805Y-40876D01*
X43809Y-40851D01*
X43820Y-40830D01*
X43962Y-40255D01*
X44061Y-40215D01*
X44201Y-40075D01*
X44201Y-40099D01*
X44239Y-40191D01*
X44309Y-40261D01*
X44400Y-40299D01*
X44499Y-40299D01*
X45099Y-40299D01*
X45175Y-40267D01*
X45175Y-41432D01*
X45175Y-41432D01*
G37*
G54D19*
X45175Y-41432D02*
X45048Y-41305D01*
X44856Y-41225D01*
X44795Y-41102D01*
X44760Y-41058D01*
X44733Y-41017D01*
X44723Y-41010D01*
X44716Y-41001D01*
X44671Y-40975D01*
X44626Y-40945D01*
X44613Y-40942D01*
X44604Y-40937D01*
X44554Y-40930D01*
X44500Y-40920D01*
X44250Y-40920D01*
X43777Y-40920D01*
X43781Y-40910D01*
X43805Y-40876D01*
X43809Y-40851D01*
X43820Y-40830D01*
X43962Y-40255D01*
X44061Y-40215D01*
X44201Y-40075D01*
X44201Y-40099D01*
X44239Y-40191D01*
X44309Y-40261D01*
X44400Y-40299D01*
X44499Y-40299D01*
X45099Y-40299D01*
X45175Y-40267D01*
X45175Y-41432D01*
G54D10*
G36*
X45175Y-42399D02*
X45080Y-42304D01*
X45080Y-42162D01*
X45175Y-42067D01*
X45175Y-42399D01*
X45175Y-42399D01*
G37*
G54D19*
X45175Y-42399D02*
X45080Y-42304D01*
X45080Y-42162D01*
X45175Y-42067D01*
X45175Y-42399D01*
M02*
