M48
;DRILL file {Pcbnew (2012-apr-16-27)-stable} date Sun 25 Aug 2013 11:20:43 AM IST
;FORMAT={-:-/ absolute / inch / decimal}
FMAT,2
INCH,TZ
T1C0.032
T2C0.040
%
G90
G05
M72
T1
X3.725Y3.900
X3.725Y4.000
X3.725Y4.125
X3.725Y4.225
X3.825Y4.000
X3.825Y4.125
X3.925Y4.000
X3.925Y4.125
X4.025Y3.875
X4.025Y4.175
X4.175Y3.875
X4.175Y4.175
X4.275Y3.875
X4.275Y4.175
X4.375Y3.875
X4.375Y4.175
X4.475Y3.875
X4.475Y4.175
T2
X4.175Y3.975
X4.175Y4.275
X4.275Y3.975
X4.275Y4.275
X4.375Y3.975
X4.375Y4.275
X4.475Y3.975
X4.475Y4.275
T0
M30
