M48
;DRILL file {Pcbnew (2012-apr-16-27)-stable} date Mon 26 Aug 2013 06:46:03 PM IST
;FORMAT={-:-/ absolute / inch / decimal}
FMAT,2
INCH,TZ
T1C0.032
T2C0.040
%
G90
G05
M72
T1
X3.720Y3.890
X3.720Y3.990
X3.725Y4.125
X3.725Y4.225
X3.825Y4.125
X3.830Y4.000
X3.925Y4.125
X3.930Y4.000
X4.020Y3.890
X4.020Y4.190
X4.210Y3.890
X4.210Y3.990
X4.210Y4.090
X4.210Y4.190
X4.510Y3.890
X4.510Y3.990
X4.510Y4.090
X4.510Y4.190
T2
X4.120Y3.890
X4.120Y3.990
X4.120Y4.090
X4.120Y4.190
X4.420Y3.890
X4.420Y3.990
X4.420Y4.090
X4.420Y4.190
T0
M30
