G04 (created by PCBNEW-RS274X (2012-apr-16-27)-stable) date Mon 26 Aug 2013 06:45:51 PM IST*
G01*
G70*
G90*
%MOIN*%
G04 Gerber Fmt 3.4, Leading zero omitted, Abs format*
%FSLAX34Y34*%
G04 APERTURE LIST*
%ADD10C,0.006000*%
%ADD11C,0.011100*%
%ADD12C,0.015000*%
%ADD13C,0.010000*%
%ADD14C,0.012000*%
%ADD15C,0.008000*%
G04 APERTURE END LIST*
G54D10*
G54D11*
X33000Y-43250D02*
X33000Y-38250D01*
X45750Y-43250D02*
X33000Y-43250D01*
X45750Y-38250D02*
X45750Y-43250D01*
X33000Y-38250D02*
X45750Y-38250D01*
G54D12*
X37250Y-42250D02*
X37250Y-41250D01*
X37809Y-42250D02*
X37798Y-42358D01*
X37766Y-42463D01*
X37715Y-42559D01*
X37646Y-42643D01*
X37562Y-42713D01*
X37466Y-42765D01*
X37362Y-42797D01*
X37253Y-42808D01*
X37146Y-42799D01*
X37041Y-42768D01*
X36944Y-42717D01*
X36859Y-42649D01*
X36789Y-42565D01*
X36737Y-42470D01*
X36704Y-42366D01*
X36692Y-42257D01*
X36701Y-42150D01*
X36731Y-42045D01*
X36781Y-41948D01*
X36848Y-41862D01*
X36931Y-41791D01*
X37027Y-41738D01*
X37130Y-41705D01*
X37239Y-41692D01*
X37347Y-41700D01*
X37452Y-41729D01*
X37549Y-41779D01*
X37635Y-41846D01*
X37706Y-41928D01*
X37760Y-42023D01*
X37795Y-42127D01*
X37808Y-42235D01*
X37809Y-42250D01*
G54D13*
X44100Y-42400D02*
X44100Y-41900D01*
X44100Y-41900D02*
X43100Y-41900D01*
X43100Y-41900D02*
X43100Y-42400D01*
X44600Y-42400D02*
X44600Y-38400D01*
X44600Y-38400D02*
X42600Y-38400D01*
X42600Y-38400D02*
X42600Y-42400D01*
X42600Y-42400D02*
X44600Y-42400D01*
G54D12*
X38250Y-41250D02*
X39250Y-41250D01*
X38809Y-41250D02*
X38798Y-41358D01*
X38766Y-41463D01*
X38715Y-41559D01*
X38646Y-41643D01*
X38562Y-41713D01*
X38466Y-41765D01*
X38362Y-41797D01*
X38253Y-41808D01*
X38146Y-41799D01*
X38041Y-41768D01*
X37944Y-41717D01*
X37859Y-41649D01*
X37789Y-41565D01*
X37737Y-41470D01*
X37704Y-41366D01*
X37692Y-41257D01*
X37701Y-41150D01*
X37731Y-41045D01*
X37781Y-40948D01*
X37848Y-40862D01*
X37931Y-40791D01*
X38027Y-40738D01*
X38130Y-40705D01*
X38239Y-40692D01*
X38347Y-40700D01*
X38452Y-40729D01*
X38549Y-40779D01*
X38635Y-40846D01*
X38706Y-40928D01*
X38760Y-41023D01*
X38795Y-41127D01*
X38808Y-41235D01*
X38809Y-41250D01*
X38300Y-40000D02*
X39300Y-40000D01*
X38859Y-40000D02*
X38848Y-40108D01*
X38816Y-40213D01*
X38765Y-40309D01*
X38696Y-40393D01*
X38612Y-40463D01*
X38516Y-40515D01*
X38412Y-40547D01*
X38303Y-40558D01*
X38196Y-40549D01*
X38091Y-40518D01*
X37994Y-40467D01*
X37909Y-40399D01*
X37839Y-40315D01*
X37787Y-40220D01*
X37754Y-40116D01*
X37742Y-40007D01*
X37751Y-39900D01*
X37781Y-39795D01*
X37831Y-39698D01*
X37898Y-39612D01*
X37981Y-39541D01*
X38077Y-39488D01*
X38180Y-39455D01*
X38289Y-39442D01*
X38397Y-39450D01*
X38502Y-39479D01*
X38599Y-39529D01*
X38685Y-39596D01*
X38756Y-39678D01*
X38810Y-39773D01*
X38845Y-39877D01*
X38858Y-39985D01*
X38859Y-40000D01*
G54D14*
X40200Y-41900D02*
X40200Y-41600D01*
X40200Y-41600D02*
X39800Y-41600D01*
X39800Y-41600D02*
X39800Y-39200D01*
X39800Y-39200D02*
X40200Y-39200D01*
X40200Y-39200D02*
X40200Y-38900D01*
X40200Y-39200D02*
X40600Y-39200D01*
X40600Y-39200D02*
X40600Y-41600D01*
X40600Y-41600D02*
X40200Y-41600D01*
X39800Y-41400D02*
X40600Y-41400D01*
X40600Y-41300D02*
X39800Y-41300D01*
G54D12*
X37200Y-38900D02*
X37200Y-39900D01*
X37759Y-38900D02*
X37748Y-39008D01*
X37716Y-39113D01*
X37665Y-39209D01*
X37596Y-39293D01*
X37512Y-39363D01*
X37416Y-39415D01*
X37312Y-39447D01*
X37203Y-39458D01*
X37096Y-39449D01*
X36991Y-39418D01*
X36894Y-39367D01*
X36809Y-39299D01*
X36739Y-39215D01*
X36687Y-39120D01*
X36654Y-39016D01*
X36642Y-38907D01*
X36651Y-38800D01*
X36681Y-38695D01*
X36731Y-38598D01*
X36798Y-38512D01*
X36881Y-38441D01*
X36977Y-38388D01*
X37080Y-38355D01*
X37189Y-38342D01*
X37297Y-38350D01*
X37402Y-38379D01*
X37499Y-38429D01*
X37585Y-38496D01*
X37656Y-38578D01*
X37710Y-38673D01*
X37745Y-38777D01*
X37758Y-38885D01*
X37759Y-38900D01*
G54D15*
X36473Y-42067D02*
X36211Y-41900D01*
X36473Y-41781D02*
X35923Y-41781D01*
X35923Y-41972D01*
X35949Y-42019D01*
X35975Y-42043D01*
X36027Y-42067D01*
X36106Y-42067D01*
X36158Y-42043D01*
X36185Y-42019D01*
X36211Y-41972D01*
X36211Y-41781D01*
X36473Y-42543D02*
X36473Y-42257D01*
X36473Y-42400D02*
X35923Y-42400D01*
X36001Y-42352D01*
X36054Y-42305D01*
X36080Y-42257D01*
X44039Y-43102D02*
X44039Y-42602D01*
X43568Y-43055D02*
X43589Y-43079D01*
X43653Y-43102D01*
X43696Y-43102D01*
X43761Y-43079D01*
X43803Y-43031D01*
X43825Y-42983D01*
X43846Y-42888D01*
X43846Y-42817D01*
X43825Y-42721D01*
X43803Y-42674D01*
X43761Y-42626D01*
X43696Y-42602D01*
X43653Y-42602D01*
X43589Y-42626D01*
X43568Y-42650D01*
X43139Y-43102D02*
X43396Y-43102D01*
X43268Y-43102D02*
X43268Y-42602D01*
X43311Y-42674D01*
X43353Y-42721D01*
X43396Y-42745D01*
X43660Y-38105D02*
X43660Y-38296D01*
X43802Y-38067D02*
X43302Y-38200D01*
X43802Y-38334D01*
X43302Y-38410D02*
X43302Y-38639D01*
X43802Y-38524D02*
X43302Y-38524D01*
X43302Y-38715D02*
X43302Y-38944D01*
X43802Y-38829D02*
X43302Y-38829D01*
X43802Y-39077D02*
X43302Y-39077D01*
X43802Y-39267D02*
X43302Y-39267D01*
X43802Y-39496D01*
X43302Y-39496D01*
X43564Y-39762D02*
X43802Y-39762D01*
X43302Y-39629D02*
X43564Y-39762D01*
X43302Y-39896D01*
X43517Y-40086D02*
X43493Y-40048D01*
X43469Y-40029D01*
X43421Y-40010D01*
X43398Y-40010D01*
X43350Y-40029D01*
X43326Y-40048D01*
X43302Y-40086D01*
X43302Y-40163D01*
X43326Y-40201D01*
X43350Y-40220D01*
X43398Y-40239D01*
X43421Y-40239D01*
X43469Y-40220D01*
X43493Y-40201D01*
X43517Y-40163D01*
X43517Y-40086D01*
X43540Y-40048D01*
X43564Y-40029D01*
X43612Y-40010D01*
X43707Y-40010D01*
X43755Y-40029D01*
X43779Y-40048D01*
X43802Y-40086D01*
X43802Y-40163D01*
X43779Y-40201D01*
X43755Y-40220D01*
X43707Y-40239D01*
X43612Y-40239D01*
X43564Y-40220D01*
X43540Y-40201D01*
X43517Y-40163D01*
X43302Y-40601D02*
X43302Y-40410D01*
X43540Y-40391D01*
X43517Y-40410D01*
X43493Y-40448D01*
X43493Y-40544D01*
X43517Y-40582D01*
X43540Y-40601D01*
X43588Y-40620D01*
X43707Y-40620D01*
X43755Y-40601D01*
X43779Y-40582D01*
X43802Y-40544D01*
X43802Y-40448D01*
X43779Y-40410D01*
X43755Y-40391D01*
X43612Y-40791D02*
X43612Y-41096D01*
X43350Y-41267D02*
X43326Y-41286D01*
X43302Y-41324D01*
X43302Y-41420D01*
X43326Y-41458D01*
X43350Y-41477D01*
X43398Y-41496D01*
X43445Y-41496D01*
X43517Y-41477D01*
X43802Y-41248D01*
X43802Y-41496D01*
X43302Y-41743D02*
X43302Y-41782D01*
X43326Y-41820D01*
X43350Y-41839D01*
X43398Y-41858D01*
X43493Y-41877D01*
X43612Y-41877D01*
X43707Y-41858D01*
X43755Y-41839D01*
X43779Y-41820D01*
X43802Y-41782D01*
X43802Y-41743D01*
X43779Y-41705D01*
X43755Y-41686D01*
X43707Y-41667D01*
X43612Y-41648D01*
X43493Y-41648D01*
X43398Y-41667D01*
X43350Y-41686D01*
X43326Y-41705D01*
X43302Y-41743D01*
X43802Y-42048D02*
X43302Y-42048D01*
X43302Y-42201D01*
X43326Y-42239D01*
X43350Y-42258D01*
X43398Y-42277D01*
X43469Y-42277D01*
X43517Y-42258D01*
X43540Y-42239D01*
X43564Y-42201D01*
X43564Y-42048D01*
X43302Y-42448D02*
X43707Y-42448D01*
X43755Y-42467D01*
X43779Y-42486D01*
X43802Y-42524D01*
X43802Y-42601D01*
X43779Y-42639D01*
X43755Y-42658D01*
X43707Y-42677D01*
X43302Y-42677D01*
X38433Y-40473D02*
X38600Y-40211D01*
X38719Y-40473D02*
X38719Y-39923D01*
X38528Y-39923D01*
X38481Y-39949D01*
X38457Y-39975D01*
X38433Y-40027D01*
X38433Y-40106D01*
X38457Y-40158D01*
X38481Y-40185D01*
X38528Y-40211D01*
X38719Y-40211D01*
X38243Y-39975D02*
X38219Y-39949D01*
X38171Y-39923D01*
X38052Y-39923D01*
X38005Y-39949D01*
X37981Y-39975D01*
X37957Y-40027D01*
X37957Y-40080D01*
X37981Y-40158D01*
X38267Y-40473D01*
X37957Y-40473D01*
X38483Y-39223D02*
X38650Y-38961D01*
X38769Y-39223D02*
X38769Y-38673D01*
X38578Y-38673D01*
X38531Y-38699D01*
X38507Y-38725D01*
X38483Y-38777D01*
X38483Y-38856D01*
X38507Y-38908D01*
X38531Y-38935D01*
X38578Y-38961D01*
X38769Y-38961D01*
X38317Y-38673D02*
X38007Y-38673D01*
X38174Y-38882D01*
X38102Y-38882D01*
X38055Y-38908D01*
X38031Y-38935D01*
X38007Y-38987D01*
X38007Y-39118D01*
X38031Y-39170D01*
X38055Y-39196D01*
X38102Y-39223D01*
X38245Y-39223D01*
X38293Y-39196D01*
X38317Y-39170D01*
X40362Y-40105D02*
X39962Y-40105D01*
X39962Y-40200D01*
X39981Y-40258D01*
X40019Y-40296D01*
X40057Y-40315D01*
X40133Y-40334D01*
X40190Y-40334D01*
X40267Y-40315D01*
X40305Y-40296D01*
X40343Y-40258D01*
X40362Y-40200D01*
X40362Y-40105D01*
X40362Y-40715D02*
X40362Y-40486D01*
X40362Y-40600D02*
X39962Y-40600D01*
X40019Y-40562D01*
X40057Y-40524D01*
X40076Y-40486D01*
X38423Y-38631D02*
X37873Y-38631D01*
X37873Y-38750D01*
X37899Y-38822D01*
X37951Y-38869D01*
X38004Y-38893D01*
X38108Y-38917D01*
X38187Y-38917D01*
X38292Y-38893D01*
X38344Y-38869D01*
X38396Y-38822D01*
X38423Y-38750D01*
X38423Y-38631D01*
X37925Y-39107D02*
X37899Y-39131D01*
X37873Y-39179D01*
X37873Y-39298D01*
X37899Y-39345D01*
X37925Y-39369D01*
X37977Y-39393D01*
X38030Y-39393D01*
X38108Y-39369D01*
X38423Y-39083D01*
X38423Y-39393D01*
M02*
