M48
;DRILL file {Pcbnew (2012-apr-16-27)-stable} date Tue 13 Aug 2013 04:49:07 PM IST
;FORMAT={-:-/ absolute / inch / decimal}
FMAT,2
INCH,TZ
T1C0.025
T2C0.032
T3C0.040
%
G90
G05
M72
T1
X4.450Y4.050
T2
X4.050Y3.825
X4.050Y3.950
X4.075Y4.050
X4.075Y4.200
X4.075Y4.350
X4.150Y3.825
X4.150Y3.950
X4.175Y4.050
X4.175Y4.200
X4.175Y4.350
X4.275Y3.850
X4.275Y3.950
X4.275Y4.050
X4.275Y4.150
X4.575Y3.850
X4.575Y3.950
X4.575Y4.050
X4.575Y4.150
T3
X4.375Y4.325
X4.475Y4.325
X4.700Y3.825
X4.700Y3.925
X4.700Y4.025
X4.700Y4.125
X4.700Y4.225
X4.700Y4.325
T0
M30
