G04 (created by PCBNEW-RS274X (2012-apr-16-27)-stable) date Fri 16 Aug 2013 02:43:40 PM IST*
G01*
G70*
G90*
%MOIN*%
G04 Gerber Fmt 3.4, Leading zero omitted, Abs format*
%FSLAX34Y34*%
G04 APERTURE LIST*
%ADD10C,0.006000*%
%ADD11C,0.015000*%
%ADD12R,0.295200X0.059000*%
%ADD13R,0.255900X0.039300*%
%ADD14C,0.074000*%
%ADD15C,0.055000*%
%ADD16R,0.055000X0.055000*%
%ADD17C,0.016000*%
G04 APERTURE END LIST*
G54D10*
G54D11*
X36500Y-43250D02*
X36500Y-38250D01*
X40000Y-43250D02*
X36500Y-43250D01*
X40000Y-43500D02*
X40000Y-43250D01*
X52000Y-43500D02*
X40000Y-43500D01*
X52000Y-35750D02*
X52000Y-43500D01*
X40000Y-35750D02*
X52000Y-35750D01*
X40000Y-38250D02*
X40000Y-35750D01*
X36500Y-38250D02*
X40000Y-38250D01*
G54D12*
X38422Y-42127D03*
X38422Y-39373D03*
G54D13*
X38618Y-41143D03*
X38618Y-40357D03*
G54D14*
X50750Y-42500D03*
X50750Y-41500D03*
X50750Y-40500D03*
X50750Y-39500D03*
X50750Y-38500D03*
X50750Y-37500D03*
X47500Y-42750D03*
X46500Y-42750D03*
G54D15*
X44500Y-42750D03*
X44500Y-41750D03*
X41000Y-39250D03*
X41000Y-40250D03*
X42000Y-42750D03*
X43000Y-42750D03*
X42000Y-41000D03*
X43000Y-41000D03*
X42000Y-37250D03*
X43000Y-37250D03*
G54D16*
X45500Y-37250D03*
G54D15*
X45500Y-38250D03*
X45500Y-39250D03*
X45500Y-40250D03*
X48500Y-40250D03*
X48500Y-39250D03*
X48500Y-38250D03*
X48500Y-37250D03*
G54D17*
X42000Y-42750D02*
X42500Y-42250D01*
X45250Y-42000D02*
X46750Y-42000D01*
X47500Y-42000D02*
X46000Y-40500D01*
X46000Y-40500D02*
X46000Y-39750D01*
X46000Y-39750D02*
X45000Y-39750D01*
X45000Y-39750D02*
X45000Y-36750D01*
X45000Y-36750D02*
X47750Y-36750D01*
X47750Y-36750D02*
X48250Y-37250D01*
X48250Y-37250D02*
X48500Y-37250D01*
X42500Y-42250D02*
X45000Y-42250D01*
X45000Y-42250D02*
X45250Y-42000D01*
X46750Y-42000D02*
X47500Y-42750D01*
X38422Y-42127D02*
X38500Y-42250D01*
X38500Y-42250D02*
X39000Y-42750D01*
X39000Y-42750D02*
X42000Y-42750D01*
X47500Y-42750D02*
X47500Y-42000D01*
X41500Y-39750D02*
X41000Y-40250D01*
X41000Y-40250D02*
X38500Y-40250D01*
X38500Y-40250D02*
X38618Y-40357D01*
X41500Y-37750D02*
X41500Y-39750D01*
X42000Y-37250D02*
X41500Y-37750D01*
X38500Y-41250D02*
X38618Y-41143D01*
X42000Y-41000D02*
X41750Y-41250D01*
X41750Y-41250D02*
X38500Y-41250D01*
X45000Y-40250D02*
X45500Y-40250D01*
X41000Y-39250D02*
X41000Y-37500D01*
X41000Y-37500D02*
X41500Y-37000D01*
X41500Y-37000D02*
X41500Y-36750D01*
X41500Y-36750D02*
X42500Y-36750D01*
X42500Y-36750D02*
X42500Y-37750D01*
X42500Y-37750D02*
X45000Y-40250D01*
X38500Y-39250D02*
X41000Y-39250D01*
X44500Y-42750D02*
X46500Y-42750D01*
X38422Y-39373D02*
X38500Y-39250D01*
X50750Y-41500D02*
X48500Y-39250D01*
X48500Y-40250D02*
X50750Y-42500D01*
X47500Y-37250D02*
X45500Y-37250D01*
X48000Y-37750D02*
X47500Y-37250D01*
X50750Y-37500D02*
X50500Y-37750D01*
X50500Y-37750D02*
X48000Y-37750D01*
X50750Y-38500D02*
X50500Y-38750D01*
X50500Y-38750D02*
X48000Y-38750D01*
X48000Y-38750D02*
X47500Y-39250D01*
X47500Y-39250D02*
X45500Y-39250D01*
M02*
