G04 (created by PCBNEW-RS274X (2012-apr-16-27)-stable) date Fri 16 Aug 2013 02:43:40 PM IST*
G01*
G70*
G90*
%MOIN*%
G04 Gerber Fmt 3.4, Leading zero omitted, Abs format*
%FSLAX34Y34*%
G04 APERTURE LIST*
%ADD10C,0.006000*%
%ADD11C,0.015000*%
%ADD12C,0.074000*%
%ADD13C,0.055000*%
%ADD14R,0.055000X0.055000*%
%ADD15C,0.016000*%
G04 APERTURE END LIST*
G54D10*
G54D11*
X36500Y-43250D02*
X36500Y-38250D01*
X40000Y-43250D02*
X36500Y-43250D01*
X40000Y-43500D02*
X40000Y-43250D01*
X52000Y-43500D02*
X40000Y-43500D01*
X52000Y-35750D02*
X52000Y-43500D01*
X40000Y-35750D02*
X52000Y-35750D01*
X40000Y-38250D02*
X40000Y-35750D01*
X36500Y-38250D02*
X40000Y-38250D01*
G54D12*
X50750Y-42500D03*
X50750Y-41500D03*
X50750Y-40500D03*
X50750Y-39500D03*
X50750Y-38500D03*
X50750Y-37500D03*
X47500Y-42750D03*
X46500Y-42750D03*
G54D13*
X44500Y-42750D03*
X44500Y-41750D03*
X41000Y-39250D03*
X41000Y-40250D03*
X42000Y-42750D03*
X43000Y-42750D03*
X42000Y-41000D03*
X43000Y-41000D03*
X42000Y-37250D03*
X43000Y-37250D03*
G54D14*
X45500Y-37250D03*
G54D13*
X45500Y-38250D03*
X45500Y-39250D03*
X45500Y-40250D03*
X48500Y-40250D03*
X48500Y-39250D03*
X48500Y-38250D03*
X48500Y-37250D03*
G54D15*
X43000Y-42000D02*
X43000Y-42750D01*
X42000Y-41000D02*
X43000Y-42000D01*
X44250Y-41750D02*
X44500Y-41750D01*
X43500Y-42500D02*
X44250Y-41750D01*
X43250Y-42500D02*
X43500Y-42500D01*
X43000Y-42750D02*
X43250Y-42500D01*
X45000Y-42250D02*
X44500Y-42750D01*
X45000Y-40750D02*
X45000Y-42250D01*
X45500Y-40250D02*
X45000Y-40750D01*
X50750Y-40500D02*
X51500Y-39750D01*
X51500Y-39750D02*
X51500Y-37250D01*
X51500Y-37250D02*
X51000Y-36750D01*
X51000Y-36750D02*
X50500Y-36750D01*
X50500Y-36750D02*
X49000Y-38250D01*
X49000Y-38250D02*
X48500Y-38250D01*
X45500Y-39250D02*
X43500Y-37250D01*
X43500Y-37250D02*
X43000Y-37250D01*
X47500Y-38250D02*
X45500Y-38250D01*
X48000Y-38750D02*
X47500Y-38250D01*
X50000Y-38750D02*
X48000Y-38750D01*
X50750Y-39500D02*
X50000Y-38750D01*
X43750Y-41000D02*
X43000Y-41000D01*
X45000Y-39750D02*
X43750Y-41000D01*
X46000Y-39750D02*
X45000Y-39750D01*
X46000Y-38750D02*
X46000Y-39750D01*
X45750Y-38750D02*
X46000Y-38750D01*
X45750Y-38500D02*
X45750Y-38750D01*
X45500Y-38250D02*
X45750Y-38500D01*
M02*
