M48
;DRILL file {Pcbnew (2012-apr-16-27)-stable} date Fri 16 Aug 2013 02:43:53 PM IST
;FORMAT={-:-/ absolute / inch / decimal}
FMAT,2
INCH,TZ
T1C0.032
T2C0.040
%
G90
G05
M72
T1
X4.100Y3.925
X4.100Y4.025
X4.200Y3.725
X4.200Y4.100
X4.200Y4.275
X4.300Y3.725
X4.300Y4.100
X4.300Y4.275
X4.450Y4.175
X4.450Y4.275
X4.550Y3.725
X4.550Y3.825
X4.550Y3.925
X4.550Y4.025
X4.850Y3.725
X4.850Y3.825
X4.850Y3.925
X4.850Y4.025
T2
X4.650Y4.275
X4.750Y4.275
X5.075Y3.750
X5.075Y3.850
X5.075Y3.950
X5.075Y4.050
X5.075Y4.150
X5.075Y4.250
T0
M30
