G04 (created by PCBNEW-RS274X (2012-apr-16-27)-stable) date Fri 23 Aug 2013 11:32:02 AM IST*
G01*
G70*
G90*
%MOIN*%
G04 Gerber Fmt 3.4, Leading zero omitted, Abs format*
%FSLAX34Y34*%
G04 APERTURE LIST*
%ADD10C,0.006000*%
%ADD11C,0.015000*%
%ADD12C,0.055000*%
%ADD13R,0.055000X0.055000*%
%ADD14C,0.074000*%
%ADD15C,0.016000*%
G04 APERTURE END LIST*
G54D10*
G54D11*
X33000Y-43250D02*
X33000Y-38250D01*
X47000Y-43250D02*
X33000Y-43250D01*
X47000Y-38250D02*
X47000Y-43250D01*
X33000Y-38250D02*
X47000Y-38250D01*
G54D12*
X40250Y-42250D03*
X39250Y-42250D03*
X37250Y-39000D03*
X38250Y-39000D03*
X37250Y-42500D03*
X38250Y-42500D03*
G54D13*
X42500Y-39250D03*
G54D12*
X42500Y-40250D03*
X42500Y-41250D03*
X42500Y-42250D03*
X45500Y-42250D03*
X45500Y-41250D03*
X45500Y-40250D03*
X45500Y-39250D03*
G54D14*
X46500Y-41250D03*
X46500Y-40250D03*
X46500Y-39250D03*
X41500Y-40250D03*
X41500Y-41250D03*
X41500Y-42250D03*
G54D12*
X37000Y-41250D03*
X40000Y-41250D03*
X37000Y-40250D03*
X40000Y-40250D03*
G54D15*
X44500Y-43000D02*
X44500Y-40250D01*
X37250Y-42500D02*
X37500Y-42500D01*
X37500Y-42500D02*
X38000Y-43000D01*
X44500Y-43000D02*
X38000Y-43000D01*
X44500Y-40250D02*
X45500Y-39250D01*
X45500Y-39250D02*
X45750Y-39250D01*
X45750Y-39250D02*
X45500Y-39250D01*
X45500Y-39250D02*
X46500Y-39250D01*
X38250Y-39000D02*
X37000Y-40250D01*
X38250Y-42500D02*
X39000Y-42500D01*
X39000Y-42500D02*
X39250Y-42250D01*
X37250Y-41250D02*
X38250Y-42250D01*
X38250Y-42250D02*
X38250Y-42500D01*
X37000Y-41250D02*
X37250Y-41250D01*
X37250Y-39000D02*
X37250Y-38750D01*
X39250Y-41250D02*
X40250Y-42250D01*
X39250Y-38750D02*
X39250Y-41250D01*
X39000Y-38500D02*
X39250Y-38750D01*
X37500Y-38500D02*
X39000Y-38500D01*
X37250Y-38750D02*
X37500Y-38500D01*
X40250Y-42250D02*
X41500Y-42250D01*
X41500Y-42250D02*
X42500Y-42250D01*
X41500Y-40250D02*
X42500Y-40250D01*
X41500Y-40250D02*
X40500Y-41250D01*
X40500Y-41250D02*
X40000Y-41250D01*
X45500Y-40250D02*
X46500Y-40250D01*
X42500Y-39250D02*
X41500Y-39250D01*
X45500Y-41250D02*
X46500Y-41250D01*
X46500Y-42250D02*
X45500Y-42250D01*
X42500Y-41250D02*
X43500Y-41250D01*
X40750Y-38500D02*
X43250Y-38500D01*
X40000Y-39250D02*
X40750Y-38500D01*
X40000Y-39250D02*
X40000Y-40250D01*
X43250Y-38500D02*
X43500Y-38750D01*
X43500Y-41250D02*
X43500Y-38750D01*
X41500Y-41250D02*
X42500Y-41250D01*
M02*
