G04 (created by PCBNEW-RS274X (2012-apr-16-27)-stable) date Tue 13 Aug 2013 04:48:36 PM IST*
G01*
G70*
G90*
%MOIN*%
G04 Gerber Fmt 3.4, Leading zero omitted, Abs format*
%FSLAX34Y34*%
G04 APERTURE LIST*
%ADD10C,0.006000*%
%ADD11C,0.015000*%
%ADD12C,0.074000*%
%ADD13C,0.055000*%
%ADD14R,0.055000X0.055000*%
%ADD15C,0.035000*%
%ADD16C,0.016000*%
%ADD17C,0.010000*%
G04 APERTURE END LIST*
G54D10*
G54D11*
X36500Y-43250D02*
X36500Y-38250D01*
X40000Y-43250D02*
X36500Y-43250D01*
X40000Y-43500D02*
X40000Y-43250D01*
X40000Y-44250D02*
X40000Y-43500D01*
X47500Y-44250D02*
X40000Y-44250D01*
X47500Y-44000D02*
X47500Y-44250D01*
X47500Y-37500D02*
X47500Y-44000D01*
X40000Y-37500D02*
X47500Y-37500D01*
X40000Y-38250D02*
X40000Y-37500D01*
X36500Y-38250D02*
X40000Y-38250D01*
G54D12*
X47000Y-43250D03*
X47000Y-42250D03*
X47000Y-41250D03*
X47000Y-40250D03*
X47000Y-39250D03*
X47000Y-38250D03*
X44750Y-43250D03*
X43750Y-43250D03*
G54D13*
X41500Y-38250D03*
X40500Y-38250D03*
X41500Y-39500D03*
X40500Y-39500D03*
X40750Y-43500D03*
X41750Y-43500D03*
X40750Y-42000D03*
X41750Y-42000D03*
X40750Y-40500D03*
X41750Y-40500D03*
G54D14*
X42750Y-38500D03*
G54D13*
X42750Y-39500D03*
X42750Y-40500D03*
X42750Y-41500D03*
X45750Y-41500D03*
X45750Y-40500D03*
X45750Y-39500D03*
X45750Y-38500D03*
G54D15*
X44500Y-40500D03*
G54D16*
X40250Y-40250D02*
X40000Y-40000D01*
X41500Y-42750D02*
X41500Y-43250D01*
X41500Y-43250D02*
X41750Y-43500D01*
X41000Y-42750D02*
X41500Y-42750D01*
X41000Y-42500D02*
X41000Y-42750D01*
X40750Y-42000D02*
X40750Y-41500D01*
X40750Y-41500D02*
X40250Y-41000D01*
X40250Y-41000D02*
X40250Y-40250D01*
X40000Y-40000D02*
X40000Y-38750D01*
X40750Y-42000D02*
X40750Y-42250D01*
X40000Y-38750D02*
X40500Y-38250D01*
X40750Y-42250D02*
X41000Y-42500D01*
X41250Y-38500D02*
X41500Y-38250D01*
X41250Y-39250D02*
X41250Y-38500D01*
X42000Y-40000D02*
X42250Y-40000D01*
X43000Y-41750D02*
X43500Y-41750D01*
X43500Y-43000D02*
X43750Y-43250D01*
X42750Y-41500D02*
X43000Y-41750D01*
X41500Y-39500D02*
X41250Y-39250D01*
X43500Y-41750D02*
X43500Y-43000D01*
X41500Y-39500D02*
X42000Y-40000D01*
X42250Y-41000D02*
X42750Y-41500D01*
X42250Y-40000D02*
X42250Y-41000D01*
X47000Y-42250D02*
X46250Y-41500D01*
X46250Y-41500D02*
X46250Y-41000D01*
X46250Y-41000D02*
X45750Y-40500D01*
X47000Y-38250D02*
X46500Y-37750D01*
X46500Y-37750D02*
X44500Y-37750D01*
X44500Y-37750D02*
X43750Y-38500D01*
X43750Y-38500D02*
X42750Y-38500D01*
X44500Y-40500D02*
X42750Y-40500D01*
X47000Y-40250D02*
X46750Y-40000D01*
X46750Y-40000D02*
X45250Y-40000D01*
X45250Y-40000D02*
X44750Y-39500D01*
X44750Y-39500D02*
X42750Y-39500D01*
G54D10*
G36*
X40432Y-43925D02*
X40325Y-43925D01*
X40325Y-43817D01*
X40432Y-43925D01*
X40432Y-43925D01*
G37*
G54D17*
X40432Y-43925D02*
X40325Y-43925D01*
X40325Y-43817D01*
X40432Y-43925D01*
G54D10*
G36*
X40525Y-40025D02*
X40496Y-40036D01*
X40488Y-40025D01*
X40525Y-40025D01*
X40525Y-40025D01*
G37*
G54D17*
X40525Y-40025D02*
X40496Y-40036D01*
X40488Y-40025D01*
X40525Y-40025D01*
G54D10*
G36*
X40761Y-42975D02*
X40646Y-42975D01*
X40453Y-43055D01*
X40313Y-43193D01*
X40300Y-43126D01*
X40230Y-43020D01*
X40124Y-42950D01*
X40000Y-42925D01*
X36825Y-42925D01*
X36825Y-38575D01*
X39727Y-38575D01*
X39695Y-38623D01*
X39670Y-38750D01*
X39670Y-40000D01*
X39695Y-40127D01*
X39767Y-40233D01*
X39920Y-40386D01*
X39920Y-41000D01*
X39945Y-41127D01*
X40017Y-41233D01*
X40395Y-41611D01*
X40305Y-41702D01*
X40225Y-41895D01*
X40225Y-42104D01*
X40305Y-42297D01*
X40452Y-42445D01*
X40506Y-42467D01*
X40517Y-42483D01*
X40670Y-42636D01*
X40670Y-42750D01*
X40695Y-42876D01*
X40761Y-42975D01*
X40761Y-42975D01*
G37*
G54D17*
X40761Y-42975D02*
X40646Y-42975D01*
X40453Y-43055D01*
X40313Y-43193D01*
X40300Y-43126D01*
X40230Y-43020D01*
X40124Y-42950D01*
X40000Y-42925D01*
X36825Y-42925D01*
X36825Y-38575D01*
X39727Y-38575D01*
X39695Y-38623D01*
X39670Y-38750D01*
X39670Y-40000D01*
X39695Y-40127D01*
X39767Y-40233D01*
X39920Y-40386D01*
X39920Y-41000D01*
X39945Y-41127D01*
X40017Y-41233D01*
X40395Y-41611D01*
X40305Y-41702D01*
X40225Y-41895D01*
X40225Y-42104D01*
X40305Y-42297D01*
X40452Y-42445D01*
X40506Y-42467D01*
X40517Y-42483D01*
X40670Y-42636D01*
X40670Y-42750D01*
X40695Y-42876D01*
X40761Y-42975D01*
G54D10*
G36*
X40920Y-39177D02*
X40798Y-39055D01*
X40605Y-38975D01*
X40396Y-38975D01*
X40330Y-39002D01*
X40330Y-38886D01*
X40441Y-38775D01*
X40604Y-38775D01*
X40797Y-38695D01*
X40920Y-38572D01*
X40920Y-39177D01*
X40920Y-39177D01*
G37*
G54D17*
X40920Y-39177D02*
X40798Y-39055D01*
X40605Y-38975D01*
X40396Y-38975D01*
X40330Y-39002D01*
X40330Y-38886D01*
X40441Y-38775D01*
X40604Y-38775D01*
X40797Y-38695D01*
X40920Y-38572D01*
X40920Y-39177D01*
G54D10*
G36*
X41170Y-43177D02*
X41072Y-43080D01*
X41170Y-43080D01*
X41170Y-43177D01*
X41170Y-43177D01*
G37*
G54D17*
X41170Y-43177D02*
X41072Y-43080D01*
X41170Y-43080D01*
X41170Y-43177D01*
G54D10*
G36*
X41182Y-37825D02*
X41055Y-37952D01*
X40999Y-38085D01*
X40945Y-37953D01*
X40817Y-37825D01*
X41182Y-37825D01*
X41182Y-37825D01*
G37*
G54D17*
X41182Y-37825D02*
X41055Y-37952D01*
X40999Y-38085D01*
X40945Y-37953D01*
X40817Y-37825D01*
X41182Y-37825D01*
G54D10*
G36*
X41427Y-42420D02*
X41314Y-42420D01*
X41305Y-42374D01*
X41304Y-42373D01*
X41280Y-42338D01*
X41233Y-42267D01*
X41233Y-42266D01*
X41215Y-42248D01*
X41250Y-42164D01*
X41305Y-42297D01*
X41427Y-42420D01*
X41427Y-42420D01*
G37*
G54D17*
X41427Y-42420D02*
X41314Y-42420D01*
X41305Y-42374D01*
X41304Y-42373D01*
X41280Y-42338D01*
X41233Y-42267D01*
X41233Y-42266D01*
X41215Y-42248D01*
X41250Y-42164D01*
X41305Y-42297D01*
X41427Y-42420D01*
G54D10*
G36*
X41432Y-43925D02*
X41067Y-43925D01*
X41195Y-43798D01*
X41250Y-43664D01*
X41305Y-43797D01*
X41432Y-43925D01*
X41432Y-43925D01*
G37*
G54D17*
X41432Y-43925D02*
X41067Y-43925D01*
X41195Y-43798D01*
X41250Y-43664D01*
X41305Y-43797D01*
X41432Y-43925D01*
G54D10*
G36*
X41525Y-40025D02*
X41453Y-40055D01*
X41305Y-40202D01*
X41249Y-40335D01*
X41195Y-40203D01*
X41048Y-40055D01*
X40855Y-39975D01*
X40724Y-39975D01*
X40797Y-39945D01*
X40945Y-39798D01*
X41000Y-39664D01*
X41055Y-39797D01*
X41202Y-39945D01*
X41395Y-40025D01*
X41525Y-40025D01*
X41525Y-40025D01*
G37*
G54D17*
X41525Y-40025D02*
X41453Y-40055D01*
X41305Y-40202D01*
X41249Y-40335D01*
X41195Y-40203D01*
X41048Y-40055D01*
X40855Y-39975D01*
X40724Y-39975D01*
X40797Y-39945D01*
X40945Y-39798D01*
X41000Y-39664D01*
X41055Y-39797D01*
X41202Y-39945D01*
X41395Y-40025D01*
X41525Y-40025D01*
G54D10*
G36*
X42585Y-40000D02*
X42580Y-40002D01*
X42580Y-40000D01*
X42579Y-39997D01*
X42585Y-40000D01*
X42585Y-40000D01*
G37*
G54D17*
X42585Y-40000D02*
X42580Y-40002D01*
X42580Y-40000D01*
X42579Y-39997D01*
X42585Y-40000D01*
G54D10*
G36*
X43958Y-37825D02*
X43613Y-38170D01*
X43271Y-38170D01*
X43236Y-38084D01*
X43166Y-38014D01*
X43075Y-37976D01*
X42976Y-37976D01*
X42426Y-37976D01*
X42334Y-38014D01*
X42264Y-38084D01*
X42226Y-38175D01*
X42226Y-38274D01*
X42226Y-38824D01*
X42264Y-38916D01*
X42334Y-38986D01*
X42425Y-39024D01*
X42524Y-39024D01*
X42453Y-39055D01*
X42305Y-39202D01*
X42225Y-39395D01*
X42225Y-39604D01*
X42252Y-39670D01*
X42250Y-39670D01*
X42136Y-39670D01*
X42025Y-39559D01*
X42025Y-39396D01*
X41945Y-39203D01*
X41798Y-39055D01*
X41605Y-38975D01*
X41580Y-38975D01*
X41580Y-38775D01*
X41604Y-38775D01*
X41797Y-38695D01*
X41945Y-38548D01*
X42025Y-38355D01*
X42025Y-38146D01*
X41945Y-37953D01*
X41817Y-37825D01*
X43958Y-37825D01*
X43958Y-37825D01*
G37*
G54D17*
X43958Y-37825D02*
X43613Y-38170D01*
X43271Y-38170D01*
X43236Y-38084D01*
X43166Y-38014D01*
X43075Y-37976D01*
X42976Y-37976D01*
X42426Y-37976D01*
X42334Y-38014D01*
X42264Y-38084D01*
X42226Y-38175D01*
X42226Y-38274D01*
X42226Y-38824D01*
X42264Y-38916D01*
X42334Y-38986D01*
X42425Y-39024D01*
X42524Y-39024D01*
X42453Y-39055D01*
X42305Y-39202D01*
X42225Y-39395D01*
X42225Y-39604D01*
X42252Y-39670D01*
X42250Y-39670D01*
X42136Y-39670D01*
X42025Y-39559D01*
X42025Y-39396D01*
X41945Y-39203D01*
X41798Y-39055D01*
X41605Y-38975D01*
X41580Y-38975D01*
X41580Y-38775D01*
X41604Y-38775D01*
X41797Y-38695D01*
X41945Y-38548D01*
X42025Y-38355D01*
X42025Y-38146D01*
X41945Y-37953D01*
X41817Y-37825D01*
X43958Y-37825D01*
G54D10*
G36*
X45585Y-39000D02*
X45453Y-39055D01*
X45305Y-39202D01*
X45225Y-39395D01*
X45225Y-39509D01*
X44983Y-39267D01*
X44877Y-39195D01*
X44750Y-39170D01*
X43162Y-39170D01*
X43048Y-39055D01*
X42973Y-39024D01*
X43074Y-39024D01*
X43166Y-38986D01*
X43236Y-38916D01*
X43271Y-38830D01*
X43750Y-38830D01*
X43876Y-38805D01*
X43877Y-38805D01*
X43983Y-38733D01*
X44636Y-38080D01*
X45427Y-38080D01*
X45305Y-38202D01*
X45225Y-38395D01*
X45225Y-38604D01*
X45305Y-38797D01*
X45452Y-38945D01*
X45585Y-39000D01*
X45585Y-39000D01*
G37*
G54D17*
X45585Y-39000D02*
X45453Y-39055D01*
X45305Y-39202D01*
X45225Y-39395D01*
X45225Y-39509D01*
X44983Y-39267D01*
X44877Y-39195D01*
X44750Y-39170D01*
X43162Y-39170D01*
X43048Y-39055D01*
X42973Y-39024D01*
X43074Y-39024D01*
X43166Y-38986D01*
X43236Y-38916D01*
X43271Y-38830D01*
X43750Y-38830D01*
X43876Y-38805D01*
X43877Y-38805D01*
X43983Y-38733D01*
X44636Y-38080D01*
X45427Y-38080D01*
X45305Y-38202D01*
X45225Y-38395D01*
X45225Y-38604D01*
X45305Y-38797D01*
X45452Y-38945D01*
X45585Y-39000D01*
G54D10*
G36*
X46623Y-38749D02*
X46475Y-38899D01*
X46380Y-39126D01*
X46380Y-39373D01*
X46474Y-39601D01*
X46543Y-39670D01*
X46248Y-39670D01*
X46275Y-39605D01*
X46275Y-39396D01*
X46195Y-39203D01*
X46048Y-39055D01*
X45914Y-38999D01*
X46047Y-38945D01*
X46195Y-38798D01*
X46275Y-38605D01*
X46275Y-38396D01*
X46195Y-38203D01*
X46072Y-38080D01*
X46364Y-38080D01*
X46388Y-38104D01*
X46380Y-38126D01*
X46380Y-38373D01*
X46474Y-38601D01*
X46623Y-38749D01*
X46623Y-38749D01*
G37*
G54D17*
X46623Y-38749D02*
X46475Y-38899D01*
X46380Y-39126D01*
X46380Y-39373D01*
X46474Y-39601D01*
X46543Y-39670D01*
X46248Y-39670D01*
X46275Y-39605D01*
X46275Y-39396D01*
X46195Y-39203D01*
X46048Y-39055D01*
X45914Y-38999D01*
X46047Y-38945D01*
X46195Y-38798D01*
X46275Y-38605D01*
X46275Y-38396D01*
X46195Y-38203D01*
X46072Y-38080D01*
X46364Y-38080D01*
X46388Y-38104D01*
X46380Y-38126D01*
X46380Y-38373D01*
X46474Y-38601D01*
X46623Y-38749D01*
G54D10*
G36*
X46623Y-40749D02*
X46533Y-40840D01*
X46532Y-40840D01*
X46483Y-40767D01*
X46275Y-40559D01*
X46275Y-40396D01*
X46247Y-40330D01*
X46380Y-40330D01*
X46380Y-40373D01*
X46474Y-40601D01*
X46623Y-40749D01*
X46623Y-40749D01*
G37*
G54D17*
X46623Y-40749D02*
X46533Y-40840D01*
X46532Y-40840D01*
X46483Y-40767D01*
X46275Y-40559D01*
X46275Y-40396D01*
X46247Y-40330D01*
X46380Y-40330D01*
X46380Y-40373D01*
X46474Y-40601D01*
X46623Y-40749D01*
G54D10*
G36*
X47175Y-43925D02*
X42067Y-43925D01*
X42195Y-43798D01*
X42275Y-43605D01*
X42275Y-43396D01*
X42195Y-43203D01*
X42048Y-43055D01*
X41855Y-42975D01*
X41830Y-42975D01*
X41830Y-42750D01*
X41805Y-42624D01*
X41738Y-42525D01*
X41854Y-42525D01*
X42047Y-42445D01*
X42195Y-42298D01*
X42275Y-42105D01*
X42275Y-41896D01*
X42195Y-41703D01*
X42048Y-41555D01*
X41855Y-41475D01*
X41646Y-41475D01*
X41453Y-41555D01*
X41305Y-41702D01*
X41249Y-41835D01*
X41195Y-41703D01*
X41080Y-41587D01*
X41080Y-41500D01*
X41058Y-41394D01*
X41055Y-41374D01*
X41055Y-41373D01*
X40983Y-41267D01*
X40741Y-41025D01*
X40854Y-41025D01*
X41047Y-40945D01*
X41195Y-40798D01*
X41250Y-40664D01*
X41305Y-40797D01*
X41452Y-40945D01*
X41645Y-41025D01*
X41854Y-41025D01*
X41920Y-40997D01*
X41920Y-41000D01*
X41945Y-41127D01*
X42017Y-41233D01*
X42225Y-41441D01*
X42225Y-41604D01*
X42305Y-41797D01*
X42452Y-41945D01*
X42645Y-42025D01*
X42829Y-42025D01*
X42838Y-42030D01*
X42873Y-42054D01*
X42874Y-42055D01*
X43000Y-42080D01*
X43170Y-42080D01*
X43170Y-43000D01*
X43174Y-43020D01*
X43130Y-43126D01*
X43130Y-43373D01*
X43224Y-43601D01*
X43399Y-43775D01*
X43626Y-43870D01*
X43873Y-43870D01*
X44101Y-43776D01*
X44249Y-43626D01*
X44399Y-43775D01*
X44626Y-43870D01*
X44873Y-43870D01*
X45101Y-43776D01*
X45275Y-43601D01*
X45370Y-43374D01*
X45370Y-43127D01*
X45276Y-42899D01*
X45101Y-42725D01*
X44874Y-42630D01*
X44627Y-42630D01*
X44399Y-42724D01*
X44250Y-42873D01*
X44101Y-42725D01*
X43874Y-42630D01*
X43830Y-42630D01*
X43830Y-41750D01*
X43805Y-41624D01*
X43733Y-41517D01*
X43626Y-41445D01*
X43500Y-41420D01*
X43275Y-41420D01*
X43275Y-41396D01*
X43195Y-41203D01*
X43048Y-41055D01*
X42914Y-40999D01*
X43047Y-40945D01*
X43162Y-40830D01*
X44229Y-40830D01*
X44259Y-40860D01*
X44415Y-40925D01*
X44584Y-40925D01*
X44740Y-40861D01*
X44860Y-40741D01*
X44925Y-40585D01*
X44925Y-40416D01*
X44861Y-40260D01*
X44741Y-40140D01*
X44585Y-40075D01*
X44416Y-40075D01*
X44260Y-40139D01*
X44229Y-40170D01*
X43162Y-40170D01*
X43048Y-40055D01*
X42914Y-39999D01*
X43047Y-39945D01*
X43162Y-39830D01*
X44614Y-39830D01*
X45017Y-40233D01*
X45123Y-40305D01*
X45124Y-40305D01*
X45144Y-40308D01*
X45250Y-40330D01*
X45225Y-40395D01*
X45225Y-40604D01*
X45305Y-40797D01*
X45452Y-40945D01*
X45585Y-41000D01*
X45453Y-41055D01*
X45305Y-41202D01*
X45225Y-41395D01*
X45225Y-41604D01*
X45305Y-41797D01*
X45452Y-41945D01*
X45645Y-42025D01*
X45854Y-42025D01*
X46047Y-41945D01*
X46138Y-41854D01*
X46388Y-42105D01*
X46380Y-42126D01*
X46380Y-42373D01*
X46474Y-42601D01*
X46623Y-42749D01*
X46475Y-42899D01*
X46380Y-43126D01*
X46380Y-43373D01*
X46474Y-43601D01*
X46649Y-43775D01*
X46876Y-43870D01*
X47123Y-43870D01*
X47175Y-43848D01*
X47175Y-43925D01*
X47175Y-43925D01*
G37*
G54D17*
X47175Y-43925D02*
X42067Y-43925D01*
X42195Y-43798D01*
X42275Y-43605D01*
X42275Y-43396D01*
X42195Y-43203D01*
X42048Y-43055D01*
X41855Y-42975D01*
X41830Y-42975D01*
X41830Y-42750D01*
X41805Y-42624D01*
X41738Y-42525D01*
X41854Y-42525D01*
X42047Y-42445D01*
X42195Y-42298D01*
X42275Y-42105D01*
X42275Y-41896D01*
X42195Y-41703D01*
X42048Y-41555D01*
X41855Y-41475D01*
X41646Y-41475D01*
X41453Y-41555D01*
X41305Y-41702D01*
X41249Y-41835D01*
X41195Y-41703D01*
X41080Y-41587D01*
X41080Y-41500D01*
X41058Y-41394D01*
X41055Y-41374D01*
X41055Y-41373D01*
X40983Y-41267D01*
X40741Y-41025D01*
X40854Y-41025D01*
X41047Y-40945D01*
X41195Y-40798D01*
X41250Y-40664D01*
X41305Y-40797D01*
X41452Y-40945D01*
X41645Y-41025D01*
X41854Y-41025D01*
X41920Y-40997D01*
X41920Y-41000D01*
X41945Y-41127D01*
X42017Y-41233D01*
X42225Y-41441D01*
X42225Y-41604D01*
X42305Y-41797D01*
X42452Y-41945D01*
X42645Y-42025D01*
X42829Y-42025D01*
X42838Y-42030D01*
X42873Y-42054D01*
X42874Y-42055D01*
X43000Y-42080D01*
X43170Y-42080D01*
X43170Y-43000D01*
X43174Y-43020D01*
X43130Y-43126D01*
X43130Y-43373D01*
X43224Y-43601D01*
X43399Y-43775D01*
X43626Y-43870D01*
X43873Y-43870D01*
X44101Y-43776D01*
X44249Y-43626D01*
X44399Y-43775D01*
X44626Y-43870D01*
X44873Y-43870D01*
X45101Y-43776D01*
X45275Y-43601D01*
X45370Y-43374D01*
X45370Y-43127D01*
X45276Y-42899D01*
X45101Y-42725D01*
X44874Y-42630D01*
X44627Y-42630D01*
X44399Y-42724D01*
X44250Y-42873D01*
X44101Y-42725D01*
X43874Y-42630D01*
X43830Y-42630D01*
X43830Y-41750D01*
X43805Y-41624D01*
X43733Y-41517D01*
X43626Y-41445D01*
X43500Y-41420D01*
X43275Y-41420D01*
X43275Y-41396D01*
X43195Y-41203D01*
X43048Y-41055D01*
X42914Y-40999D01*
X43047Y-40945D01*
X43162Y-40830D01*
X44229Y-40830D01*
X44259Y-40860D01*
X44415Y-40925D01*
X44584Y-40925D01*
X44740Y-40861D01*
X44860Y-40741D01*
X44925Y-40585D01*
X44925Y-40416D01*
X44861Y-40260D01*
X44741Y-40140D01*
X44585Y-40075D01*
X44416Y-40075D01*
X44260Y-40139D01*
X44229Y-40170D01*
X43162Y-40170D01*
X43048Y-40055D01*
X42914Y-39999D01*
X43047Y-39945D01*
X43162Y-39830D01*
X44614Y-39830D01*
X45017Y-40233D01*
X45123Y-40305D01*
X45124Y-40305D01*
X45144Y-40308D01*
X45250Y-40330D01*
X45225Y-40395D01*
X45225Y-40604D01*
X45305Y-40797D01*
X45452Y-40945D01*
X45585Y-41000D01*
X45453Y-41055D01*
X45305Y-41202D01*
X45225Y-41395D01*
X45225Y-41604D01*
X45305Y-41797D01*
X45452Y-41945D01*
X45645Y-42025D01*
X45854Y-42025D01*
X46047Y-41945D01*
X46138Y-41854D01*
X46388Y-42105D01*
X46380Y-42126D01*
X46380Y-42373D01*
X46474Y-42601D01*
X46623Y-42749D01*
X46475Y-42899D01*
X46380Y-43126D01*
X46380Y-43373D01*
X46474Y-43601D01*
X46649Y-43775D01*
X46876Y-43870D01*
X47123Y-43870D01*
X47175Y-43848D01*
X47175Y-43925D01*
M02*
