G04 (created by PCBNEW-RS274X (2012-apr-16-27)-stable) date Fri 23 Aug 2013 11:32:02 AM IST*
G01*
G70*
G90*
%MOIN*%
G04 Gerber Fmt 3.4, Leading zero omitted, Abs format*
%FSLAX34Y34*%
G04 APERTURE LIST*
%ADD10C,0.006000*%
%ADD11C,0.015000*%
%ADD12R,0.295200X0.059000*%
%ADD13R,0.255900X0.039300*%
%ADD14C,0.055000*%
%ADD15R,0.055000X0.055000*%
%ADD16C,0.074000*%
%ADD17C,0.016000*%
G04 APERTURE END LIST*
G54D10*
G54D11*
X33000Y-43250D02*
X33000Y-38250D01*
X47000Y-43250D02*
X33000Y-43250D01*
X47000Y-38250D02*
X47000Y-43250D01*
X33000Y-38250D02*
X47000Y-38250D01*
G54D12*
X34922Y-42127D03*
X34922Y-39373D03*
G54D13*
X35118Y-41143D03*
X35118Y-40357D03*
G54D14*
X40250Y-42250D03*
X39250Y-42250D03*
X37250Y-39000D03*
X38250Y-39000D03*
X37250Y-42500D03*
X38250Y-42500D03*
G54D15*
X42500Y-39250D03*
G54D14*
X42500Y-40250D03*
X42500Y-41250D03*
X42500Y-42250D03*
X45500Y-42250D03*
X45500Y-41250D03*
X45500Y-40250D03*
X45500Y-39250D03*
G54D16*
X46500Y-41250D03*
X46500Y-40250D03*
X46500Y-39250D03*
X41500Y-40250D03*
X41500Y-41250D03*
X41500Y-42250D03*
G54D14*
X37000Y-41250D03*
X40000Y-41250D03*
X37000Y-40250D03*
X40000Y-40250D03*
G54D17*
X36877Y-42127D02*
X37250Y-42500D01*
X34922Y-42127D02*
X36877Y-42127D01*
X35000Y-40250D02*
X35118Y-40357D01*
X37000Y-40250D02*
X35000Y-40250D01*
X37000Y-41250D02*
X35000Y-41250D01*
X35000Y-41250D02*
X35118Y-41143D01*
X35250Y-39000D02*
X35000Y-39250D01*
X35000Y-39250D02*
X34922Y-39373D01*
X37250Y-39000D02*
X35250Y-39000D01*
M02*
