M48
;DRILL file {Pcbnew (2012-apr-16-27)-stable} date Fri 23 Aug 2013 11:32:07 AM IST
;FORMAT={-:-/ absolute / inch / decimal}
FMAT,2
INCH,TZ
T1C0.032
T2C0.040
%
G90
G05
M72
T1
X3.700Y4.025
X3.700Y4.125
X3.725Y3.900
X3.725Y4.250
X3.825Y3.900
X3.825Y4.250
X3.925Y4.225
X4.000Y4.025
X4.000Y4.125
X4.025Y4.225
X4.250Y3.925
X4.250Y4.025
X4.250Y4.125
X4.250Y4.225
X4.550Y3.925
X4.550Y4.025
X4.550Y4.125
X4.550Y4.225
T2
X4.150Y3.925
X4.150Y4.025
X4.150Y4.125
X4.150Y4.225
X4.650Y3.925
X4.650Y4.025
X4.650Y4.125
X4.650Y4.225
T0
M30
